<?xml version="1.0" encoding="UTF-8"?> <svg xmlns="http://www.w3.org/2000/svg" xmlns:cc="http://creativecommons.org/ns#" xmlns:dc="http://purl.org/dc/elements/1.1/" xmlns:rdf="http://www.w3.org/1999/02/22-rdf-syntax-ns#" width="870.27" height="191.25" version="1.1" viewBox="0 0 870.27 191.25"><metadata></metadata><defs><style>.cls-1,.cls-2{fill:#fff;}.cls-2{fill-rule:evenodd;}.cls-3{fill:#57585a;}.cls-4{fill:#00aced;}</style></defs><g transform="translate(0 .00016744)" data-name="Layer 2"><g data-name="Layer 1"><rect class="cls-1" x="539.61" y="121.43" width="124" height="69.82"></rect><rect class="cls-1" x="666.89" y="121.43" width="201.22" height="69.82"></rect><rect class="cls-1" x=".11" y="121.43" width="248.74" height="69.82"></rect><rect class="cls-1" x="345.61" y="121.43" width="191" height="69.82"></rect><rect class="cls-1" x="252.61" y="121.43" width="90" height="69.82"></rect><path class="cls-2" d="m0 19.59h17.13q13.9 0 20 2.56a20.48 20.48 0 0 1 9.7 8.3 25.64 25.64 0 0 1 3.57 13.75q0 8.88-4.66 14.76a24.06 24.06 0 0 1-12.63 8.18q-4.69 1.33-17.06 1.32v35.88h-16.05zm16.05 33.17h5.18c4.07 0 6.88-0.29 8.47-0.87a7.58 7.58 0 0 0 3.76-2.89 8.4 8.4 0 0 0 1.36-4.86 7.71 7.71 0 0 0-3.82-7.14c-1.85-1.12-5.31-1.69-10.34-1.69h-4.61zm51.23-33.17h17.13c9.37 0 16.06 0.83 20 2.5a20.54 20.54 0 0 1 9.6 8.34 25.47 25.47 0 0 1 3.64 13.77q0 8.36-4 14t-12.05 8.5l20 37.67h-17.6l-19-35.91h-1.67v35.88h-16v-84.75zm16 33.17h5.12c5.19 0 8.75-0.67 10.72-2s2.93-3.6 2.93-6.74a8.18 8.18 0 0 0-1.46-4.84 7.87 7.87 0 0 0-3.89-2.95c-1.62-0.61-4.61-0.91-9-0.91h-4.37v17.44zm50.76-33.17h16.17v54.83c0 4.72 0.41 8.07 1.23 10a10 10 0 0 0 4.1 4.7 12.94 12.94 0 0 0 6.88 1.76 13.36 13.36 0 0 0 7.36-2 10.23 10.23 0 0 0 4.27-5q1.17-3 1.18-11.55v-52.74h16.17v50.52c0 8.54-0.47 14.44-1.44 17.75a27.23 27.23 0 0 1-14.87 16.38 31.6 31.6 0 0 1-12.31 2.23 29.92 29.92 0 0 1-16-4.23 24.68 24.68 0 0 1-9.78-10.61q-2.93-6.37-2.93-21.52v-50.52zm69.71 0h16.59l21.3 60.2 21.72-60.2h16.52l-30.59 84.75h-15.51l-30-84.75zm124.37 0 39.54 84.75h-81.66l40-84.75z"></path><path class="cls-2" d="m391.3 19.59 39.54 84.75h-81.68l40-84.75zm52.6 0h8.62v31.79l34-31.79h11.38l-40.84 38 44 46.74h-11.28l-37.26-39.57v39.58h-8.62zm104.44 0 39.54 84.75h-9.1l-13.24-27.85h-36.73l-13.16 27.85h-9.45l40-84.75zm-1.06 17.79-14.58 30.84h29.1zm53.67 67v-84.79h17.58q19 0 27.6 3.05a36.83 36.83 0 0 1 19.28 15q6.93 10.65 7 25.4a44.43 44.43 0 0 1-5.51 22.41 35.34 35.34 0 0 1-14.28 14.3q-8.8 4.61-24.65 4.6zm8.14-8h9.78q17.52 0 24.29-2.18a28.1 28.1 0 0 0 15-11.19q5.46-8.11 5.45-19.79c0-8.17-2-15.17-5.92-20.95a29.63 29.63 0 0 0-16.49-11.92q-7.94-2.43-26.14-2.42h-6v68.38zm79.81-76.79h48.51v8.27h-40v26.55h39.66v8.27h-39.67v33.4h39.66v8.26h-48.16zm59.51 84.75 11.74-84.75h1.75l34.49 69.52 34.27-69.52h1.28l12.19 84.75h-8.2l-8.5-60.67-30 60.67h-2.22l-30.34-61.14-8.12 61.14zm111-84.75h8.5v84.75h-8.5zm4.14-19.59a6.46 6.46 0 0 1 4.72 2 6.46 6.46 0 0 1 2 4.72 6.49 6.49 0 0 1-2 4.72 6.69 6.69 0 0 1-9.44 0 6.49 6.49 0 0 1-2-4.72 6.46 6.46 0 0 1 2-4.72 6.47 6.47 0 0 1 4.72-2z"></path><path class="cls-3" d="m37.75 176.58a16.56 16.56 0 0 1-9.29-2.47 13.14 13.14 0 0 1-5.3-6.71l6.26-3.66q2.17 5.67 8.54 5.68a7.29 7.29 0 0 0 4.51-1.12 3.51 3.51 0 0 0-0.32-5.86 26.63 26.63 0 0 0-6.26-2.36 39.1 39.1 0 0 1-4.22-1.49 18 18 0 0 1-3.45-2 8 8 0 0 1-2.62-3.16 10.31 10.31 0 0 1-0.91-4.45 10 10 0 0 1 3.59-8 13 13 0 0 1 8.62-3 14.3 14.3 0 0 1 7.93 2.2 14.8 14.8 0 0 1 5.34 6.13l-6.17 3.53c-1.48-3.19-3.86-4.78-7.11-4.78a5.59 5.59 0 0 0-3.58 1 3.25 3.25 0 0 0-1.3 2.67 3.36 3.36 0 0 0 1.46 2.84 20 20 0 0 0 5.6 2.36c1.13 0.36 2 0.63 2.57 0.83s1.38 0.49 2.39 0.9a14.91 14.91 0 0 1 2.33 1.14 18.09 18.09 0 0 1 1.89 1.43 7.52 7.52 0 0 1 1.61 1.86 10.36 10.36 0 0 1 1 2.31 10.2 10.2 0 0 1 0.4 2.94 10 10 0 0 1-3.74 8.18 15.05 15.05 0 0 1-9.77 3.06z"></path><path class="cls-3" d="m61.42 138.69h7.32v37.15h-7.32z"></path><path class="cls-3" d="m102.81 138.69h7.32v37.15h-5.57l-15.92-22.71v22.71h-7.32v-37.15h5.56l15.93 22.63z"></path><path class="cls-3" d="m147.12 175.84-2.36-6.69h-15.26l-2.23 6.69h-7.91l13-37.15h9.07l13.1 37.15zm-15.23-13.53h10.45l-5.34-15.18z"></path><path class="cls-3" d="m170.89 175.84-12.47-37.15h8l9.08 28.56 9-28.56h8l-12.5 37.15z"></path><path class="cls-3" d="m224 175.84-2.36-6.69h-15.25l-2.23 6.69h-7.9l13-37.15h9.07l13.1 37.15zm-15.23-13.53h10.45l-5.36-15.18z"></path><path class="cls-4" d="m274 168.83h15.65v7h-23v-37.14h22.71v7h-15.36v7.9h14.06v6.9h-14.06z"></path><path class="cls-4" d="m322 138.69h7.32v37.15h-5.57l-15.92-22.71v22.71h-7.32v-37.15h5.49l16 22.63z"></path><path class="cls-3" d="m390.2 138.69-12.74 22.66v14.49h-7.27v-14.49l-12.68-22.66h8.28l8 15.47 8.08-15.47z"></path><path class="cls-3" d="m419 175.84-2.36-6.69h-15.24l-2.23 6.69h-7.91l13-37.15h9.08l13.1 37.15zm-15.24-13.53h10.46l-5.36-15.18z"></path><path class="cls-3" d="m464.76 175.84h-8.44l-13.27-17.4v17.4h-7.32v-37.15h7.32v16.37l12.74-16.37h8.44l-13.75 18z"></path><path class="cls-3" d="m474 138.69h7.32v37.15h-7.32z"></path><path class="cls-3" d="m515.43 138.69h7.32v37.15h-5.57l-15.92-22.71v22.71h-7.32v-37.15h5.57l15.92 22.63z"></path><path class="cls-4" d="m578.84 138.69v7h-10v30.14h-7.32v-30.13h-10v-7z"></path><path class="cls-4" d="m595.93 168.83h15.65v7h-23v-37.14h22.71v7h-15.36v7.9h14.07v6.9h-14.07z"></path><path class="cls-4" d="m651.44 175.84h-8.44l-13.27-17.4v17.4h-7.32v-37.15h7.32v16.37l12.74-16.37h8.44l-13.75 18z"></path><path class="cls-4" d="m717.06 138.69-12.73 22.66v14.49h-7.27v-14.49l-12.68-22.66h8.27l8.05 15.47 8.08-15.47z"></path><path class="cls-4" d="m745.88 175.84-2.36-6.69h-15.26l-2.26 6.69h-7.9l13-37.15h9.07l13.11 37.15zm-15.23-13.53h10.45l-5.36-15.18z"></path><path class="cls-4" d="m787.16 138.69-12.73 22.66v14.49h-7.27v-14.49l-12.68-22.66h8.27l8 15.47 8.08-15.47z"></path><path class="cls-4" d="m796.4 138.69h7.32v37.15h-7.32z"></path><path class="cls-4" d="m837.78 138.69h7.33v37.15h-5.57l-15.92-22.71v22.71h-7.33v-37.15h5.57l15.92 22.63z"></path></g></g></svg> 