<svg width="1179" height="337" viewBox="0 0 1179 337" fill="none" xmlns="http://www.w3.org/2000/svg">
<mask id="path-1-inside-1" fill="white">
<path fill-rule="evenodd" clip-rule="evenodd" d="M1199 187.416C1121.11 113.205 1024.04 56.8789 912.786 27.0676C608.845 -54.3731 -54.9729 48.3243 4.44609 337H5.4683C-1.99425 300.928 1.89953 267.82 14.9544 237.658C45.3409 167.453 125.513 112.779 229.056 73.7479C332.548 34.7366 459.155 11.4415 582.046 3.83713C704.943 -3.76765 824.044 4.32449 912.527 28.0336C1023.95 57.888 1121.11 114.374 1199 188.799V187.416Z"/>
</mask>
<path d="M912.786 27.0676L912.527 28.0336L912.786 27.0676ZM1199 187.416H1200V186.988L1199.69 186.692L1199 187.416ZM4.44609 337L3.46662 337.201L3.63096 338H4.44609V337ZM5.4683 337V338H6.69636L6.44757 336.797L5.4683 337ZM14.9544 237.658L14.0367 237.261L14.0367 237.261L14.9544 237.658ZM229.056 73.7479L229.409 74.6836L229.409 74.6836L229.056 73.7479ZM582.046 3.83713L582.108 4.83522L582.108 4.83522L582.046 3.83713ZM912.527 28.0336L912.786 27.0676L912.786 27.0676L912.527 28.0336ZM1199 188.799L1198.31 189.522L1200 191.137V188.799H1199ZM912.527 28.0336C1023.62 57.8005 1120.54 114.041 1198.31 188.14L1199.69 186.692C1121.68 112.368 1024.47 55.9574 913.045 26.1017L912.527 28.0336ZM5.42556 336.798C-9.33399 265.092 20.7727 204.892 79.2061 156.103C137.672 107.287 224.416 69.9794 322.61 44.2074C519.001 -7.33767 760.76 -12.6322 912.527 28.0336L913.045 26.1017C760.871 -14.6732 518.75 -9.33946 322.102 42.2729C223.776 68.0795 136.711 105.483 77.9242 154.568C19.1051 203.679 -11.4833 264.57 3.46662 337.201L5.42556 336.798ZM5.4683 336H4.44609V338H5.4683V336ZM14.0367 237.261C0.8992 267.613 -3.01475 300.931 4.48904 337.202L6.44757 336.797C-0.973739 300.925 2.89985 268.026 15.8721 238.055L14.0367 237.261ZM228.704 72.8122C125.096 111.867 44.5909 166.668 14.0367 237.261L15.8721 238.055C46.0909 168.238 125.929 113.69 229.409 74.6836L228.704 72.8122ZM581.984 2.83904C459.021 10.4479 332.311 33.7571 228.704 72.8122L229.409 74.6836C332.785 35.716 459.289 12.4352 582.108 4.83522L581.984 2.83904ZM912.786 27.0676C824.164 3.32155 704.948 -4.76985 581.984 2.83904L582.108 4.83522C704.938 -2.76545 823.923 5.32743 912.268 28.9995L912.786 27.0676ZM1199.69 188.076C1121.68 113.538 1024.37 56.9666 912.786 27.0676L912.268 28.9995C1023.52 58.8095 1120.54 115.21 1198.31 189.522L1199.69 188.076ZM1198 187.416V188.799H1200V187.416H1198Z" fill="#9DC7EF" mask="url(#path-1-inside-1)"/>
</svg>
