<svg width="549" height="737" viewBox="0 0 549 737" fill="none" xmlns="http://www.w3.org/2000/svg">
<path fill-rule="evenodd" clip-rule="evenodd" d="M153.629 675V706.001H0V737H153.629H395.371H549V706.001H395.371V675H153.629Z" fill="white"/>
<path fill-rule="evenodd" clip-rule="evenodd" d="M272 254H292V223H272V254Z" fill="#F4B184"/>
<path fill-rule="evenodd" clip-rule="evenodd" d="M322.484 184.69C322.484 189.261 326.193 192.967 330.766 192.967C335.339 192.967 339.046 189.261 339.046 184.69C339.046 180.117 335.339 176.409 330.766 176.409C326.193 176.409 322.484 180.117 322.484 184.69Z" fill="#F4B184"/>
<path fill-rule="evenodd" clip-rule="evenodd" d="M229.094 184.69C229.094 189.261 232.804 192.967 237.377 192.967C241.947 192.967 245.653 189.261 245.653 184.69C245.653 180.117 241.947 176.409 237.377 176.409C232.804 176.409 229.094 180.117 229.094 184.69Z" fill="#F4B184"/>
<path fill-rule="evenodd" clip-rule="evenodd" d="M235.056 172.422C232.822 105.522 282.642 110.315 282.662 110.315C282.67 110.314 332.496 105.411 330.403 172.313C330.403 172.313 330.502 200.24 323.01 210.703C313.169 224.444 295.11 231.647 282.797 231.664C270.482 231.676 252.243 225.419 242.536 210.787C234.869 199.246 235.056 172.422 235.056 172.422Z" fill="#F4B184"/>
<path fill-rule="evenodd" clip-rule="evenodd" d="M315.498 180.246C315.334 176.488 313.058 173.134 309.084 172.897C305.12 172.663 302.815 176.847 302.668 180.246C302.611 181.599 304.711 181.594 304.768 180.246C304.875 177.691 306.296 175.162 309.084 174.998C311.86 174.833 313.299 177.948 313.396 180.246C313.455 181.594 315.555 181.599 315.498 180.246Z" fill="#84452F"/>
<path fill-rule="evenodd" clip-rule="evenodd" d="M262.783 180.246C262.621 176.488 260.342 173.134 256.369 172.897C252.403 172.663 250.101 176.847 249.953 180.246C249.895 181.599 251.997 181.594 252.052 180.246C252.162 177.691 253.583 175.162 256.369 174.998C259.145 174.833 260.584 177.948 260.685 180.246C260.74 181.594 262.843 181.599 262.783 180.246Z" fill="#84452F"/>
<path fill-rule="evenodd" clip-rule="evenodd" d="M281.76 196.772L301.79 196.752C301.79 196.752 300.042 212.301 281.779 212.318C263.516 212.333 261.733 196.8 261.733 196.8L281.76 196.772Z" fill="white"/>
<path fill-rule="evenodd" clip-rule="evenodd" d="M207.938 136.398C207.938 136.398 222.631 138.498 228.465 133.598C228.465 133.598 222.867 133.833 219.598 130.101C219.598 130.101 233.358 125.667 241.289 119.607C249.221 113.541 260.414 103.046 288.872 103.978C317.331 104.912 350.915 123.333 330.01 182.1C330.01 182.1 318.56 167.649 314.446 147.592C314.446 147.592 273.224 161.184 240.267 155.115C238.625 162.941 236.629 171.824 235.133 176.409C235.133 176.409 230.717 165.461 232.047 153.11C222.277 150.085 213.736 144.86 207.938 136.398Z" fill="#805231"/>
<path fill-rule="evenodd" clip-rule="evenodd" d="M240.946 391.222H281.716H322.486L351.921 656.254H322.486C322.486 656.254 298.107 432.791 281.716 432.791C265.327 432.791 240.946 656.254 240.946 656.254H211.512L240.946 391.222Z" fill="#1C3C53"/>
<path fill-rule="evenodd" clip-rule="evenodd" d="M281.716 391.222H321.664L323.052 396.326C323.052 396.326 302.801 410.992 277.334 411.787C251.865 412.581 244.703 421.336 241.52 441.631C238.334 461.923 216.674 656.254 216.674 656.254H211.512L240.946 391.222H281.716Z" fill="#0B1D28"/>
<path fill-rule="evenodd" clip-rule="evenodd" d="M326.627 656.254C326.627 656.254 322.164 664.29 326.627 672.62H368.585C368.585 672.62 367.989 662.8 349.838 656.254H326.627Z" fill="#4CA3C9"/>
<path fill-rule="evenodd" clip-rule="evenodd" d="M324.642 673.215C324.642 674.202 325.443 674.999 326.429 674.999H369.479C370.467 674.999 371.263 674.202 371.263 673.215C371.263 672.225 370.467 671.431 369.479 671.431H326.429C325.443 671.431 324.642 672.225 324.642 673.215Z" fill="#1C3C53"/>
<path fill-rule="evenodd" clip-rule="evenodd" d="M236.661 656.254C236.661 656.254 241.126 664.29 236.661 672.62H194.705C194.705 672.62 195.297 662.8 213.45 656.254H236.661Z" fill="#4CA3C9"/>
<path fill-rule="evenodd" clip-rule="evenodd" d="M238.648 673.215C238.648 674.202 237.846 674.999 236.859 674.999H193.812C192.823 674.999 192.026 674.202 192.026 673.215C192.026 672.225 192.823 671.431 193.812 671.431H236.859C237.846 671.431 238.648 672.225 238.648 673.215Z" fill="#1C3C53"/>
<path fill-rule="evenodd" clip-rule="evenodd" d="M170.929 69.1574L179.035 76.2102L181.353 78.2248L189.45 85.2793C163.118 102.658 137.629 144.823 137.629 144.823L129.524 137.768L127.206 135.753L119.104 128.701C119.104 128.701 157.352 97.6381 170.929 69.1574Z" fill="#FFCE41"/>
<path fill-rule="evenodd" clip-rule="evenodd" d="M88.8965 143.007L127.628 176.711L151.929 148.791L113.2 115.087L88.8965 143.007Z" fill="#FFCE41"/>
<path fill-rule="evenodd" clip-rule="evenodd" d="M97.9199 142.38L127.001 167.69L142.907 149.416L113.824 124.106L97.9199 142.38Z" fill="#FFDF8F"/>
<path fill-rule="evenodd" clip-rule="evenodd" d="M81.2456 143.064C79.4082 145.174 79.6291 148.375 81.7392 150.212L121.475 184.792C123.587 186.629 126.788 186.407 128.625 184.297C130.461 182.187 130.238 178.986 128.13 177.148L88.3959 142.569C86.2858 140.73 83.0846 140.956 81.2456 143.064Z" fill="#FFDF8F"/>
<path fill-rule="evenodd" clip-rule="evenodd" d="M154.545 1.74715C161.294 7.62199 168.043 13.4935 174.79 19.3683C177.316 21.5703 173.906 25.4925 171.376 23.2905C165.31 18.0113 159.242 12.7305 153.171 7.45131C150.591 10.9685 148.705 15.1132 147.522 19.2294C143.829 32.1236 150.054 43.5872 159.622 52.0238C162.136 54.2426 158.724 58.1647 156.203 55.9493C145.7 46.6794 139.217 34.5114 141.92 20.3054C143.165 13.7796 146.449 6.99619 150.872 2.00148C151.813 0.940631 153.464 0.808443 154.545 1.74715Z" fill="#FFCE41"/>
<path fill-rule="evenodd" clip-rule="evenodd" d="M258.485 92.209C251.735 86.3342 244.989 80.4627 238.239 74.5878C235.711 72.3858 232.295 76.3113 234.824 78.5116L253.022 94.3508C249.899 97.3911 246.05 99.8357 242.138 101.571C229.877 107.009 217.662 102.424 207.983 94.1132C205.441 91.9296 202.026 95.8517 204.571 98.037C215.204 107.168 228.145 111.905 241.844 107.268C248.134 105.135 254.402 100.948 258.736 95.8768C259.66 94.7992 259.563 93.1444 258.485 92.209Z" fill="#FFCE41"/>
<path fill-rule="evenodd" clip-rule="evenodd" d="M251.369 70.4385L239.202 84.4169C223.174 102.83 194.998 104.782 176.586 88.7574L169.263 82.3839C150.85 66.359 148.897 38.1846 164.921 19.7703L177.085 5.79346L251.369 70.4385Z" fill="#FFCE41"/>
<path fill-rule="evenodd" clip-rule="evenodd" d="M200.166 99.2663C191.702 98.2205 183.464 94.7435 176.585 88.7582L169.262 82.3831C150.848 66.3582 148.896 38.1837 164.921 19.7711L177.085 5.7926L202.033 27.5016C180.81 61.6061 200.166 99.2663 200.166 99.2663Z" fill="#F7BD2D"/>
<path fill-rule="evenodd" clip-rule="evenodd" d="M173.021 1.53231C171.418 3.37123 171.607 6.15889 173.451 7.76188L249.92 74.3111C251.759 75.9107 254.549 75.7183 256.147 73.8777C257.748 72.0404 257.557 69.2511 255.715 67.6498L179.251 1.10061C177.405 -0.502384 174.619 -0.308285 173.021 1.53231Z" fill="#FFDF8F"/>
<path fill-rule="evenodd" clip-rule="evenodd" d="M156.975 90.6346C156.975 90.6346 160.333 100.286 157.733 101.081C155.129 101.877 152.343 96.2234 152.343 96.2234C152.343 96.2234 153.918 105.321 151.928 106.512C149.938 107.704 147.613 100.929 147.613 100.929C147.613 100.929 149.706 109.543 147.582 109.877C145.461 110.212 143.998 105.426 143.998 105.426C143.998 105.426 143.131 89.2693 156.975 90.6346Z" fill="#F4B184"/>
<path fill-rule="evenodd" clip-rule="evenodd" d="M229.575 260.192L259.718 248.891L281.716 253.682L303.717 248.891L333.861 260.192C333.861 260.192 324.569 338.563 327.822 393.85C327.822 393.85 312.28 404.073 281.716 404.073C251.155 404.073 235.613 393.85 235.613 393.85C238.869 338.563 229.575 260.192 229.575 260.192Z" fill="#4CA3C9"/>
<path fill-rule="evenodd" clip-rule="evenodd" d="M291.624 240.785L281.716 253.682L294.368 267.815L303.717 248.892L291.624 240.785Z" fill="#8BD0EF"/>
<path fill-rule="evenodd" clip-rule="evenodd" d="M271.81 240.785L281.717 253.682L269.066 267.815L259.717 248.892L271.81 240.785Z" fill="#8BD0EF"/>
<path fill-rule="evenodd" clip-rule="evenodd" d="M235.614 393.85C237.982 353.609 233.705 301.154 231.201 275.573C236.973 277.317 256.774 365.496 267.284 378.231C277.793 390.962 327.542 388.303 327.542 388.303C327.621 390.174 327.716 392.026 327.823 393.85C327.823 393.85 312.279 404.073 281.717 404.073C251.156 404.073 235.614 393.85 235.614 393.85Z" fill="#3595AF"/>
<path fill-rule="evenodd" clip-rule="evenodd" d="M166.174 120.524C163.073 161.38 168.492 205.328 198.535 235.551C210.318 247.408 224.806 256.348 239.749 259.209C251.049 261.373 246.252 278.576 235 276.424C216.236 272.83 198.172 260.516 184.991 247.254C152.118 214.173 144.988 165.396 148.333 120.524H166.174Z" fill="#4CA3C9"/>
<path fill-rule="evenodd" clip-rule="evenodd" d="M166.174 120.524C166.174 120.524 173.048 111.023 171.934 109.072C170.822 107.121 166.309 97.3054 163.659 98.1002C161.003 98.8984 163.659 109.072 163.659 109.072L154.462 120.524H166.174Z" fill="#F4B184"/>
<path fill-rule="evenodd" clip-rule="evenodd" d="M184.991 247.254C152.116 214.174 144.988 165.396 148.333 120.524H154.462C151.193 139.966 154.462 189.886 171.934 218.005C187.849 243.618 230.843 275.353 231.186 275.564C213.802 271.142 197.279 259.615 184.991 247.254Z" fill="#3595AF"/>
<path fill-rule="evenodd" clip-rule="evenodd" d="M317.982 270.615C353.782 248.407 371.99 207.742 382.176 168.401C386.206 152.842 389.261 136.703 390.859 120.524H408.768C407.031 138.912 403.5 157.283 398.925 174.949C387.712 218.256 366.112 261.765 326.992 286.03C317.179 292.118 308.22 276.668 317.982 270.615Z" fill="#4CA3C9"/>
<path fill-rule="evenodd" clip-rule="evenodd" d="M408.767 120.524C408.767 120.524 413.662 106.989 411.952 105.794C410.243 104.599 398.702 101.251 397.507 102.329C396.314 103.408 392.337 88.2865 389.151 88.2865C385.969 88.2865 390.859 120.524 390.859 120.524H408.767Z" fill="#F4B184"/>
<path fill-rule="evenodd" clip-rule="evenodd" d="M398.926 174.949C388.154 216.55 367.789 258.323 331.529 283.061C331.59 283 397.38 218.24 403.215 120.524H408.769C407.032 138.912 403.501 157.281 398.926 174.949Z" fill="#3595AF"/>
</svg>
