<svg width="796" height="886" viewBox="0 0 796 886" fill="none" xmlns="http://www.w3.org/2000/svg">
<path d="M795.5 397.8C795.5 452.632 781.717 486.957 758.342 512.103C734.939 537.279 701.88 553.302 663.177 571.438C661.647 572.155 660.109 572.875 658.562 573.599C581.853 609.504 484.423 655.108 397.575 795.336C353.365 866.719 306.525 891.128 261.197 884.44C215.795 877.74 171.682 839.823 133.016 785.991C94.3676 732.182 61.2352 662.571 37.7654 592.681C14.2947 522.788 0.5 452.653 0.5 397.8C0.5 178.377 178.467 0.5 398 0.5C617.533 0.5 795.5 178.377 795.5 397.8Z" stroke="white"/>
</svg>
