<svg width="1175" height="996" viewBox="0 0 1175 996" fill="none" xmlns="http://www.w3.org/2000/svg">
<mask id="path-1-inside-1" fill="white">
<path fill-rule="evenodd" clip-rule="evenodd" d="M565.333 971.852C476.891 948.153 427.497 911.122 397.046 862.626C366.55 814.059 354.975 753.891 342.422 683.674C342.204 682.45 341.984 681.222 341.765 679.992C341.487 678.433 341.208 676.869 340.928 675.301C316.117 536.154 284.598 359.39 95.8044 158.773C41.0923 100.634 11.3415 47.7235 1.46851 2.5193e-10L0.446289 0C10.3276 48.0066 40.2105 101.157 95.0762 159.458C283.665 359.858 315.142 536.382 339.944 675.479C365.747 820.187 384.327 924.386 565.075 972.817C787.51 1032.42 1013.81 971.875 1175 830.982V829.652C1014.02 970.745 787.738 1031.44 565.333 971.852Z"/>
</mask>
<path d="M397.046 862.626L396.199 863.158L396.199 863.158L397.046 862.626ZM565.333 971.852L565.075 972.817L565.075 972.817L565.333 971.852ZM342.422 683.674L341.438 683.85L341.438 683.85L342.422 683.674ZM341.765 679.992L340.78 680.167L340.78 680.167L341.765 679.992ZM340.928 675.301L339.944 675.476L339.944 675.476L340.928 675.301ZM95.8044 158.773L95.0762 159.458L95.8044 158.773ZM1.46851 2.5193e-10L2.44777 -0.20259L2.2828 -1L1.46851 -1L1.46851 2.5193e-10ZM0.446289 0L0.446289 -1L-0.780507 -1L-0.533178 0.201606L0.446289 0ZM95.0762 159.458L95.8045 158.773L95.8045 158.773L95.0762 159.458ZM339.944 675.479L338.96 675.654L338.96 675.654L339.944 675.479ZM565.075 972.817L565.333 971.851L565.333 971.851L565.075 972.817ZM1175 830.982L1175.66 831.734L1176 831.436V830.982H1175ZM1175 829.652H1176V827.446L1174.34 828.9L1175 829.652ZM396.199 863.158C426.817 911.919 476.453 949.071 565.075 972.817L565.592 970.886C477.329 947.235 428.178 910.326 397.893 862.094L396.199 863.158ZM341.438 683.85C353.983 754.028 365.582 814.397 396.199 863.158L397.893 862.094C367.518 813.72 355.966 753.754 343.407 683.498L341.438 683.85ZM340.78 680.167C341 681.398 341.219 682.626 341.438 683.85L343.407 683.498C343.188 682.274 342.969 681.046 342.749 679.816L340.78 680.167ZM339.944 675.476C340.223 677.045 340.502 678.608 340.78 680.167L342.749 679.816C342.471 678.257 342.192 676.694 341.913 675.125L339.944 675.476ZM95.0762 159.458C283.666 359.859 315.142 536.386 339.944 675.476L341.913 675.125C317.091 535.922 285.529 358.92 96.5327 158.088L95.0762 159.458ZM0.489242 0.20259C10.4127 48.1697 40.2898 101.241 95.0762 159.458L96.5327 158.088C41.8948 100.028 12.2704 47.2774 2.44777 -0.20259L0.489242 0.20259ZM0.446289 1L1.46851 1L1.46851 -1L0.446289 -1L0.446289 1ZM95.8045 158.773C41.0131 100.55 11.2568 47.5609 1.42576 -0.201606L-0.533178 0.201606C9.39839 48.4523 39.4078 101.763 94.348 160.144L95.8045 158.773ZM340.929 675.303C316.116 536.15 284.597 359.389 95.8045 158.773L94.348 160.144C282.734 360.328 314.167 536.614 338.96 675.654L340.929 675.303ZM565.333 971.851C475.144 947.685 425.559 909.654 395.26 859.733C364.912 809.732 353.839 747.708 340.929 675.303L338.96 675.654C351.852 747.958 362.971 810.388 393.55 860.771C424.179 911.234 474.257 949.518 564.816 973.783L565.333 971.851ZM1174.34 830.229C1013.4 970.912 787.434 1031.36 565.333 971.851L564.816 973.783C787.587 1033.47 1014.23 972.838 1175.66 831.734L1174.34 830.229ZM1174 829.652V830.982H1176V829.652H1174ZM565.075 972.817C787.815 1032.5 1014.43 971.708 1175.66 830.405L1174.34 828.9C1013.6 969.783 787.661 1030.39 565.592 970.886L565.075 972.817Z" fill="#9DC7EF" mask="url(#path-1-inside-1)"/>
</svg>
