<svg width="554" height="525" viewBox="0 0 554 525" fill="none" xmlns="http://www.w3.org/2000/svg">
<path opacity="0.4" d="M224.257 515.209C189.496 505.895 170.098 491.35 158.139 472.313C146.158 453.242 141.606 429.612 136.666 402.006C136.471 400.915 136.275 399.818 136.078 398.714C126.315 344.011 113.908 274.501 39.6384 195.611C1.87156 155.495 -5.61609 121.747 6.2819 94.2623C18.2099 66.7088 49.698 45.2342 90.4062 29.8988C131.088 14.5731 180.862 5.42318 229.179 2.43973C277.499 -0.543894 324.321 2.64216 359.101 11.9616C498.235 49.2423 580.837 192.12 543.601 331.088C506.365 470.055 363.39 552.49 224.257 515.209Z" stroke="#9DC7EF"/>
</svg>
