<svg xmlns="http://www.w3.org/2000/svg" viewBox="0 0 108.22 107.91"><defs><style>.cls-1{fill:#f6f6f6;}.cls-2,.cls-5{fill:none;stroke:#010101;}.cls-2,.cls-5,.cls-7{stroke-miterlimit:10;}.cls-2{stroke-width:0.5px;}.cls-3{fill:#221a10;}.cls-4,.cls-7{fill:#ea5b0c;}.cls-5{stroke-linecap:round;}.cls-6{fill:#1d1d1b;}.cls-7{stroke:#ea5b0c;stroke-width:0.25px;}</style></defs><title>Varlık 3</title><g id="katman_2" data-name="katman 2"><g id="katman_1-2" data-name="katman 1"><rect class="cls-1" x="0.25" y="0.25" width="107.72" height="107.66"/><polyline class="cls-2" points="0.25 69.84 0.25 0.25 107.97 0.25 107.97 71.36"/><rect class="cls-3" x="40.01" y="56.27" width="28.2" height="28.2" rx="12.11"/><path class="cls-4" d="M54.11,69.84c-5.83,0-10.86,1.93-13.31,6.81a12.12,12.12,0,0,0,11.31,7.82h4a12.1,12.1,0,0,0,11.31-7.82C65,71.77,59.94,69.84,54.11,69.84Z"/><line class="cls-5" x1="19.03" y1="25.55" x2="36.04" y2="42.56"/><line class="cls-5" x1="36.04" y1="25.55" x2="19.03" y2="42.56"/><line class="cls-5" x1="72.92" y1="25.55" x2="89.93" y2="42.56"/><line class="cls-5" x1="89.93" y1="25.55" x2="72.92" y2="42.56"/><circle class="cls-6" cx="54.21" cy="102.41" r="5.5"/><path class="cls-7" d="M69.75,19.06c-.53,0-1,.07-1.39.11s-.9.13-1.5.25a19.72,19.72,0,0,0-5.49-.76L59,18.92l-2.42.21L56,21.22l-.7,1.83-.42.76-.51.67-1.08,1.11.6,1,.6,1,.6,1,.6,1.05a14.55,14.55,0,0,1-3.22-.65l-2-3.49-2-3.48-2-3.49-2-3.51a26.62,26.62,0,0,0,3,.56l1.17,2,.66,1,.59,1,1.16,2,1.17,2a15.13,15.13,0,0,0,3.44-7.37l.91-5.16a45.75,45.75,0,0,1,1-4.86l1.42-.71a9,9,0,0,1,1.54-.44,11.63,11.63,0,0,0-2.35,4.68l-.38,1.6-.27,1.73L57,16.64l2.7-.25a14,14,0,0,1,2.83,0,13.25,13.25,0,0,1,3.41,1Z"/></g></g></svg>