<svg xmlns="http://www.w3.org/2000/svg" viewBox="0 0 108.22 107.91"><defs><style>.cls-1{fill:#f6f6f6;}.cls-2,.cls-6{fill:none;stroke:#010101;}.cls-2,.cls-6,.cls-9{stroke-miterlimit:10;}.cls-2{stroke-width:0.5px;}.cls-3{fill:#221a10;}.cls-4{fill:#fff;}.cls-5,.cls-9{fill:#ea5b0c;}.cls-7{fill:#1d1d1b;}.cls-8{fill:#c6c6c6;}.cls-9{stroke:#ea5b0c;stroke-width:0.25px;}</style></defs><title>Varlık 10</title><g id="katman_2" data-name="katman 2"><g id="katman_1-2" data-name="katman 1"><rect class="cls-1" x="0.25" y="0.25" width="107.72" height="107.66"/><polyline class="cls-2" points="107.97 71.36 107.97 0.25 0.25 0.25 0.25 69.84"/><path class="cls-3" d="M17.05,57.46c-.3-.73,3.16,26.79,37.06,27.81,33.89-1,37.36-28.54,37.06-27.81A158.71,158.71,0,0,1,17.05,57.46Z"/><path class="cls-4" d="M54.11,67.21c15.37-.37,25.66-4.34,32.51-9.17a158.61,158.61,0,0,1-65,0C28.45,62.87,38.73,66.84,54.11,67.21Z"/><path class="cls-5" d="M77.8,78.21C71.87,75,63.46,73,54.11,73s-17.76,2-23.69,5.21C35.88,82,43.5,85,54.11,85.27,64.71,85,72.34,82,77.8,78.21Z"/><path class="cls-6" d="M18.79,38.37c0-7.46,5.42-13.51,12.1-13.51S43,30.91,43,38.37"/><path class="cls-6" d="M64.7,38.37c0-7.46,5.42-13.51,12.1-13.51s12.1,6.05,12.1,13.51"/><rect class="cls-7" x="5.14" y="92.02" width="11" height="20.78" transform="translate(113.05 91.77) rotate(90)"/><rect class="cls-8" x="34.12" y="92.02" width="11" height="20.78" transform="translate(142.03 62.79) rotate(90)"/><rect class="cls-8" x="63.1" y="92.02" width="11" height="20.78" transform="translate(171.01 33.81) rotate(90)"/><rect class="cls-8" x="92.08" y="92.02" width="11" height="20.78" transform="translate(199.98 4.83) rotate(90)"/><path class="cls-9" d="M62.13,4.92a10.66,10.66,0,0,0-1,1.17,9.6,9.6,0,0,0-.83,1.36,10.88,10.88,0,0,0-1.35,3.17l-.48,2-.4,2.29-.58,4.44,1.16,2,1.13,1.95,1.14,2,1.13,2L60.6,29.5l-1.14-2-1.18-2.05-1.15-2-1.16-2-1.39.13-1.65,0a12.51,12.51,0,0,1-3.47-.49,25.48,25.48,0,0,1-4.11-1.59l-4.43-2.39a20.11,20.11,0,0,0,4.11.52l3.09,1.07a19.46,19.46,0,0,0,3,.55,22.81,22.81,0,0,0,2.48,0l1.15-.2,1.19-.27.47-3.67L57,11.48a32.5,32.5,0,0,1,1.79-6A14.87,14.87,0,0,1,62.13,4.92Z"/></g></g></svg>