<svg xmlns="http://www.w3.org/2000/svg" viewBox="0 0 108.22 107.91"><defs><style>.cls-1{fill:#f6f6f6;}.cls-2,.cls-3,.cls-4{fill:none;}.cls-2,.cls-6{stroke:#ea5b0c;}.cls-2,.cls-4{stroke-linecap:round;stroke-linejoin:round;}.cls-3{stroke:#010101;stroke-width:0.5px;}.cls-3,.cls-6{stroke-miterlimit:10;}.cls-4{stroke:#1d1d1b;}.cls-5{fill:#1d1d1b;}.cls-6{fill:#ea5b0c;stroke-width:0.25px;}</style></defs><title>Varlık 2</title><g id="katman_2" data-name="katman 2"><g id="katman_1-2" data-name="katman 1"><rect class="cls-1" x="0.25" y="0.25" width="107.72" height="107.66"/><polyline class="cls-2" points="20.44 84.43 29.52 74.69 37.24 84.36 45.56 74.69 54.13 84.43 62.7 74.69 71.46 84.43 79.83 74.69 89.56 84.3"/><polyline class="cls-3" points="0.25 69.84 0.25 0.25 107.97 0.25 107.97 71.36"/><polyline class="cls-4" points="20.44 46.39 40.15 35.77 20.44 25.16"/><polyline class="cls-4" points="89.56 46.39 69.85 35.77 89.56 25.16"/><polyline class="cls-4" points="20.44 83.42 29.52 73.67 37.24 83.34 45.56 73.67 54.13 83.42 62.7 73.67 71.46 83.42 79.83 73.67 89.56 83.29"/><circle class="cls-5" cx="54.21" cy="102.41" r="5.5"/><path class="cls-6" d="M69.75,19.06c-.53,0-1,.07-1.39.11s-.9.13-1.5.25a19.72,19.72,0,0,0-5.49-.76L59,18.92l-2.42.21L56,21.22l-.7,1.83-.42.76-.51.67-1.08,1.11.6,1,.6,1,.6,1,.6,1.05a14.55,14.55,0,0,1-3.22-.65l-2-3.49-2-3.48-2-3.49-2-3.51a26.62,26.62,0,0,0,3,.56l1.16,2,.67,1,.58,1,1.17,2,1.17,2a15.13,15.13,0,0,0,3.44-7.37l.91-5.16a45.75,45.75,0,0,1,1-4.86l1.42-.71a9,9,0,0,1,1.54-.44,11.63,11.63,0,0,0-2.35,4.68l-.38,1.6-.27,1.73L57,16.64l2.7-.25a14,14,0,0,1,2.83,0,13.25,13.25,0,0,1,3.41,1Z"/></g></g></svg>