<svg xmlns="http://www.w3.org/2000/svg" viewBox="0 0 108.22 107.91"><defs><style>.cls-1{fill:#f6f6f6;}.cls-2,.cls-6{fill:none;stroke:#010101;}.cls-2,.cls-6,.cls-8{stroke-miterlimit:10;}.cls-2{stroke-width:0.5px;}.cls-3{fill:#221a10;}.cls-4{fill:#fff;}.cls-5,.cls-8{fill:#ea5b0c;}.cls-7{fill:#1d1d1b;}.cls-8{stroke:#ea5b0c;stroke-width:0.25px;}</style></defs><title>Varlık 4</title><g id="katman_2" data-name="katman 2"><g id="katman_1-2" data-name="katman 1"><rect class="cls-1" x="0.25" y="0.25" width="107.72" height="107.66"/><polyline class="cls-2" points="107.97 71.36 107.97 0.25 0.25 0.25 0.25 69.84"/><path class="cls-3" d="M17.05,57.46c-.3-.73,3.16,26.79,37.06,27.81,33.89-1,37.36-28.54,37.06-27.81A158.71,158.71,0,0,1,17.05,57.46Z"/><path class="cls-4" d="M54.11,67.21c15.37-.37,25.66-4.34,32.51-9.17a158.61,158.61,0,0,1-65,0C28.45,62.87,38.73,66.84,54.11,67.21Z"/><path class="cls-5" d="M77.8,78.21C71.87,75,63.46,73,54.11,73s-17.76,2-23.69,5.21C35.88,82,43.5,85,54.11,85.27,64.71,85,72.34,82,77.8,78.21Z"/><path class="cls-6" d="M18.79,38.37c0-7.46,5.42-13.51,12.1-13.51S43,30.91,43,38.37"/><path class="cls-6" d="M64.7,38.37c0-7.46,5.42-13.51,12.1-13.51s12.1,6.05,12.1,13.51"/><circle class="cls-7" cx="54.21" cy="102.41" r="5.5"/><path class="cls-8" d="M69.75,18.81c-.53,0-1,.07-1.39.11s-.9.13-1.5.25a19.35,19.35,0,0,0-5.49-.76L59,18.67l-2.42.2L56,21l-.7,1.83-.42.76-.51.67-1.08,1.11.6,1,.6,1,.6,1,.6,1.05a14.07,14.07,0,0,1-3.22-.66l-2-3.48-2-3.49-2-3.48-2-3.51a26.73,26.73,0,0,0,3,.55l1.16,2,.67,1,.58,1,1.17,2,1.17,2a15.13,15.13,0,0,0,3.44-7.37l.91-5.16a44.75,44.75,0,0,1,1-4.86l1.42-.71a9,9,0,0,1,1.54-.44A11.63,11.63,0,0,0,58.11,9.6l-.38,1.6-.27,1.73L57,16.38l2.7-.25a14.05,14.05,0,0,1,2.83,0,13.61,13.61,0,0,1,3.41,1Z"/></g></g></svg>