<svg xmlns="http://www.w3.org/2000/svg" viewBox="0 0 108.22 107.91"><defs><style>.cls-1{fill:#f6f6f6;}.cls-2,.cls-3,.cls-4{fill:none;}.cls-2,.cls-6{stroke:#ea5b0c;}.cls-2,.cls-4{stroke-linecap:round;stroke-linejoin:round;}.cls-3{stroke:#010101;stroke-width:0.5px;}.cls-3,.cls-6{stroke-miterlimit:10;}.cls-4{stroke:#1d1d1b;}.cls-5{fill:#1d1d1b;}.cls-6{fill:#ea5b0c;stroke-width:0.25px;}</style></defs><title>Varlık 5</title><g id="katman_2" data-name="katman 2"><g id="katman_1-2" data-name="katman 1"><rect class="cls-1" x="0.25" y="0.25" width="107.72" height="107.66"/><polyline class="cls-2" points="20.44 84.43 29.52 74.69 37.24 84.36 45.56 74.69 54.13 84.43 62.7 74.69 71.46 84.43 79.83 74.69 89.56 84.3"/><polyline class="cls-3" points="0.25 69.84 0.25 0.25 107.97 0.25 107.97 71.36"/><polyline class="cls-4" points="20.44 46.39 40.15 35.77 20.44 25.16"/><polyline class="cls-4" points="89.56 46.39 69.85 35.77 89.56 25.16"/><polyline class="cls-4" points="20.44 83.42 29.52 73.67 37.24 83.34 45.56 73.67 54.13 83.42 62.7 73.67 71.46 83.42 79.83 73.67 89.56 83.29"/><rect class="cls-5" x="5.14" y="92.02" width="11" height="20.78" transform="translate(113.05 91.77) rotate(90)"/><rect class="cls-5" x="34.12" y="92.02" width="11" height="20.78" transform="translate(142.03 62.79) rotate(90)"/><rect class="cls-5" x="63.1" y="92.02" width="11" height="20.78" transform="translate(171.01 33.81) rotate(90)"/><rect class="cls-5" x="92.08" y="92.02" width="11" height="20.78" transform="translate(199.98 4.83) rotate(90)"/><path class="cls-6" d="M61.62,4.92a10.66,10.66,0,0,0-1,1.17,9.6,9.6,0,0,0-.83,1.36,11.14,11.14,0,0,0-1.36,3.17l-.48,2-.39,2.29L57,19.35l1.16,2,1.12,1.95,1.15,2,1.13,2L60.09,29.5l-1.15-2-1.18-2.05-1.14-2-1.16-2-1.39.13-1.66,0a12.61,12.61,0,0,1-3.47-.49,25.05,25.05,0,0,1-4.1-1.59L40.4,17.17a20.29,20.29,0,0,0,4.12.52l3.08,1.07a19.58,19.58,0,0,0,3,.55,22.86,22.86,0,0,0,2.48,0l1.14-.2,1.19-.27.48-3.67.59-3.64a32.38,32.38,0,0,1,1.78-6A15,15,0,0,1,61.62,4.92Z"/></g></g></svg>