<svg xmlns="http://www.w3.org/2000/svg" viewBox="0 0 108.22 107.91"><defs><style>.cls-1{fill:#f6f6f6;}.cls-2,.cls-5{fill:none;stroke:#010101;}.cls-2,.cls-5,.cls-8{stroke-miterlimit:10;}.cls-2{stroke-width:0.5px;}.cls-3{fill:#221a10;}.cls-4,.cls-8{fill:#ea5b0c;}.cls-5{stroke-linecap:round;}.cls-6{fill:#1d1d1b;}.cls-7{fill:#c6c6c6;}.cls-8{stroke:#ea5b0c;stroke-width:0.25px;}</style></defs><title>Varlık 7</title><g id="katman_2" data-name="katman 2"><g id="katman_1-2" data-name="katman 1"><rect class="cls-1" x="0.25" y="0.25" width="107.72" height="107.66"/><polyline class="cls-2" points="0.25 69.84 0.25 0.25 107.97 0.25 107.97 71.36"/><rect class="cls-3" x="40.01" y="56.27" width="28.2" height="28.2" rx="12.11"/><path class="cls-4" d="M54.11,69.84c-5.83,0-10.86,1.93-13.31,6.81a12.12,12.12,0,0,0,11.31,7.82h4a12.1,12.1,0,0,0,11.31-7.82C65,71.77,59.94,69.84,54.11,69.84Z"/><line class="cls-5" x1="19.03" y1="25.55" x2="36.04" y2="42.56"/><line class="cls-5" x1="36.04" y1="25.55" x2="19.03" y2="42.56"/><line class="cls-5" x1="72.92" y1="25.55" x2="89.93" y2="42.56"/><line class="cls-5" x1="89.93" y1="25.55" x2="72.92" y2="42.56"/><rect class="cls-6" x="5.14" y="92.02" width="11" height="20.78" transform="translate(113.05 91.77) rotate(90)"/><rect class="cls-6" x="34.12" y="92.02" width="11" height="20.78" transform="translate(142.03 62.79) rotate(90)"/><rect class="cls-7" x="63.1" y="92.02" width="11" height="20.78" transform="translate(171.01 33.81) rotate(90)"/><rect class="cls-7" x="92.08" y="92.02" width="11" height="20.78" transform="translate(199.98 4.83) rotate(90)"/><path class="cls-8" d="M62.62,4.92a10.66,10.66,0,0,0-1,1.17,9.6,9.6,0,0,0-.83,1.36,11.14,11.14,0,0,0-1.36,3.17l-.48,2-.39,2.29L58,19.35l1.16,2,1.12,1.95,1.15,2,1.13,2L61.09,29.5l-1.15-2-1.18-2.05-1.14-2-1.16-2-1.39.13-1.66,0a12.61,12.61,0,0,1-3.47-.49,25.05,25.05,0,0,1-4.1-1.59L41.4,17.17a20.29,20.29,0,0,0,4.12.52l3.08,1.07a19.58,19.58,0,0,0,3,.55,22.86,22.86,0,0,0,2.48,0l1.14-.2,1.19-.27.48-3.67.59-3.64a32.38,32.38,0,0,1,1.78-6A15,15,0,0,1,62.62,4.92Z"/></g></g></svg>