<svg width="1184" height="1259" viewBox="0 0 1184 1259" fill="none" xmlns="http://www.w3.org/2000/svg">
<path fill-rule="evenodd" clip-rule="evenodd" d="M240.865 -346.387C-104.021 -253.975 -308.68 100.569 -216.253 445.51C-123.827 790.451 460.498 1535.39 575.571 902.754C690.644 270.114 1052.43 452.441 960 107.5C867.574 -237.441 585.75 -438.799 240.865 -346.387Z" fill="#379993"/>
<path opacity="0.2" d="M734.223 571.047C615.805 776.153 353.277 846.279 147.85 727.675C-57.5774 609.072 -128.111 346.653 -9.69275 141.547C19.8988 90.2931 49.3413 70.1317 82.2923 64.8087C98.7926 62.1432 116.206 63.1927 135.015 65.9669C147.953 67.8754 161.527 70.5957 175.906 73.4775C182.439 74.7867 189.138 76.1293 196.02 77.4443C240.056 85.8588 291.411 93.1094 353.739 83.0541C416.067 72.9987 489.332 45.6433 577.215 -15.1026C665.01 -75.788 725.938 -82.1385 766.181 -54.7374C786.327 -41.0206 801.368 -18.8026 812.019 9.47121C822.67 37.7435 828.918 72.0377 831.5 109.855C836.664 185.49 827.155 275.141 808.944 358.722C790.732 442.305 763.827 519.772 734.223 571.047Z" stroke="white"/>
</svg>
