<svg width="277" height="35" viewBox="0 0 277 35" fill="none" xmlns="http://www.w3.org/2000/svg">
<mask id="mask0" mask-type="alpha" maskUnits="userSpaceOnUse" x="0" y="6" width="118" height="29">
<path fill-rule="evenodd" clip-rule="evenodd" d="M0 6.72461H117.032V34.3735H0V6.72461Z" fill="white"/>
</mask>
<g mask="url(#mask0)">
<path fill-rule="evenodd" clip-rule="evenodd" d="M104.447 6.72461L117.032 33.6972H114.133H94.0408H91.0358L103.77 6.72461H104.447ZM64.8649 6.72461H70.1426L76.9234 25.8835L83.8357 6.72461H89.0948L79.3588 33.6972H74.4065L64.8649 6.72461ZM42.6756 6.72461H47.8223V24.1741C47.8223 25.6769 47.9532 26.7414 48.2161 27.3609C48.4794 27.9872 48.9113 28.4816 49.5185 28.8577C50.1263 29.2271 50.8591 29.4147 51.7101 29.4147C52.6178 29.4147 53.3946 29.208 54.0521 28.7884C54.7087 28.3751 55.1596 27.8494 55.4103 27.2045C55.6609 26.5655 55.7864 25.3388 55.7864 23.5293V6.72461H60.9327V22.8028C60.9327 25.5205 60.7822 27.3985 60.4754 28.4508C60.1686 29.5026 59.5863 30.5168 58.722 31.4934C57.8647 32.47 56.869 33.1964 55.7425 33.6659C54.6218 34.1354 53.313 34.3738 51.8224 34.3738C49.8693 34.3738 48.1662 33.9229 46.7202 33.0274C45.2673 32.1256 44.2345 31.0049 43.6082 29.6531C42.9883 28.3003 42.6756 26.0213 42.6756 22.8028V6.72461ZM26.5217 17.2804H28.1495C29.8027 17.2804 30.9356 17.0679 31.5624 16.636C32.1818 16.2037 32.495 15.4899 32.495 14.4884C32.495 13.9002 32.3382 13.3868 32.0318 12.9481C31.725 12.5099 31.3117 12.1967 30.7915 12.0086C30.2785 11.8147 29.3263 11.7214 27.9428 11.7214H26.5217V17.2804ZM21.4125 6.72461H26.8661C29.8466 6.72461 31.9752 6.98744 33.24 7.51946C34.5112 8.05196 35.5254 8.9411 36.2953 10.1747C37.0652 11.4077 37.4536 12.8665 37.4536 14.5573C37.4536 16.3287 37.0276 17.8129 36.1829 19.0025C35.3309 20.1984 34.0539 21.1003 32.3445 21.7075L38.7121 33.6972H33.1022L27.0415 22.2772H26.5217V33.6972H21.4125V6.72461ZM5.10911 17.2804H6.75548C8.05205 17.2804 8.94705 17.1866 9.45415 17.0054C9.96125 16.8173 10.3555 16.5168 10.6501 16.0913C10.9383 15.6658 11.082 15.1523 11.082 14.5446C11.082 13.4991 10.675 12.7351 9.8611 12.2592C9.27291 11.9026 8.17077 11.7214 6.56739 11.7214H5.10911V17.2804ZM0 6.72461H5.45304C8.40184 6.72461 10.5245 6.99379 11.827 7.53851C13.1294 8.08274 14.1622 8.96601 14.9135 10.1805C15.6654 11.3955 16.0406 12.8543 16.0406 14.5573C16.0406 16.4421 15.5457 18.0074 14.5569 19.2531C13.574 20.4989 12.2339 21.3695 10.5367 21.858C9.5416 22.1394 7.73206 22.2772 5.10911 22.2772V33.6972H0V6.72461Z" fill="white"/>
</g>
<mask id="mask1" mask-type="alpha" maskUnits="userSpaceOnUse" x="111" y="0" width="166" height="34">
<path fill-rule="evenodd" clip-rule="evenodd" d="M111.129 0.488586H276.965V33.6973H111.129V0.488586Z" fill="white"/>
</mask>
<g mask="url(#mask1)">
<path fill-rule="evenodd" clip-rule="evenodd" d="M274.843 0.488586C275.431 0.488586 275.926 0.695237 276.345 1.10854C276.759 1.5277 276.965 2.02259 276.965 2.61128C276.965 3.19312 276.759 3.69436 276.345 4.11352C275.926 4.52683 275.431 4.73348 274.843 4.73348C274.261 4.73348 273.76 4.52683 273.34 4.11352C272.927 3.69436 272.72 3.19312 272.72 2.61128C272.72 2.02259 272.927 1.5277 273.34 1.10854C273.76 0.695237 274.261 0.488586 274.843 0.488586ZM273.51 33.6973H276.215V6.72475H273.51V33.6973ZM238.197 33.6973L241.935 6.72475H242.492L253.468 28.8515L264.374 6.72475H264.781L268.663 33.6973H266.053L263.347 14.3879L253.793 33.6973H253.086L243.438 14.2379L240.851 33.6973H238.197ZM219.257 6.72475H234.697V9.35405H221.962V17.8067H234.584V20.4365H221.962V31.0675H234.584V33.6973H219.257V6.72475ZM193.856 31.1428H196.968C200.687 31.1428 203.26 30.9107 204.7 30.4476C206.722 29.7841 208.319 28.6009 209.478 26.8852C210.635 25.1636 211.212 23.0658 211.212 20.587C211.212 17.988 210.586 15.7592 209.328 13.9184C208.075 12.0718 206.322 10.8065 204.08 10.1245C202.396 9.61102 199.622 9.35405 195.759 9.35405H193.856V31.1428ZM191.264 33.6973V6.72475H196.861C200.894 6.72475 203.824 7.05012 205.646 7.69498C208.263 8.61539 210.31 10.1992 211.782 12.466C213.253 14.7265 213.992 17.4183 213.992 20.5493C213.992 23.2539 213.409 25.6267 212.238 27.6805C211.074 29.7338 209.552 31.2556 207.693 32.2327C205.827 33.2093 203.21 33.6973 199.848 33.6973H191.264ZM174.184 12.3844L169.545 22.2016H178.804L174.184 12.3844ZM174.522 6.72475L187.107 33.6973H184.208L179.994 24.8314H168.305L164.116 33.6973H161.111L173.846 6.72475H174.522ZM141.282 6.72475H144.024V16.8428L154.837 6.72475H158.469L145.471 18.8209L159.483 33.6973H155.883L144.024 21.0999V33.6973H141.282V6.72475ZM124.54 6.72475L137.125 33.6973H134.226H114.134H111.129L123.864 6.72475H124.54Z" fill="white"/>
</g>
</svg>
