<svg xmlns="http://www.w3.org/2000/svg" viewBox="0 0 302.48 156.23"><defs><style>.cls-1{fill:#00adee;}.cls-2{fill:#c6e9fa;}.cls-3{fill:#fff;}.cls-4{fill:#231f20;}</style></defs><title>3Varlık 3</title><g id="katman_2" data-name="katman 2"><g id="Layer_1" data-name="Layer 1"><rect class="cls-1" x="267.34" y="109.55" width="35.01" height="46.68" rx="5.83"/><rect class="cls-2" x="267.2" width="35.28" height="47.04" rx="5.88"/><path class="cls-1" d="M273.08,0a5.88,5.88,0,0,0-5.88,5.88V23.52h17.64V0Z"/><rect class="cls-2" x="267.34" y="56.29" width="35.01" height="46.68" rx="5.83"/><path class="cls-1" d="M273.17,56.29a5.83,5.83,0,0,0-5.83,5.83V79.63h35V62.12a5.84,5.84,0,0,0-5.84-5.83Z"/><rect class="cls-1" y="12.67" width="225.91" height="28.42" rx="6.13"/><path class="cls-3" d="M7.17,23.71A3.9,3.9,0,0,1,9,24.16v.74a3.46,3.46,0,0,0-1.81-.49c-.81,0-1.41.24-1.41.9,0,1.56,3.66.89,3.66,3.09,0,1.23-1.1,1.68-2.27,1.67a4.31,4.31,0,0,1-2.11-.52v-.74a3.94,3.94,0,0,0,2.05.56c.85,0,1.58-.22,1.58-.91,0-1.66-3.66-1-3.66-3.12C5.06,24.24,6.05,23.71,7.17,23.71Zm7,5.71a1,1,0,0,0,.33-.07v.57A1.39,1.39,0,0,1,14,30a.74.74,0,0,1-.77-.51,2.49,2.49,0,0,1-1.65.56,1.32,1.32,0,0,1-1.48-1.28c0-1.09,1-1.42,1.91-1.42a5.65,5.65,0,0,1,1.16.13v-.15c0-.63-.43-1.05-1.2-1.05a3.87,3.87,0,0,0-1.54.31v-.68A4.88,4.88,0,0,1,12,25.64a1.66,1.66,0,0,1,1.84,1.8v1.65A.29.29,0,0,0,14.16,29.42Zm-2.47,0a2,2,0,0,0,1.44-.62v-.77A5.83,5.83,0,0,0,12.06,28c-.61,0-1.28.18-1.28.8S11.23,29.47,11.69,29.47Zm6.5-3.72h.74L16.86,30.6c-.44,1-1,1.41-1.59,1.41a1.88,1.88,0,0,1-.46-.06v-.61a1.22,1.22,0,0,0,.37.05c.48,0,.82-.34,1.09-1l.16-.38-2-4.23h.74l1.59,3.42ZM20,30V26.4h-.79v-.65H20v-.51a1.37,1.37,0,0,1,1.49-1.53,3.08,3.08,0,0,1,1.06.19v.66a2.08,2.08,0,0,0-.89-.2c-.51,0-1,.13-1,.91v.48h1.58v.65H20.74V30Zm6.73-.55a1,1,0,0,0,.33-.07v.57a1.42,1.42,0,0,1-.53.1.74.74,0,0,1-.77-.51,2.51,2.51,0,0,1-1.65.56,1.31,1.31,0,0,1-1.48-1.28c0-1.09,1-1.42,1.9-1.42a5.67,5.67,0,0,1,1.17.13v-.15c0-.63-.43-1.05-1.2-1.05a3.87,3.87,0,0,0-1.54.31v-.68a4.77,4.77,0,0,1,1.61-.29,1.66,1.66,0,0,1,1.84,1.8v1.65A.29.29,0,0,0,26.77,29.42Zm-2.47,0a2,2,0,0,0,1.44-.62v-.77A6,6,0,0,0,24.67,28c-.61,0-1.28.18-1.28.8S23.84,29.47,24.3,29.47ZM30,25.64a1.68,1.68,0,0,1,1.76,1.73V30H31V27.46a1.05,1.05,0,0,0-1.14-1.16,1.71,1.71,0,0,0-1.37.84V30h-.7V25.75h.63v.62A2,2,0,0,1,30,25.64Zm3.73.11V30H33V25.75Zm3.47-.11a1.67,1.67,0,0,1,1.75,1.73V30h-.7V27.46a1,1,0,0,0-1.13-1.16,1.69,1.69,0,0,0-1.37.84V30H35V25.75h.64v.62A2,2,0,0,1,37.15,25.64ZM43.52,24v3h.61v.58h-2V27h.76V24.63l-.72.28v-.58l.87-.34Zm-.15,6.09,4-6.37h.31l-4,6.37Zm5.5-3.7v2.28h.61v.57h-.61V30h-.6v-.74H46.34v-.55l1.87-2.3Zm-.6.82-1.19,1.46h1.19Zm8.22-1.45V30h-.64v-.63a2,2,0,0,1-1.52.73,1.62,1.62,0,0,1-1.76-1.72v-2.6h.71v2.51a1,1,0,0,0,1.13,1.16,1.69,1.69,0,0,0,1.37-.84V25.75ZM53.65,25a.49.49,0,0,1-.49-.48.49.49,0,1,1,1,0A.49.49,0,0,1,53.65,25Zm1.77,0a.49.49,0,0,1-.48-.48.49.49,0,1,1,1,0A.49.49,0,0,1,55.42,25Zm6.51.61a2.22,2.22,0,1,1-2.25,2.22A2.16,2.16,0,0,1,61.93,25.64Zm0,.67a1.55,1.55,0,1,0,1.55,1.55A1.47,1.47,0,0,0,61.93,26.31Zm5.71-.65v.71a1.58,1.58,0,0,0-1.75,1V30h-.7V25.75h.63v.75A2,2,0,0,1,67.64,25.66Zm4.47,3.76a.92.92,0,0,0,.32-.07v.57a1.39,1.39,0,0,1-.53.1.74.74,0,0,1-.77-.51,2.48,2.48,0,0,1-1.64.56A1.32,1.32,0,0,1,68,28.79c0-1.09,1-1.42,1.91-1.42a5.67,5.67,0,0,1,1.17.13v-.15c0-.63-.43-1.05-1.21-1.05a3.77,3.77,0,0,0-1.53.31v-.68a4.76,4.76,0,0,1,1.6-.29,1.66,1.66,0,0,1,1.84,1.8v1.65A.29.29,0,0,0,72.11,29.42Zm-2.47,0a2,2,0,0,0,1.44-.62v-.77A6,6,0,0,0,70,28c-.62,0-1.29.18-1.29.8S69.17,29.47,69.64,29.47Zm5.65-3.83A1.67,1.67,0,0,1,77,27.37V30h-.7V27.46a1,1,0,0,0-1.13-1.16,1.69,1.69,0,0,0-1.37.84V30h-.71V25.75h.64v.62A2,2,0,0,1,75.29,25.64Zm3.72.11V30h-.7V25.75Zm3.47-.11a1.68,1.68,0,0,1,1.76,1.73V30h-.7V27.46A1.05,1.05,0,0,0,82.4,26.3a1.71,1.71,0,0,0-1.37.84V30h-.7V25.75H81v.62A2,2,0,0,1,82.48,25.64Zm7.16-1.82V30H89v-.7a2.17,2.17,0,0,1-1.7.8,2.22,2.22,0,1,1,1.63-3.69V23.82ZM87.38,26.3a1.56,1.56,0,0,0,0,3.12,1.71,1.71,0,0,0,1.56-1V27.33A1.71,1.71,0,0,0,87.38,26.3Zm7.32,3.12a1,1,0,0,0,.32-.07v.57a1.39,1.39,0,0,1-.53.1.74.74,0,0,1-.77-.51,2.48,2.48,0,0,1-1.64.56,1.32,1.32,0,0,1-1.49-1.28c0-1.09,1-1.42,1.91-1.42a5.67,5.67,0,0,1,1.17.13v-.15c0-.63-.43-1.05-1.21-1.05a3.87,3.87,0,0,0-1.54.31v-.68a4.88,4.88,0,0,1,1.61-.29,1.66,1.66,0,0,1,1.84,1.8v1.65A.29.29,0,0,0,94.7,29.42Zm-2.47,0a2,2,0,0,0,1.44-.62v-.77A6,6,0,0,0,92.59,28c-.61,0-1.28.18-1.28.8S91.76,29.47,92.23,29.47Zm6.57.5-1.55-1.81h-.82V30h-.71V23.82h.71v3.69h.85l1.33-1.76h.82l-1.6,2.1L99.62,30Zm1.83-5.85a.52.52,0,1,1,0,1,.52.52,0,1,1,0-1Zm.39,1.63V30h-.7V25.75Zm4.87-.11a3.13,3.13,0,0,1,1.49.37v.66a2.89,2.89,0,0,0-1.45-.39c-.46,0-.94.15-.94.56,0,.91,2.68.53,2.68,2.05,0,.88-.82,1.18-1.74,1.18a3.15,3.15,0,0,1-1.63-.41V29a3.06,3.06,0,0,0,1.6.44c.59,0,1.07-.09,1.07-.51,0-.89-2.69-.54-2.69-2.05C104.28,26,105.1,25.64,105.89,25.64Zm4.69,0a2.22,2.22,0,1,1-2.25,2.22A2.16,2.16,0,0,1,110.58,25.64Zm0,.67a1.55,1.55,0,1,0,1.55,1.55A1.47,1.47,0,0,0,110.58,26.31Zm5.71-.65v.71a1.57,1.57,0,0,0-1.75,1V30h-.7V25.75h.63v.75A2,2,0,0,1,116.29,25.66Zm4.62.09V30h-.63v-.63a2,2,0,0,1-1.52.73A1.62,1.62,0,0,1,117,28.35v-2.6h.7v2.51a1,1,0,0,0,1.14,1.16,1.71,1.71,0,0,0,1.37-.84V25.75Zm2-2.2V30h-.7V23.55ZM128,29.42a1,1,0,0,0,.33-.07v.57a1.39,1.39,0,0,1-.53.1.74.74,0,0,1-.77-.51,2.49,2.49,0,0,1-1.65.56,1.32,1.32,0,0,1-1.48-1.28c0-1.09,1-1.42,1.91-1.42a5.65,5.65,0,0,1,1.16.13v-.15c0-.63-.43-1.05-1.2-1.05a3.87,3.87,0,0,0-1.54.31v-.68a4.88,4.88,0,0,1,1.61-.29,1.66,1.66,0,0,1,1.84,1.8v1.65A.29.29,0,0,0,128,29.42Zm-2.47,0a2,2,0,0,0,1.44-.62v-.77A5.83,5.83,0,0,0,125.9,28c-.61,0-1.28.18-1.28.8S125.07,29.47,125.53,29.47Zm5.95-3.81v.71a1.58,1.58,0,0,0-1.75,1V30H129V25.75h.63v.75A2,2,0,0,1,131.48,25.66Zm4.46-2.8a7.54,7.54,0,0,0,0,8.07h-.69a7,7,0,0,1,0-8.07Zm5.35,6.8a4,4,0,0,1-1.48.41l-.11.41c.57,0,.92.23.93.68s-.48.85-1.17.85a2,2,0,0,1-.86-.17v-.6a1.53,1.53,0,0,0,.78.2c.43,0,.64-.12.64-.3s-.56-.31-1-.22l.19-.86a3.09,3.09,0,0,1-2.92-3.12,3.12,3.12,0,0,1,3.23-3.23,3.74,3.74,0,0,1,1.73.41v.74a2.94,2.94,0,0,0-1.61-.45,2.48,2.48,0,1,0,0,5,2.84,2.84,0,0,0,1.63-.45Zm2.66-4a2,2,0,0,1,2,2.53h-3.36c.09.88.89,1.25,1.74,1.25a3,3,0,0,0,1.39-.34v.69a3.41,3.41,0,0,1-1.49.3,2.14,2.14,0,0,1-2.34-2.21A2.1,2.1,0,0,1,144,25.64Zm0,.66a1.34,1.34,0,0,0-1.44,1.25h2.73A1.15,1.15,0,0,0,144,26.3Zm6-.55h.75l-2.08,4.85c-.44,1-1,1.41-1.59,1.41a1.74,1.74,0,0,1-.45-.06v-.61a1.14,1.14,0,0,0,.37.05c.47,0,.81-.34,1.09-1l.15-.38-2-4.23H147l1.59,3.42Zm4-.09v.71a1.57,1.57,0,0,0-1.75,1V30h-.7V25.75h.63v.75A2,2,0,0,1,154,25.66Zm2.42,0a2,2,0,0,1,2,2.53H155c.09.88.89,1.25,1.74,1.25a3,3,0,0,0,1.39-.34v.69a3.43,3.43,0,0,1-1.5.3,2.13,2.13,0,0,1-2.33-2.21A2.1,2.1,0,0,1,156.41,25.64Zm0,.66A1.34,1.34,0,0,0,155,27.55h2.73A1.15,1.15,0,0,0,156.45,26.3Zm6,3.67-1.55-1.81h-.83V30h-.7V23.82h.7v3.69H161l1.33-1.76h.82l-1.6,2.1L163.31,30Zm5.58-6.26a4,4,0,0,1,1.87.45v.74a3.46,3.46,0,0,0-1.81-.49c-.81,0-1.42.24-1.42.9,0,1.56,3.67.89,3.67,3.09,0,1.23-1.1,1.68-2.28,1.67a4.34,4.34,0,0,1-2.11-.52v-.74a4,4,0,0,0,2.06.56c.85,0,1.58-.22,1.58-.91,0-1.66-3.66-1-3.66-3.12C166,24.24,167,23.71,168.07,23.71Zm7,5.71a.92.92,0,0,0,.32-.07v.57a1.34,1.34,0,0,1-.52.1.75.75,0,0,1-.78-.51,2.46,2.46,0,0,1-1.64.56A1.32,1.32,0,0,1,171,28.79c0-1.09,1-1.42,1.91-1.42a5.67,5.67,0,0,1,1.17.13v-.15c0-.63-.43-1.05-1.2-1.05a3.87,3.87,0,0,0-1.54.31v-.68a4.77,4.77,0,0,1,1.61-.29,1.66,1.66,0,0,1,1.83,1.8v1.65A.29.29,0,0,0,175.07,29.42Zm-2.47,0a2,2,0,0,0,1.44-.62v-.77A6,6,0,0,0,173,28c-.62,0-1.28.18-1.28.8S172.13,29.47,172.6,29.47Zm6.49-3.72h.75l-2.07,4.85c-.44,1-1,1.41-1.6,1.41a1.86,1.86,0,0,1-.45-.06v-.61a1.14,1.14,0,0,0,.37.05c.47,0,.81-.34,1.09-1l.16-.38-2-4.23h.75l1.59,3.42ZM181,30V26.4h-.8v-.65h.8v-.51a1.37,1.37,0,0,1,1.49-1.53,3,3,0,0,1,1.05.19v.66a2,2,0,0,0-.88-.2c-.51,0-1,.13-1,.91v.48h1.58v.65h-1.58V30Zm6.73-.55a.92.92,0,0,0,.32-.07v.57a1.35,1.35,0,0,1-.53.1.74.74,0,0,1-.77-.51,2.48,2.48,0,0,1-1.64.56,1.32,1.32,0,0,1-1.49-1.28c0-1.09,1-1.42,1.91-1.42a5.67,5.67,0,0,1,1.17.13v-.15c0-.63-.43-1.05-1.21-1.05a3.81,3.81,0,0,0-1.53.31v-.68a4.76,4.76,0,0,1,1.6-.29,1.66,1.66,0,0,1,1.84,1.8v1.65A.29.29,0,0,0,187.68,29.42Zm-2.47,0a2,2,0,0,0,1.44-.62v-.77a6,6,0,0,0-1.07-.12c-.62,0-1.29.18-1.29.8S184.74,29.47,185.21,29.47Zm7.38-5.76a3.93,3.93,0,0,1,1.86.45v.74a3.46,3.46,0,0,0-1.81-.49c-.81,0-1.41.24-1.41.9,0,1.56,3.66.89,3.66,3.09,0,1.23-1.1,1.68-2.28,1.67a4.34,4.34,0,0,1-2.11-.52v-.74a4,4,0,0,0,2.06.56c.85,0,1.58-.22,1.58-.91,0-1.66-3.66-1-3.66-3.12C190.48,24.24,191.47,23.71,192.59,23.71Zm5.2,1.93a2.22,2.22,0,1,1-2.25,2.22A2.16,2.16,0,0,1,197.79,25.64Zm0,.67a1.55,1.55,0,1,0,1.55,1.55A1.47,1.47,0,0,0,197.79,26.31Zm5.71-.65v.71a1.57,1.57,0,0,0-1.75,1V30h-.7V25.75h.63v.75A2,2,0,0,1,203.5,25.66Zm4.62.09V30h-.63v-.63a2,2,0,0,1-1.52.73,1.62,1.62,0,0,1-1.76-1.72v-2.6h.7v2.51a1,1,0,0,0,1.14,1.16,1.71,1.71,0,0,0,1.37-.84V25.75Zm2-2.2V30h-.7V23.55Zm5.07,5.87a1,1,0,0,0,.33-.07v.57a1.39,1.39,0,0,1-.53.1.74.74,0,0,1-.77-.51,2.51,2.51,0,0,1-1.65.56,1.32,1.32,0,0,1-1.48-1.28c0-1.09,1-1.42,1.91-1.42a5.65,5.65,0,0,1,1.16.13v-.15c0-.63-.43-1.05-1.2-1.05a3.87,3.87,0,0,0-1.54.31v-.68a4.88,4.88,0,0,1,1.61-.29,1.66,1.66,0,0,1,1.84,1.8v1.65A.29.29,0,0,0,215.21,29.42Zm-2.47,0a2,2,0,0,0,1.44-.62v-.77a5.93,5.93,0,0,0-1.07-.12c-.61,0-1.28.18-1.28.8S212.28,29.47,212.74,29.47Zm5.95-3.81v.71a1.58,1.58,0,0,0-1.75,1V30h-.7V25.75h.63v.75A2,2,0,0,1,218.69,25.66Zm.73-2.8a7,7,0,0,1,0,8.07h-.69a7.54,7.54,0,0,0,0-8.07Z"/><rect class="cls-1" y="54.95" width="225.91" height="28.42" rx="6.13"/><path class="cls-4" d="M237,8.76a4.59,4.59,0,0,0-4.6,4.57V30.94a3.84,3.84,0,0,1-3.85,3.83H215.75v.74h12.79a4.59,4.59,0,0,0,4.6-4.57V13.33A3.85,3.85,0,0,1,237,9.5h22.54V8.76Z"/><rect class="cls-4" x="215.54" y="31.81" width="1.49" height="6.66"/><rect class="cls-4" x="215.54" y="74.41" width="1.49" height="6.66"/><path class="cls-4" d="M263.6,9.13l-5.23-1.88a3.79,3.79,0,0,1,0,3.77l5.23-1.89"/><rect class="cls-4" x="216.94" y="77.37" width="42.59" height="0.74"/><path class="cls-4" d="M263.6,77.74l-5.23-1.89a3.81,3.81,0,0,1,0,3.78l5.23-1.89"/><path class="cls-3" d="M7.33,65.78a3.93,3.93,0,0,1,1.86.45V67a3.36,3.36,0,0,0-1.81-.48c-.81,0-1.42.23-1.42.89,0,1.56,3.67.89,3.67,3.1,0,1.22-1.1,1.68-2.28,1.67a4.34,4.34,0,0,1-2.11-.53v-.74a3.88,3.88,0,0,0,2.06.56c.85,0,1.58-.22,1.58-.91,0-1.65-3.66-1-3.66-3.12C5.22,66.31,6.21,65.78,7.33,65.78Zm7,5.71a1.28,1.28,0,0,0,.33-.06V72a1.64,1.64,0,0,1-.53.09.76.76,0,0,1-.78-.51,2.42,2.42,0,0,1-1.64.57,1.32,1.32,0,0,1-1.48-1.29c0-1.09,1-1.42,1.9-1.42a5.67,5.67,0,0,1,1.17.13v-.15c0-.63-.43-1-1.2-1a4,4,0,0,0-1.54.31V68a4.81,4.81,0,0,1,1.61-.28A1.66,1.66,0,0,1,14,69.51v1.65C14,71.42,14.14,71.49,14.32,71.49Zm-2.47.05a2,2,0,0,0,1.44-.62v-.77A6,6,0,0,0,12.22,70c-.62,0-1.28.18-1.28.8S11.38,71.54,11.85,71.54Zm6.49-3.72h.75L17,72.67c-.44,1-1,1.41-1.59,1.41A1.88,1.88,0,0,1,15,74v-.61a1.18,1.18,0,0,0,.37,0c.47,0,.82-.34,1.09-1l.16-.39-2-4.23h.75l1.59,3.42ZM20.2,72V68.47h-.79v-.65h.79v-.51a1.37,1.37,0,0,1,1.49-1.53,2.86,2.86,0,0,1,1.06.2v.65a2.12,2.12,0,0,0-.89-.2c-.51,0-1,.14-1,.91v.48h1.58v.65H20.9V72Zm6.73-.55a1.2,1.2,0,0,0,.32-.06V72a1.54,1.54,0,0,1-.52.09.75.75,0,0,1-.78-.51,2.44,2.44,0,0,1-1.64.57,1.33,1.33,0,0,1-1.49-1.29c0-1.09,1-1.42,1.91-1.42a5.67,5.67,0,0,1,1.17.13v-.15c0-.63-.43-1-1.2-1a4,4,0,0,0-1.54.31V68a4.81,4.81,0,0,1,1.61-.28,1.65,1.65,0,0,1,1.83,1.79v1.65C26.6,71.42,26.74,71.49,26.93,71.49Zm-2.47.05a2,2,0,0,0,1.44-.62v-.77A6,6,0,0,0,24.83,70c-.62,0-1.29.18-1.29.8S24,71.54,24.46,71.54Zm5.65-3.82a1.67,1.67,0,0,1,1.76,1.72V72h-.71V69.53A1,1,0,0,0,30,68.37a1.71,1.71,0,0,0-1.37.84V72H28V67.82h.63v.63A2,2,0,0,1,30.11,67.72Zm3.72.1V72h-.7V67.82Zm3.47-.1a1.66,1.66,0,0,1,1.76,1.72V72h-.7V69.53a1,1,0,0,0-1.13-1.16,1.72,1.72,0,0,0-1.38.84V72h-.7V67.82h.63v.63A2,2,0,0,1,37.3,67.72Zm6.34-1.66v3h.61v.58h-2v-.58H43V66.71l-.72.27V66.4l.87-.34Zm-.15,6.1,4-6.38h.31l-4,6.38ZM48,68.38c.77,0,1.27.37,1.27,1s-.51,1-1,1.27-.91.49-.93.8h1.94V72h-2.6v-.28c0-.87.64-1.2,1.18-1.52s.78-.44.78-.85-.23-.43-.7-.43a2,2,0,0,0-1.14.4v-.61A2,2,0,0,1,48,68.38Zm5.85-.66a3.28,3.28,0,0,1,1.49.36v.67a2.9,2.9,0,0,0-1.45-.4c-.46,0-.94.15-.94.56,0,.92,2.68.53,2.68,2,0,.88-.83,1.19-1.74,1.19a3.22,3.22,0,0,1-1.64-.42v-.68a3.12,3.12,0,0,0,1.6.45c.6,0,1.08-.1,1.08-.52,0-.89-2.69-.54-2.69-2C52.19,68.06,53,67.72,53.8,67.72Zm3.06-1.52a.51.51,0,1,1,0,1,.51.51,0,1,1,0-1Zm.39,1.62V72h-.7V67.82Zm5.46-.1a2.22,2.22,0,1,1-2.25,2.21A2.15,2.15,0,0,1,62.71,67.72Zm0,.66a1.55,1.55,0,1,0,1.55,1.55A1.47,1.47,0,0,0,62.71,68.38Zm5.71-.65v.71a1.57,1.57,0,0,0-1.74,1V72H66V67.82h.64v.75A2,2,0,0,1,68.42,67.73Zm4.47,3.76a1.2,1.2,0,0,0,.32-.06V72a1.54,1.54,0,0,1-.52.09.75.75,0,0,1-.78-.51,2.44,2.44,0,0,1-1.64.57,1.33,1.33,0,0,1-1.49-1.29c0-1.09,1-1.42,1.91-1.42a5.67,5.67,0,0,1,1.17.13v-.15c0-.63-.43-1-1.21-1a4,4,0,0,0-1.53.31V68a4.81,4.81,0,0,1,1.61-.28,1.65,1.65,0,0,1,1.83,1.79v1.65C72.56,71.42,72.7,71.49,72.89,71.49Zm-2.47.05a2,2,0,0,0,1.44-.62v-.77A6,6,0,0,0,70.79,70c-.62,0-1.29.18-1.29.8S70,71.54,70.42,71.54Zm5.65-3.82a1.67,1.67,0,0,1,1.76,1.72V72h-.71V69.53A1,1,0,0,0,76,68.37a1.69,1.69,0,0,0-1.37.84V72h-.71V67.82h.64v.63A2,2,0,0,1,76.07,67.72Zm3.72.1V72h-.7V67.82Zm3.47-.1A1.67,1.67,0,0,1,85,69.44V72h-.7V69.53a1.06,1.06,0,0,0-1.14-1.16,1.71,1.71,0,0,0-1.37.84V72h-.7V67.82h.63v.63A2,2,0,0,1,83.26,67.72Zm7.16-1.83V72h-.63v-.7a2.16,2.16,0,0,1-1.7.81,2.22,2.22,0,0,1,0-4.43,2,2,0,0,1,1.63.74V65.89Zm-2.25,2.48a1.57,1.57,0,0,0,0,3.13,1.72,1.72,0,0,0,1.55-1V69.4A1.71,1.71,0,0,0,88.17,68.37Zm7.31,3.12a1.2,1.2,0,0,0,.32-.06V72a1.6,1.6,0,0,1-.53.09.74.74,0,0,1-.77-.51,2.44,2.44,0,0,1-1.64.57,1.33,1.33,0,0,1-1.49-1.29c0-1.09,1-1.42,1.91-1.42a5.67,5.67,0,0,1,1.17.13v-.15c0-.63-.43-1-1.21-1a4,4,0,0,0-1.53.31V68a4.8,4.8,0,0,1,1.6-.28,1.65,1.65,0,0,1,1.84,1.79v1.65C95.15,71.42,95.29,71.49,95.48,71.49ZM93,71.54a2,2,0,0,0,1.44-.62v-.77A6,6,0,0,0,93.38,70c-.62,0-1.29.18-1.29.8S92.54,71.54,93,71.54Zm6.57.5L98,70.23h-.82V72H96.5V65.89h.71v3.69h.85l1.33-1.76h.82l-1.6,2.1,1.8,2.12Zm1.83-5.84a.51.51,0,1,1-.52.51A.49.49,0,0,1,101.41,66.2Zm.39,1.62V72h-.7V67.82Zm4.87-.1a3.25,3.25,0,0,1,1.49.36v.67a2.9,2.9,0,0,0-1.45-.4c-.45,0-.94.15-.94.56,0,.92,2.68.53,2.68,2,0,.88-.82,1.19-1.74,1.19a3.18,3.18,0,0,1-1.63-.42v-.68a3.06,3.06,0,0,0,1.6.45c.6,0,1.07-.1,1.07-.52,0-.89-2.69-.54-2.69-2C105.06,68.06,105.88,67.72,106.67,67.72Zm4.69,0a2.22,2.22,0,1,1-2.25,2.21A2.15,2.15,0,0,1,111.36,67.72Zm0,.66a1.55,1.55,0,1,0,1.55,1.55A1.48,1.48,0,0,0,111.36,68.38Zm5.71-.65v.71a1.59,1.59,0,0,0-1.75,1V72h-.7V67.82h.63v.75A2,2,0,0,1,117.07,67.73Zm4.62.09V72h-.63v-.62a2,2,0,0,1-1.52.73,1.63,1.63,0,0,1-1.76-1.73v-2.6h.71v2.52a1,1,0,0,0,1.13,1.16,1.72,1.72,0,0,0,1.37-.85V67.82Zm2-2.19V72H123V65.63Zm5.07,5.86a1.28,1.28,0,0,0,.33-.06V72a1.6,1.6,0,0,1-.53.09.74.74,0,0,1-.77-.51,2.44,2.44,0,0,1-1.64.57,1.33,1.33,0,0,1-1.49-1.29c0-1.09,1-1.42,1.91-1.42a5.75,5.75,0,0,1,1.17.13v-.15c0-.63-.43-1-1.21-1a4,4,0,0,0-1.54.31V68a4.92,4.92,0,0,1,1.61-.28,1.65,1.65,0,0,1,1.84,1.79v1.65C128.46,71.42,128.6,71.49,128.78,71.49Zm-2.47.05a2,2,0,0,0,1.45-.62v-.77a6,6,0,0,0-1.08-.12c-.61,0-1.28.18-1.28.8S125.85,71.54,126.31,71.54Zm5.95-3.81v.71a1.59,1.59,0,0,0-1.75,1V72h-.7V67.82h.63v.75A2,2,0,0,1,132.26,67.73Zm4.46-2.8a7.54,7.54,0,0,0,0,8.07H136a7,7,0,0,1,0-8.07ZM139.41,72V69.71L137,65.89h.81l2,3.16,2-3.16h.82l-2.42,3.82V72Zm6.73-.55a1.2,1.2,0,0,0,.32-.06V72a1.6,1.6,0,0,1-.53.09.74.74,0,0,1-.77-.51,2.44,2.44,0,0,1-1.64.57A1.33,1.33,0,0,1,142,70.86c0-1.09,1-1.42,1.91-1.42a5.67,5.67,0,0,1,1.17.13v-.15c0-.63-.43-1-1.21-1a4,4,0,0,0-1.53.31V68a4.8,4.8,0,0,1,1.6-.28,1.65,1.65,0,0,1,1.84,1.79v1.65C145.81,71.42,146,71.49,146.14,71.49Zm-2.47.05a2,2,0,0,0,1.44-.62v-.77A6,6,0,0,0,144,70c-.62,0-1.29.18-1.29.8S143.2,71.54,143.67,71.54Zm5.94-3.81v.71a1.57,1.57,0,0,0-1.74,1V72h-.71V67.82h.64v.75A2,2,0,0,1,149.61,67.73Zm1.49.09V72h-.7V67.82ZM152.42,72V67.82h.63v.56a2,2,0,0,1,1.44-.66,1.47,1.47,0,0,1,1.35.71,2.16,2.16,0,0,1,1.54-.71A1.56,1.56,0,0,1,159,69.44V72h-.7V69.42a1,1,0,0,0-1-1,1.64,1.64,0,0,0-1.23.69,2.34,2.34,0,0,1,0,.38V72h-.7V69.42a1,1,0,0,0-1-1,1.71,1.71,0,0,0-1.29.76V72Zm11.9-6.26a4,4,0,0,1,1.87.45V67a3.39,3.39,0,0,0-1.82-.48c-.8,0-1.41.23-1.41.89,0,1.56,3.66.89,3.66,3.1,0,1.22-1.09,1.68-2.27,1.67a4.34,4.34,0,0,1-2.11-.53v-.74a3.86,3.86,0,0,0,2.06.56c.85,0,1.58-.22,1.58-.91,0-1.65-3.67-1-3.67-3.12C162.21,66.31,163.21,65.78,164.32,65.78Zm7,5.71a1.2,1.2,0,0,0,.32-.06V72a1.6,1.6,0,0,1-.53.09.74.74,0,0,1-.77-.51,2.44,2.44,0,0,1-1.64.57,1.33,1.33,0,0,1-1.49-1.29c0-1.09,1-1.42,1.91-1.42a5.67,5.67,0,0,1,1.17.13v-.15c0-.63-.43-1-1.21-1a4,4,0,0,0-1.53.31V68a4.8,4.8,0,0,1,1.6-.28A1.65,1.65,0,0,1,171,69.51v1.65C171,71.42,171.13,71.49,171.32,71.49Zm-2.47.05a2,2,0,0,0,1.44-.62v-.77a6,6,0,0,0-1.07-.12c-.62,0-1.29.18-1.29.8S168.38,71.54,168.85,71.54Zm6.49-3.72h.75L174,72.67c-.44,1-1,1.41-1.59,1.41A1.88,1.88,0,0,1,172,74v-.61a1.22,1.22,0,0,0,.37,0c.48,0,.82-.34,1.09-1l.16-.39-2-4.23h.75l1.59,3.42ZM177.19,72V68.47h-.79v-.65h.79v-.51a1.37,1.37,0,0,1,1.5-1.53,2.85,2.85,0,0,1,1.05.2v.65a2.08,2.08,0,0,0-.89-.2c-.51,0-.95.14-.95.91v.48h1.58v.65H177.9V72Zm6.73-.55a1.28,1.28,0,0,0,.33-.06V72a1.6,1.6,0,0,1-.53.09.74.74,0,0,1-.77-.51,2.44,2.44,0,0,1-1.64.57,1.33,1.33,0,0,1-1.49-1.29c0-1.09,1-1.42,1.91-1.42a5.75,5.75,0,0,1,1.17.13v-.15c0-.63-.43-1-1.21-1a4,4,0,0,0-1.54.31V68a4.92,4.92,0,0,1,1.61-.28,1.65,1.65,0,0,1,1.84,1.79v1.65C183.6,71.42,183.74,71.49,183.92,71.49Zm-2.47.05a2,2,0,0,0,1.45-.62v-.77a6,6,0,0,0-1.08-.12c-.61,0-1.28.18-1.28.8S181,71.54,181.45,71.54Zm7.38-5.76a4,4,0,0,1,1.87.45V67a3.36,3.36,0,0,0-1.81-.48c-.81,0-1.42.23-1.42.89,0,1.56,3.67.89,3.67,3.1,0,1.22-1.1,1.68-2.28,1.67a4.34,4.34,0,0,1-2.11-.53v-.74a3.88,3.88,0,0,0,2.06.56c.85,0,1.58-.22,1.58-.91,0-1.65-3.66-1-3.66-3.12C186.73,66.31,187.72,65.78,188.83,65.78ZM194,67.72a2.22,2.22,0,1,1-2.25,2.21A2.15,2.15,0,0,1,194,67.72Zm0,.66a1.55,1.55,0,1,0,1.54,1.55A1.47,1.47,0,0,0,194,68.38Zm5.71-.65v.71a1.57,1.57,0,0,0-1.75,1V72h-.71V67.82h.64v.75A2,2,0,0,1,199.75,67.73Zm4.62.09V72h-.63v-.62a2,2,0,0,1-1.52.73,1.63,1.63,0,0,1-1.76-1.73v-2.6h.7v2.52a1,1,0,0,0,1.13,1.16,1.73,1.73,0,0,0,1.38-.85V67.82Zm2-2.19V72h-.7V65.63Zm5.07,5.86a1.2,1.2,0,0,0,.32-.06V72a1.54,1.54,0,0,1-.52.09.75.75,0,0,1-.78-.51,2.42,2.42,0,0,1-1.64.57,1.33,1.33,0,0,1-1.49-1.29c0-1.09,1-1.42,1.91-1.42a5.67,5.67,0,0,1,1.17.13v-.15c0-.63-.43-1-1.2-1a4,4,0,0,0-1.54.31V68a4.81,4.81,0,0,1,1.61-.28,1.65,1.65,0,0,1,1.83,1.79v1.65C211.13,71.42,211.27,71.49,211.46,71.49Zm-2.47.05a2,2,0,0,0,1.44-.62v-.77a6,6,0,0,0-1.07-.12c-.62,0-1.28.18-1.28.8S208.52,71.54,209,71.54Zm5.95-3.81v.71a1.57,1.57,0,0,0-1.75,1V72h-.7V67.82h.63v.75A2,2,0,0,1,214.94,67.73Zm.73-2.8a7,7,0,0,1,0,8.07H215a7.54,7.54,0,0,0,0-8.07Z"/><rect class="cls-1" y="95.89" width="225.91" height="28.42" rx="6.13"/><path class="cls-3" d="M6.25,111.44a2.82,2.82,0,0,0,1.46.41c.83,0,1.31-.43,1.31-1.07s-.33-.92-1.18-1.25c-1-.36-1.67-.9-1.67-1.78a1.82,1.82,0,0,1,2-1.71,2.85,2.85,0,0,1,1.39.31l-.22.66a2.57,2.57,0,0,0-1.2-.3c-.86,0-1.18.51-1.18.94,0,.59.38.88,1.25,1.22,1.06.41,1.6.92,1.6,1.85s-.72,1.81-2.2,1.81A3.21,3.21,0,0,1,6,112.12Z"/><path class="cls-3" d="M13.44,112.43l-.07-.57h0a1.67,1.67,0,0,1-1.38.68,1.29,1.29,0,0,1-1.38-1.3c0-1.09,1-1.69,2.72-1.68v-.1a.93.93,0,0,0-1-1,2.32,2.32,0,0,0-1.18.33l-.18-.54a2.8,2.8,0,0,1,1.48-.4c1.38,0,1.72.94,1.72,1.85v1.69a7.08,7.08,0,0,0,.07,1.08Zm-.13-2.3c-.89,0-1.91.14-1.91,1a.73.73,0,0,0,.78.79,1.12,1.12,0,0,0,1.09-.76.75.75,0,0,0,0-.26Z"/><path class="cls-3" d="M15.53,107.91l1,2.67c.1.3.21.66.29.93h0c.09-.27.18-.62.29-.94l.9-2.66h.87l-1.23,3.23A6.81,6.81,0,0,1,16.1,114a2.31,2.31,0,0,1-1,.54l-.21-.69a2.15,2.15,0,0,0,.72-.41,2.38,2.38,0,0,0,.69-.91.53.53,0,0,0,.07-.2.69.69,0,0,0-.06-.21l-1.67-4.17Z"/><path class="cls-3" d="M19.71,112.43v-3.89h-.64v-.63h.64v-.21a2.15,2.15,0,0,1,.52-1.58,1.57,1.57,0,0,1,1.1-.42,2,2,0,0,1,.7.13l-.11.64a1.15,1.15,0,0,0-.52-.11c-.7,0-.88.62-.88,1.31v.24h1.09v.63H20.52v3.89Z"/><path class="cls-3" d="M24.81,112.43l-.06-.57h0a1.67,1.67,0,0,1-1.38.68,1.29,1.29,0,0,1-1.38-1.3c0-1.09,1-1.69,2.71-1.68v-.1a.93.93,0,0,0-1-1,2.32,2.32,0,0,0-1.18.33l-.19-.54a2.87,2.87,0,0,1,1.49-.4c1.38,0,1.72.94,1.72,1.85v1.69a6,6,0,0,0,.07,1.08Zm-.12-2.3c-.89,0-1.91.14-1.91,1a.72.72,0,0,0,.77.79,1.14,1.14,0,0,0,1.1-.76,1.09,1.09,0,0,0,0-.26Z"/><path class="cls-3" d="M26.81,109.14c0-.47,0-.85,0-1.23h.73l.05.75h0a1.65,1.65,0,0,1,1.49-.85c.63,0,1.6.37,1.6,1.92v2.7h-.83v-2.6c0-.73-.27-1.34-1-1.34a1.22,1.22,0,0,0-1.16,1.23v2.71h-.82Z"/><path class="cls-3" d="M32,112.43v-4.52h.82v4.52Z"/><path class="cls-3" d="M34.17,109.14c0-.47,0-.85,0-1.23h.73l0,.75h0a1.66,1.66,0,0,1,1.49-.85c.63,0,1.6.37,1.6,1.92v2.7H37.2v-2.6c0-.73-.27-1.34-1.05-1.34a1.18,1.18,0,0,0-1.1.84,1.19,1.19,0,0,0,0,.39v2.71h-.83Z"/><path class="cls-3" d="M42.14,106.62v1.29h1.18v.63H42.14V111c0,.56.16.87.62.87a1.79,1.79,0,0,0,.48,0l0,.61a1.93,1.93,0,0,1-.73.12,1.12,1.12,0,0,1-.89-.35,1.68,1.68,0,0,1-.32-1.18v-2.46h-.7v-.63h.7v-1.08Z"/><path class="cls-3" d="M46.75,112.43l-.07-.57h0a1.66,1.66,0,0,1-1.38.68,1.29,1.29,0,0,1-1.38-1.3c0-1.09,1-1.69,2.72-1.68v-.1a.93.93,0,0,0-1-1,2.32,2.32,0,0,0-1.18.33l-.18-.54a2.8,2.8,0,0,1,1.48-.4c1.38,0,1.72.94,1.72,1.85v1.69a7.08,7.08,0,0,0,.07,1.08Zm-.12-2.3c-.9,0-1.92.14-1.92,1a.73.73,0,0,0,.78.79,1.11,1.11,0,0,0,1.09-.76.75.75,0,0,0,.05-.26Z"/><path class="cls-3" d="M48.74,109.14c0-.47,0-.85,0-1.23h.72l0,.73h0a1.55,1.55,0,0,1,1.42-.83,1.33,1.33,0,0,1,1.28.91h0a1.74,1.74,0,0,1,.5-.59,1.52,1.52,0,0,1,1-.32c.6,0,1.49.39,1.49,2v2.66h-.81v-2.56c0-.86-.31-1.39-1-1.39a1.06,1.06,0,0,0-1,.75,1.27,1.27,0,0,0-.06.41v2.79h-.81v-2.7c0-.72-.31-1.25-.94-1.25a1.13,1.13,0,0,0-1,.82,1.4,1.4,0,0,0-.06.41v2.72h-.81Z"/><path class="cls-3" d="M59,112.43l-.07-.57h0a1.69,1.69,0,0,1-1.39.68,1.29,1.29,0,0,1-1.38-1.3c0-1.09,1-1.69,2.72-1.68v-.1a.93.93,0,0,0-1-1,2.25,2.25,0,0,0-1.17.33l-.19-.54a2.8,2.8,0,0,1,1.48-.4c1.39,0,1.72.94,1.72,1.85v1.69a5.94,5.94,0,0,0,.08,1.08Zm-.12-2.3c-.9,0-1.92.14-1.92,1a.73.73,0,0,0,.78.79,1.11,1.11,0,0,0,1.09-.76.75.75,0,0,0,0-.26Z"/><path class="cls-3" d="M61,109.14c0-.47,0-.85,0-1.23h.72l0,.73h0a1.57,1.57,0,0,1,1.42-.83,1.32,1.32,0,0,1,1.28.91h0a1.86,1.86,0,0,1,.5-.59,1.52,1.52,0,0,1,1-.32c.6,0,1.49.39,1.49,2v2.66h-.81v-2.56c0-.86-.31-1.39-1-1.39a1.07,1.07,0,0,0-1,.75,1.61,1.61,0,0,0-.06.41v2.79h-.8v-2.7c0-.72-.32-1.25-1-1.25a1.14,1.14,0,0,0-1,.82,1.4,1.4,0,0,0-.06.41v2.72H61Z"/><path class="cls-3" d="M68.81,112.43v-4.52h.82v4.52Z"/><path class="cls-3" d="M71,109.14c0-.47,0-.85,0-1.23h.72l0,.75h0a1.66,1.66,0,0,1,1.49-.85c.63,0,1.6.37,1.6,1.92v2.7H74v-2.6c0-.73-.27-1.34-1-1.34a1.18,1.18,0,0,0-1.1.84,1.19,1.19,0,0,0-.05.39v2.71H71Z"/><path class="cls-3" d="M76.17,112.43v-4.52H77v4.52Z"/><path class="cls-3" d="M81.15,110h0c.11-.16.27-.36.4-.52l1.32-1.56h1l-1.74,1.86,2,2.66h-1l-1.56-2.16-.42.46v1.7h-.81V105.8h.81Z"/><path class="cls-3" d="M87.15,112.43l-.06-.57h0a1.67,1.67,0,0,1-1.38.68,1.3,1.3,0,0,1-1.39-1.3c0-1.09,1-1.69,2.72-1.68v-.1a.93.93,0,0,0-1-1,2.28,2.28,0,0,0-1.17.33l-.19-.54a2.84,2.84,0,0,1,1.49-.4c1.38,0,1.71.94,1.71,1.85v1.69a5.94,5.94,0,0,0,.08,1.08Zm-.12-2.3c-.9,0-1.91.14-1.91,1a.72.72,0,0,0,.77.79,1.11,1.11,0,0,0,1.09-.76.75.75,0,0,0,0-.26Z"/><path class="cls-3" d="M89.15,109.39c0-.58,0-1,0-1.48h.74l0,.78h0a1.79,1.79,0,0,1,1.61-.88,2.05,2.05,0,0,1,1.91,2.3,2.14,2.14,0,0,1-2,2.43,1.6,1.6,0,0,1-1.39-.71h0v2.45h-.81Zm.81,1.2a1.67,1.67,0,0,0,0,.34,1.26,1.26,0,0,0,1.23,1c.87,0,1.37-.71,1.37-1.74s-.47-1.69-1.34-1.69a1.31,1.31,0,0,0-1.24,1,1.35,1.35,0,0,0-.06.34Z"/><path class="cls-3" d="M94.46,105.8h.82v6.63h-.82Z"/><path class="cls-3" d="M99.16,112.43l-.06-.57h0a1.67,1.67,0,0,1-1.38.68,1.29,1.29,0,0,1-1.38-1.3c0-1.09,1-1.69,2.71-1.68v-.1a.93.93,0,0,0-1-1,2.32,2.32,0,0,0-1.18.33l-.19-.54a2.87,2.87,0,0,1,1.49-.4c1.38,0,1.72.94,1.72,1.85v1.69a6,6,0,0,0,.07,1.08Zm-.12-2.3c-.89,0-1.91.14-1.91,1a.72.72,0,0,0,.77.79,1.11,1.11,0,0,0,1.09-.76.75.75,0,0,0,.05-.26Z"/><path class="cls-3" d="M101.25,107.91l1,2.67c.11.3.22.66.29.93h0c.09-.27.18-.62.29-.94l.9-2.66h.87l-1.24,3.23a6.81,6.81,0,0,1-1.55,2.82,2.21,2.21,0,0,1-1,.54l-.2-.69a2.25,2.25,0,0,0,.72-.41,2.48,2.48,0,0,0,.69-.91.49.49,0,0,0,.06-.2.59.59,0,0,0,0-.21l-1.67-4.17Z"/><path class="cls-3" d="M107.7,112.43l-.06-.57h0a1.67,1.67,0,0,1-1.38.68,1.29,1.29,0,0,1-1.38-1.3c0-1.09,1-1.69,2.71-1.68v-.1a.93.93,0,0,0-1-1,2.32,2.32,0,0,0-1.18.33l-.19-.54a2.87,2.87,0,0,1,1.49-.4c1.38,0,1.72.94,1.72,1.85v1.69a6,6,0,0,0,.07,1.08Zm-.12-2.3c-.89,0-1.91.14-1.91,1a.72.72,0,0,0,.77.79,1.14,1.14,0,0,0,1.1-.76,1.09,1.09,0,0,0,0-.26Z"/><path class="cls-3" d="M109.7,109.14c0-.47,0-.85,0-1.23h.73l0,.75h0a1.65,1.65,0,0,1,1.49-.85c.63,0,1.6.37,1.6,1.92v2.7h-.83v-2.6c0-.73-.27-1.34-1-1.34a1.22,1.22,0,0,0-1.16,1.23v2.71h-.82Z"/><path class="cls-3" d="M116.75,111.59a2.12,2.12,0,0,0,1.08.33c.6,0,.88-.3.88-.67s-.24-.61-.84-.83c-.81-.29-1.2-.74-1.2-1.28a1.4,1.4,0,0,1,1.56-1.33,2.23,2.23,0,0,1,1.11.28l-.2.6a1.81,1.81,0,0,0-.93-.26c-.48,0-.75.28-.75.61s.27.55.86.77c.78.3,1.18.69,1.18,1.36s-.61,1.36-1.69,1.36a2.56,2.56,0,0,1-1.27-.31Z"/><path class="cls-3" d="M124.64,110.14a2.21,2.21,0,0,1-2.25,2.4,2.15,2.15,0,0,1-2.16-2.33,2.21,2.21,0,0,1,2.24-2.4A2.13,2.13,0,0,1,124.64,110.14Zm-3.58,0c0,1,.57,1.74,1.37,1.74s1.37-.74,1.37-1.76c0-.76-.38-1.73-1.35-1.73S121.06,109.32,121.06,110.18Z"/><path class="cls-3" d="M125.68,109.32c0-.53,0-1,0-1.41h.72l0,.89h0a1.35,1.35,0,0,1,1.25-1,.8.8,0,0,1,.23,0v.77l-.28,0a1.14,1.14,0,0,0-1.1,1,2.11,2.11,0,0,0,0,.38v2.41h-.81Z"/><path class="cls-3" d="M132.51,111.2c0,.47,0,.88,0,1.23h-.73l0-.73h0a1.73,1.73,0,0,1-1.5.84c-.71,0-1.56-.4-1.56-2v-2.65h.82v2.51c0,.86.27,1.43,1,1.43a1.2,1.2,0,0,0,1.09-.74,1.37,1.37,0,0,0,.07-.42v-2.78h.82Z"/><path class="cls-3" d="M133.87,105.8h.83v6.63h-.83Z"/><path class="cls-3" d="M138.58,112.43l-.07-.57h0a1.69,1.69,0,0,1-1.39.68,1.29,1.29,0,0,1-1.38-1.3c0-1.09,1-1.69,2.72-1.68v-.1a.93.93,0,0,0-1-1,2.32,2.32,0,0,0-1.18.33l-.18-.54a2.8,2.8,0,0,1,1.48-.4c1.38,0,1.72.94,1.72,1.85v1.69a5.94,5.94,0,0,0,.08,1.08Zm-.12-2.3c-.9,0-1.92.14-1.92,1a.73.73,0,0,0,.78.79,1.11,1.11,0,0,0,1.09-.76.75.75,0,0,0,.05-.26Z"/><path class="cls-3" d="M140.58,109.32c0-.53,0-1,0-1.41h.72l0,.89h0a1.36,1.36,0,0,1,1.25-1,.88.88,0,0,1,.24,0v.77l-.28,0a1.14,1.14,0,0,0-1.1,1,2.11,2.11,0,0,0,0,.38v2.41h-.81Z"/><path class="cls-3" d="M147.18,106a6.18,6.18,0,0,0-1.17,3.82,6.3,6.3,0,0,0,1.17,3.79h-.64a6,6,0,0,1-1.22-3.79,6.17,6.17,0,0,1,1.22-3.82Z"/><path class="cls-3" d="M149.27,106.83h-1.91v-.69H152v.69H150.1v5.6h-.83Z"/><path class="cls-3" d="M154.16,112.43l-.06-.57h0a1.67,1.67,0,0,1-1.38.68,1.29,1.29,0,0,1-1.38-1.3c0-1.09,1-1.69,2.71-1.68v-.1a.93.93,0,0,0-1-1,2.32,2.32,0,0,0-1.18.33l-.19-.54a2.87,2.87,0,0,1,1.49-.4c1.38,0,1.72.94,1.72,1.85v1.69a7.08,7.08,0,0,0,.07,1.08Zm-.12-2.3c-.89,0-1.91.14-1.91,1a.72.72,0,0,0,.77.79,1.13,1.13,0,0,0,1.1-.76,1.09,1.09,0,0,0,0-.26Z"/><path class="cls-3" d="M156.16,109.14c0-.47,0-.85,0-1.23h.72l0,.73h0a1.55,1.55,0,0,1,1.42-.83,1.34,1.34,0,0,1,1.28.91h0a1.74,1.74,0,0,1,.5-.59,1.52,1.52,0,0,1,1-.32c.6,0,1.48.39,1.48,2v2.66h-.8v-2.56c0-.86-.32-1.39-1-1.39a1.06,1.06,0,0,0-1,.75,1.25,1.25,0,0,0-.07.41v2.79H159v-2.7c0-.72-.32-1.25-.94-1.25a1.12,1.12,0,0,0-1,.82,1.14,1.14,0,0,0-.07.41v2.72h-.8Z"/><path class="cls-3" d="M165.84,111.44a2.82,2.82,0,0,0,1.46.41c.83,0,1.31-.43,1.31-1.07s-.33-.92-1.18-1.25c-1-.36-1.66-.9-1.66-1.78a1.81,1.81,0,0,1,2-1.71,2.82,2.82,0,0,1,1.39.31L169,107a2.57,2.57,0,0,0-1.2-.3c-.86,0-1.18.51-1.18.94,0,.59.38.88,1.25,1.22,1.06.41,1.6.92,1.6,1.85s-.72,1.81-2.2,1.81a3.21,3.21,0,0,1-1.61-.41Z"/><path class="cls-3" d="M173,112.43l-.07-.57h0a1.66,1.66,0,0,1-1.38.68,1.29,1.29,0,0,1-1.38-1.3c0-1.09,1-1.69,2.72-1.68v-.1a.93.93,0,0,0-1-1,2.32,2.32,0,0,0-1.18.33l-.18-.54a2.8,2.8,0,0,1,1.48-.4c1.38,0,1.72.94,1.72,1.85v1.69a7.08,7.08,0,0,0,.07,1.08Zm-.12-2.3c-.9,0-1.92.14-1.92,1a.73.73,0,0,0,.78.79,1.11,1.11,0,0,0,1.09-.76.75.75,0,0,0,0-.26Z"/><path class="cls-3" d="M175.12,107.91l1,2.67c.1.3.21.66.29.93h0c.08-.27.17-.62.29-.94l.89-2.66h.87l-1.23,3.23a6.81,6.81,0,0,1-1.55,2.82,2.26,2.26,0,0,1-1,.54l-.21-.69a2.15,2.15,0,0,0,.72-.41,2.29,2.29,0,0,0,.69-.91.53.53,0,0,0,.07-.2.69.69,0,0,0-.06-.21l-1.67-4.17Z"/><path class="cls-3" d="M179.3,112.43v-3.89h-.64v-.63h.64v-.21a2.15,2.15,0,0,1,.52-1.58,1.57,1.57,0,0,1,1.1-.42,2,2,0,0,1,.7.13l-.11.64a1.15,1.15,0,0,0-.52-.11c-.7,0-.88.62-.88,1.31v.24h1.09v.63h-1.09v3.89Z"/><path class="cls-3" d="M184.41,112.43l-.07-.57h0a1.67,1.67,0,0,1-1.38.68,1.29,1.29,0,0,1-1.38-1.3c0-1.09,1-1.69,2.72-1.68v-.1a.93.93,0,0,0-1-1,2.32,2.32,0,0,0-1.18.33l-.18-.54a2.8,2.8,0,0,1,1.48-.4c1.38,0,1.72.94,1.72,1.85v1.69a7.08,7.08,0,0,0,.07,1.08Zm-.13-2.3c-.89,0-1.91.14-1.91,1a.72.72,0,0,0,.77.79,1.13,1.13,0,0,0,1.1-.76.75.75,0,0,0,0-.26Z"/><path class="cls-3" d="M188.09,111.44a2.85,2.85,0,0,0,1.46.41c.83,0,1.31-.43,1.31-1.07s-.33-.92-1.18-1.25c-1-.36-1.66-.9-1.66-1.78a1.81,1.81,0,0,1,2-1.71,2.82,2.82,0,0,1,1.39.31l-.22.66a2.57,2.57,0,0,0-1.2-.3c-.86,0-1.18.51-1.18.94,0,.59.38.88,1.25,1.22,1.06.41,1.61.92,1.61,1.85s-.72,1.81-2.21,1.81a3.14,3.14,0,0,1-1.6-.41Z"/><path class="cls-3" d="M196.87,110.14a2.21,2.21,0,0,1-2.25,2.4,2.15,2.15,0,0,1-2.17-2.33,2.21,2.21,0,0,1,2.24-2.4A2.14,2.14,0,0,1,196.87,110.14Zm-3.59,0c0,1,.57,1.74,1.37,1.74s1.38-.74,1.38-1.76c0-.76-.39-1.73-1.36-1.73S193.28,109.32,193.28,110.18Z"/><path class="cls-3" d="M197.9,109.32c0-.53,0-1,0-1.41h.72l0,.89h0a1.35,1.35,0,0,1,1.25-1,.8.8,0,0,1,.23,0v.77l-.28,0a1.14,1.14,0,0,0-1.1,1,2.11,2.11,0,0,0,0,.38v2.41h-.81Z"/><path class="cls-3" d="M204.73,111.2c0,.47,0,.88,0,1.23H204l0-.73h0a1.72,1.72,0,0,1-1.5.84c-.71,0-1.55-.4-1.55-2v-2.65h.82v2.51c0,.86.26,1.43,1,1.43a1.19,1.19,0,0,0,1.09-.74,1.37,1.37,0,0,0,.07-.42v-2.78h.82Z"/><path class="cls-3" d="M206.1,105.8h.82v6.63h-.82Z"/><path class="cls-3" d="M210.8,112.43l-.07-.57h0a1.69,1.69,0,0,1-1.38.68,1.3,1.3,0,0,1-1.39-1.3c0-1.09,1-1.69,2.72-1.68v-.1a.93.93,0,0,0-1-1,2.25,2.25,0,0,0-1.17.33l-.19-.54a2.8,2.8,0,0,1,1.48-.4c1.39,0,1.72.94,1.72,1.85v1.69a5.94,5.94,0,0,0,.08,1.08Zm-.12-2.3c-.9,0-1.91.14-1.91,1a.72.72,0,0,0,.77.79,1.11,1.11,0,0,0,1.09-.76.75.75,0,0,0,.05-.26Z"/><path class="cls-3" d="M212.8,109.32c0-.53,0-1,0-1.41h.72l0,.89h0a1.36,1.36,0,0,1,1.25-1,.88.88,0,0,1,.24,0v.77l-.28,0a1.14,1.14,0,0,0-1.1,1,2.11,2.11,0,0,0,0,.38v2.41h-.81Z"/><path class="cls-3" d="M215.08,113.56a6.27,6.27,0,0,0,1.18-3.82,6.15,6.15,0,0,0-1.18-3.79h.64a5.94,5.94,0,0,1,1.22,3.8,6,6,0,0,1-1.22,3.81Z"/><path class="cls-4" d="M232.39,131.3a4.66,4.66,0,0,1-4.66-4.66V105.16a5.58,5.58,0,0,0-5.57-5.57h-6.35v.9h6.35a4.67,4.67,0,0,1,4.66,4.67v21.48a5.57,5.57,0,0,0,5.57,5.56H258v-.9Z"/><path class="cls-4" d="M263.6,131.77l-6.49,2.36a4.78,4.78,0,0,0,0-4.72l6.49,2.36"/><rect class="cls-4" x="215.12" y="97.03" width="1.38" height="6.16"/></g></g></svg>