<svg xmlns="http://www.w3.org/2000/svg" viewBox="0 0 313.74 91.03"><defs><style>.cls-1{fill:#00adee;}.cls-2{font-size:85.55px;fill:#fff;letter-spacing:0.01em;}.cls-2,.cls-3,.cls-5{font-family:GalanoGrotesque-Black;font-weight:800;}.cls-3,.cls-5{font-size:39.62px;}.cls-3,.cls-5,.cls-6{fill:#231f20;}.cls-3{letter-spacing:0em;}.cls-4,.cls-5{letter-spacing:0.01em;}.cls-7{font-size:14.5px;font-family:GalanoGrotesque-Light;font-weight:300;letter-spacing:-0.02em;}.cls-8{letter-spacing:-0.04em;}.cls-9{letter-spacing:-0.01em;}.cls-10{letter-spacing:-0.02em;}</style></defs><title>3Varlık 3</title><g id="katman_2" data-name="katman 2"><g id="Layer_1" data-name="Layer 1"><rect class="cls-1" x="1.48" y="12.07" width="48.68" height="60.68"/><text class="cls-2" transform="translate(0 71.44)">9</text><text class="cls-3" transform="translate(62.25 39.07)">F<tspan class="cls-4" x="23.69" y="0">arklı</tspan></text><text class="cls-5" transform="translate(61.03 71.44)">Soru Modeli</text><path class="cls-6" d="M1.78,20a.52.52,0,0,1,.49.54.52.52,0,0,1-.49.54.52.52,0,0,1-.5-.54A.52.52,0,0,1,1.78,20Z"/><path class="cls-6" d="M6.14,20a.52.52,0,0,1,.49.54.52.52,0,0,1-.49.54.51.51,0,0,1-.49-.54A.52.52,0,0,1,6.14,20Z"/><path class="cls-6" d="M10.5,20a.52.52,0,0,1,.49.54.49.49,0,1,1-1,0A.52.52,0,0,1,10.5,20Z"/><path class="cls-6" d="M14.86,20a.52.52,0,0,1,.49.54.49.49,0,1,1-1,0A.52.52,0,0,1,14.86,20Z"/><path class="cls-6" d="M19.22,20a.52.52,0,0,1,.5.54.5.5,0,1,1-.5-.54Z"/><path class="cls-6" d="M23.58,20a.52.52,0,0,1,.5.54.5.5,0,1,1-.5-.54Z"/><path class="cls-6" d="M28,20a.52.52,0,0,1,.49.54.5.5,0,1,1-1,0A.52.52,0,0,1,28,20Z"/><path class="cls-6" d="M32.31,20a.52.52,0,0,1,.49.54.52.52,0,0,1-.49.54.51.51,0,0,1-.49-.54A.52.52,0,0,1,32.31,20Z"/><path class="cls-6" d="M36.67,20a.52.52,0,0,1,.49.54.49.49,0,1,1-1,0A.52.52,0,0,1,36.67,20Z"/><path class="cls-6" d="M41,20a.52.52,0,0,1,.49.54.49.49,0,1,1-1,0A.52.52,0,0,1,41,20Z"/><path class="cls-6" d="M45.39,20a.53.53,0,0,1,.5.54.52.52,0,0,1-.5.54.52.52,0,0,1-.49-.54A.52.52,0,0,1,45.39,20Z"/><path class="cls-6" d="M49.75,20a.52.52,0,0,1,.49.54.51.51,0,0,1-.49.54.52.52,0,0,1-.49-.54A.52.52,0,0,1,49.75,20Z"/><path class="cls-6" d="M1.78,17.75a.54.54,0,0,1,0,1.07.54.54,0,0,1,0-1.07Z"/><path class="cls-6" d="M6.14,17.75a.54.54,0,1,1-.49.53A.51.51,0,0,1,6.14,17.75Z"/><path class="cls-6" d="M10.5,17.75a.54.54,0,1,1-.49.53A.51.51,0,0,1,10.5,17.75Z"/><path class="cls-6" d="M14.86,17.75a.54.54,0,1,1-.49.53A.51.51,0,0,1,14.86,17.75Z"/><path class="cls-6" d="M19.22,17.75a.54.54,0,1,1-.49.53A.51.51,0,0,1,19.22,17.75Z"/><path class="cls-6" d="M23.58,17.75a.54.54,0,1,1-.49.53A.51.51,0,0,1,23.58,17.75Z"/><path class="cls-6" d="M28,17.75a.54.54,0,1,1-.5.53A.51.51,0,0,1,28,17.75Z"/><path class="cls-6" d="M32.31,17.75a.54.54,0,1,1-.49.53A.51.51,0,0,1,32.31,17.75Z"/><path class="cls-6" d="M36.67,17.75a.54.54,0,1,1-.49.53A.51.51,0,0,1,36.67,17.75Z"/><path class="cls-6" d="M41,17.75a.54.54,0,1,1-.49.53A.51.51,0,0,1,41,17.75Z"/><path class="cls-6" d="M45.39,17.75a.54.54,0,0,1,0,1.07.54.54,0,0,1,0-1.07Z"/><path class="cls-6" d="M49.75,17.75a.54.54,0,0,1,0,1.07.54.54,0,0,1,0-1.07Z"/><path class="cls-6" d="M1.78,15.5a.54.54,0,0,1,0,1.07.54.54,0,0,1,0-1.07Z"/><path class="cls-6" d="M6.14,15.5a.54.54,0,1,1-.49.53A.51.51,0,0,1,6.14,15.5Z"/><path class="cls-6" d="M10.5,15.5A.54.54,0,1,1,10,16,.51.51,0,0,1,10.5,15.5Z"/><path class="cls-6" d="M14.86,15.5a.54.54,0,1,1-.49.53A.51.51,0,0,1,14.86,15.5Z"/><path class="cls-6" d="M19.22,15.5a.54.54,0,1,1-.49.53A.51.51,0,0,1,19.22,15.5Z"/><path class="cls-6" d="M23.58,15.5a.54.54,0,1,1-.49.53A.51.51,0,0,1,23.58,15.5Z"/><path class="cls-6" d="M28,15.5a.54.54,0,1,1-.5.53A.51.51,0,0,1,28,15.5Z"/><path class="cls-6" d="M32.31,15.5a.54.54,0,1,1-.49.53A.51.51,0,0,1,32.31,15.5Z"/><path class="cls-6" d="M36.67,15.5a.54.54,0,1,1-.49.53A.51.51,0,0,1,36.67,15.5Z"/><path class="cls-6" d="M41,15.5a.54.54,0,1,1-.49.53A.51.51,0,0,1,41,15.5Z"/><path class="cls-6" d="M45.39,15.5a.54.54,0,0,1,0,1.07.54.54,0,0,1,0-1.07Z"/><path class="cls-6" d="M49.75,15.5a.54.54,0,0,1,0,1.07.54.54,0,0,1,0-1.07Z"/><path class="cls-6" d="M1.78,13.24a.52.52,0,0,1,.49.54.52.52,0,0,1-.49.54.52.52,0,0,1-.5-.54A.52.52,0,0,1,1.78,13.24Z"/><path class="cls-6" d="M6.14,13.24a.52.52,0,0,1,.49.54.52.52,0,0,1-.49.54.51.51,0,0,1-.49-.54A.52.52,0,0,1,6.14,13.24Z"/><path class="cls-6" d="M10.5,13.24a.52.52,0,0,1,.49.54.49.49,0,1,1-1,0A.52.52,0,0,1,10.5,13.24Z"/><path class="cls-6" d="M14.86,13.24a.52.52,0,0,1,.49.54.49.49,0,1,1-1,0A.52.52,0,0,1,14.86,13.24Z"/><path class="cls-6" d="M19.22,13.24a.52.52,0,0,1,.5.54.5.5,0,1,1-.5-.54Z"/><path class="cls-6" d="M23.58,13.24a.52.52,0,0,1,.5.54.5.5,0,1,1-.5-.54Z"/><path class="cls-6" d="M28,13.24a.52.52,0,0,1,.49.54.5.5,0,1,1-1,0A.52.52,0,0,1,28,13.24Z"/><path class="cls-6" d="M32.31,13.24a.52.52,0,0,1,.49.54.52.52,0,0,1-.49.54.51.51,0,0,1-.49-.54A.52.52,0,0,1,32.31,13.24Z"/><path class="cls-6" d="M36.67,13.24a.52.52,0,0,1,.49.54.49.49,0,1,1-1,0A.52.52,0,0,1,36.67,13.24Z"/><path class="cls-6" d="M41,13.24a.52.52,0,0,1,.49.54.49.49,0,1,1-1,0A.52.52,0,0,1,41,13.24Z"/><path class="cls-6" d="M45.39,13.24a.53.53,0,0,1,.5.54.52.52,0,0,1-.5.54.52.52,0,0,1-.49-.54A.52.52,0,0,1,45.39,13.24Z"/><path class="cls-6" d="M49.75,13.24a.52.52,0,0,1,.49.54.51.51,0,0,1-.49.54.52.52,0,0,1-.49-.54A.52.52,0,0,1,49.75,13.24Z"/><path class="cls-6" d="M1.78,11a.52.52,0,0,1,.49.54.52.52,0,0,1-.49.54.52.52,0,0,1-.5-.54A.52.52,0,0,1,1.78,11Z"/><path class="cls-6" d="M6.14,11a.52.52,0,0,1,.49.54.52.52,0,0,1-.49.54.51.51,0,0,1-.49-.54A.52.52,0,0,1,6.14,11Z"/><path class="cls-6" d="M10.5,11a.52.52,0,0,1,.49.54.49.49,0,1,1-1,0A.52.52,0,0,1,10.5,11Z"/><path class="cls-6" d="M14.86,11a.52.52,0,0,1,.49.54.49.49,0,1,1-1,0A.52.52,0,0,1,14.86,11Z"/><path class="cls-6" d="M19.22,11a.52.52,0,0,1,.5.54.5.5,0,1,1-.5-.54Z"/><path class="cls-6" d="M23.58,11a.52.52,0,0,1,.5.54.5.5,0,1,1-.5-.54Z"/><path class="cls-6" d="M28,11a.52.52,0,0,1,.49.54.5.5,0,1,1-1,0A.52.52,0,0,1,28,11Z"/><path class="cls-6" d="M32.31,11a.52.52,0,0,1,.49.54.52.52,0,0,1-.49.54.51.51,0,0,1-.49-.54A.52.52,0,0,1,32.31,11Z"/><path class="cls-6" d="M36.67,11a.52.52,0,0,1,.49.54.49.49,0,1,1-1,0A.52.52,0,0,1,36.67,11Z"/><path class="cls-6" d="M41,11a.52.52,0,0,1,.49.54.49.49,0,1,1-1,0A.52.52,0,0,1,41,11Z"/><path class="cls-6" d="M45.39,11a.53.53,0,0,1,.5.54.52.52,0,0,1-.5.54.52.52,0,0,1-.49-.54A.52.52,0,0,1,45.39,11Z"/><path class="cls-6" d="M49.75,11a.52.52,0,0,1,.49.54.51.51,0,0,1-.49.54.52.52,0,0,1-.49-.54A.52.52,0,0,1,49.75,11Z"/><path class="cls-6" d="M1.78,8.75a.54.54,0,0,1,0,1.07.54.54,0,0,1,0-1.07Z"/><path class="cls-6" d="M6.14,8.75a.54.54,0,1,1-.49.53A.51.51,0,0,1,6.14,8.75Z"/><path class="cls-6" d="M10.5,8.75a.54.54,0,1,1-.49.53A.51.51,0,0,1,10.5,8.75Z"/><path class="cls-6" d="M14.86,8.75a.54.54,0,1,1-.49.53A.51.51,0,0,1,14.86,8.75Z"/><path class="cls-6" d="M19.22,8.75a.54.54,0,1,1-.49.53A.51.51,0,0,1,19.22,8.75Z"/><path class="cls-6" d="M23.58,8.75a.54.54,0,1,1-.49.53A.51.51,0,0,1,23.58,8.75Z"/><path class="cls-6" d="M28,8.75a.54.54,0,1,1-.5.53A.51.51,0,0,1,28,8.75Z"/><path class="cls-6" d="M32.31,8.75a.54.54,0,1,1-.49.53A.51.51,0,0,1,32.31,8.75Z"/><path class="cls-6" d="M36.67,8.75a.54.54,0,1,1-.49.53A.51.51,0,0,1,36.67,8.75Z"/><path class="cls-6" d="M41,8.75a.54.54,0,1,1-.49.53A.51.51,0,0,1,41,8.75Z"/><path class="cls-6" d="M45.39,8.75a.54.54,0,0,1,0,1.07.54.54,0,0,1,0-1.07Z"/><path class="cls-6" d="M49.75,8.75a.54.54,0,0,1,0,1.07.54.54,0,0,1,0-1.07Z"/><text class="cls-7" transform="translate(204.77 86.08)">ile <tspan class="cls-8" x="18.63" y="0">k</tspan><tspan class="cls-9" x="26.24" y="0">a</tspan><tspan class="cls-10" x="35.37" y="0">r</tspan><tspan x="40.86" y="0">şılaşırız.</tspan></text></g></g></svg>