<svg xmlns="http://www.w3.org/2000/svg" viewBox="0 0 312.07 162.45"><defs><style>.cls-1{fill:#fff;}.cls-2{font-size:22.18px;}.cls-2,.cls-7{fill:#231f20;}.cls-12,.cls-2,.cls-7{font-family:GalanoGrotesque-Black;font-weight:800;}.cls-3{letter-spacing:-0.01em;}.cls-4{letter-spacing:-0.03em;}.cls-5{letter-spacing:0em;}.cls-6{letter-spacing:0.03em;}.cls-7{font-size:20.26px;}.cls-8{letter-spacing:-0.13em;}.cls-9{letter-spacing:-0.02em;}.cls-10{letter-spacing:-0.09em;}.cls-11{letter-spacing:0em;}.cls-12{font-size:54.96px;fill:#00adee;letter-spacing:0.01em;}.cls-13{fill:#221921;}</style></defs><title>3Varlık 4</title><g id="katman_2" data-name="katman 2"><g id="Layer_1" data-name="Layer 1"><rect class="cls-1" x="5.51" y="21.29" width="178.3" height="44.34"/><rect class="cls-1" x="5.01" y="65.38" width="296.78" height="29.82"/><rect class="cls-1" x="5.01" y="85.61" width="307.06" height="53.23"/><text class="cls-2" transform="translate(0 121.38)"><tspan xml:space="preserve"> diğer </tspan><tspan class="cls-3" x="67.75" y="0">s</tspan><tspan x="79.46" y="0">orulara ben</tspan><tspan class="cls-3" x="207.61" y="0">z</tspan><tspan x="219.99" y="0">emi</tspan><tspan class="cls-4" x="260.87" y="0">y</tspan><tspan class="cls-5" x="274.6" y="0">o</tspan><tspan class="cls-6" x="288.09" y="0">r</tspan><tspan x="298.78" y="0">?</tspan></text><text class="cls-7" transform="translate(5.14 87.02)"><tspan class="cls-8">Y</tspan><tspan x="12.28" y="0">ARIM </tspan><tspan class="cls-9" x="70.22" y="0">v</tspan><tspan x="82.41" y="0">e </tspan><tspan class="cls-10" x="98.46" y="0">T</tspan><tspan class="cls-11" x="110.2" y="0">AM Sayfa Sorular</tspan></text><text class="cls-12" transform="translate(3.05 66.38)">Neden</text><path class="cls-13" d="M18.05,20.09a1.2,1.2,0,1,1-1.2,1.2A1.2,1.2,0,0,1,18.05,20.09Z"/><path class="cls-13" d="M28.66,20.09a1.2,1.2,0,1,1-1.2,1.2A1.2,1.2,0,0,1,28.66,20.09Z"/><path class="cls-13" d="M39.28,20.09a1.2,1.2,0,1,1-1.2,1.2A1.19,1.19,0,0,1,39.28,20.09Z"/><path class="cls-13" d="M49.89,20.09a1.2,1.2,0,1,1-1.2,1.2A1.2,1.2,0,0,1,49.89,20.09Z"/><path class="cls-13" d="M60.51,20.09a1.2,1.2,0,1,1-1.2,1.2A1.19,1.19,0,0,1,60.51,20.09Z"/><path class="cls-13" d="M71.12,20.09a1.2,1.2,0,1,1-1.2,1.2A1.2,1.2,0,0,1,71.12,20.09Z"/><path class="cls-13" d="M81.73,20.09a1.2,1.2,0,1,1-1.2,1.2A1.2,1.2,0,0,1,81.73,20.09Z"/><path class="cls-13" d="M92.35,20.09a1.2,1.2,0,1,1-1.2,1.2A1.2,1.2,0,0,1,92.35,20.09Z"/><path class="cls-13" d="M103,20.09a1.2,1.2,0,1,1-1.19,1.2A1.2,1.2,0,0,1,103,20.09Z"/><path class="cls-13" d="M113.58,20.09a1.2,1.2,0,1,1-1.2,1.2A1.2,1.2,0,0,1,113.58,20.09Z"/><path class="cls-13" d="M124.19,20.09a1.2,1.2,0,1,1-1.2,1.2A1.2,1.2,0,0,1,124.19,20.09Z"/><path class="cls-13" d="M134.81,20.09a1.2,1.2,0,1,1-1.2,1.2A1.2,1.2,0,0,1,134.81,20.09Z"/><path class="cls-13" d="M145.42,20.09a1.2,1.2,0,1,1-1.2,1.2A1.2,1.2,0,0,1,145.42,20.09Z"/><path class="cls-13" d="M156,20.09a1.2,1.2,0,1,1-1.2,1.2A1.19,1.19,0,0,1,156,20.09Z"/><path class="cls-13" d="M166.65,20.09a1.2,1.2,0,1,1-1.2,1.2A1.2,1.2,0,0,1,166.65,20.09Z"/><path class="cls-13" d="M177.26,20.09a1.2,1.2,0,1,1-1.2,1.2A1.2,1.2,0,0,1,177.26,20.09Z"/><path class="cls-13" d="M18.05,15.07a1.2,1.2,0,1,1-1.2,1.19A1.2,1.2,0,0,1,18.05,15.07Z"/><path class="cls-13" d="M28.66,15.07a1.2,1.2,0,1,1-1.2,1.19A1.2,1.2,0,0,1,28.66,15.07Z"/><path class="cls-13" d="M39.28,15.07a1.2,1.2,0,1,1-1.2,1.19A1.19,1.19,0,0,1,39.28,15.07Z"/><path class="cls-13" d="M49.89,15.07a1.2,1.2,0,1,1-1.2,1.19A1.2,1.2,0,0,1,49.89,15.07Z"/><path class="cls-13" d="M60.51,15.07a1.2,1.2,0,1,1-1.2,1.19A1.19,1.19,0,0,1,60.51,15.07Z"/><path class="cls-13" d="M71.12,15.07a1.2,1.2,0,1,1-1.2,1.19A1.2,1.2,0,0,1,71.12,15.07Z"/><path class="cls-13" d="M81.73,15.07a1.2,1.2,0,1,1-1.2,1.19A1.2,1.2,0,0,1,81.73,15.07Z"/><path class="cls-13" d="M92.35,15.07a1.2,1.2,0,1,1-1.2,1.19A1.2,1.2,0,0,1,92.35,15.07Z"/><path class="cls-13" d="M103,15.07a1.2,1.2,0,1,1-1.19,1.19A1.2,1.2,0,0,1,103,15.07Z"/><path class="cls-13" d="M113.58,15.07a1.2,1.2,0,1,1-1.2,1.19A1.2,1.2,0,0,1,113.58,15.07Z"/><path class="cls-13" d="M124.19,15.07a1.2,1.2,0,1,1-1.2,1.19A1.2,1.2,0,0,1,124.19,15.07Z"/><path class="cls-13" d="M134.81,15.07a1.2,1.2,0,1,1-1.2,1.19A1.2,1.2,0,0,1,134.81,15.07Z"/><path class="cls-13" d="M145.42,15.07a1.2,1.2,0,1,1-1.2,1.19A1.2,1.2,0,0,1,145.42,15.07Z"/><path class="cls-13" d="M156,15.07a1.2,1.2,0,1,1-1.2,1.19A1.19,1.19,0,0,1,156,15.07Z"/><path class="cls-13" d="M166.65,15.07a1.2,1.2,0,1,1-1.2,1.19A1.2,1.2,0,0,1,166.65,15.07Z"/><path class="cls-13" d="M177.26,15.07a1.2,1.2,0,1,1-1.2,1.19A1.2,1.2,0,0,1,177.26,15.07Z"/><path class="cls-13" d="M18.05,10a1.21,1.21,0,1,1-1.2,1.2A1.2,1.2,0,0,1,18.05,10Z"/><path class="cls-13" d="M28.66,10a1.21,1.21,0,1,1-1.2,1.2A1.2,1.2,0,0,1,28.66,10Z"/><path class="cls-13" d="M39.28,10a1.21,1.21,0,1,1-1.2,1.2A1.19,1.19,0,0,1,39.28,10Z"/><path class="cls-13" d="M49.89,10a1.21,1.21,0,1,1-1.2,1.2A1.2,1.2,0,0,1,49.89,10Z"/><path class="cls-13" d="M60.51,10a1.21,1.21,0,1,1-1.2,1.2A1.19,1.19,0,0,1,60.51,10Z"/><path class="cls-13" d="M71.12,10a1.21,1.21,0,1,1-1.2,1.2A1.2,1.2,0,0,1,71.12,10Z"/><path class="cls-13" d="M81.73,10a1.21,1.21,0,1,1-1.2,1.2A1.2,1.2,0,0,1,81.73,10Z"/><path class="cls-13" d="M92.35,10a1.21,1.21,0,1,1-1.2,1.2A1.2,1.2,0,0,1,92.35,10Z"/><path class="cls-13" d="M103,10a1.21,1.21,0,1,1-1.19,1.2A1.2,1.2,0,0,1,103,10Z"/><path class="cls-13" d="M113.58,10a1.21,1.21,0,1,1-1.2,1.2A1.2,1.2,0,0,1,113.58,10Z"/><path class="cls-13" d="M124.19,10a1.21,1.21,0,1,1-1.2,1.2A1.2,1.2,0,0,1,124.19,10Z"/><path class="cls-13" d="M134.81,10a1.21,1.21,0,1,1-1.2,1.2A1.2,1.2,0,0,1,134.81,10Z"/><path class="cls-13" d="M145.42,10a1.21,1.21,0,1,1-1.2,1.2A1.2,1.2,0,0,1,145.42,10Z"/><path class="cls-13" d="M156,10a1.21,1.21,0,1,1-1.2,1.2A1.19,1.19,0,0,1,156,10Z"/><path class="cls-13" d="M166.65,10a1.21,1.21,0,1,1-1.2,1.2A1.2,1.2,0,0,1,166.65,10Z"/><path class="cls-13" d="M177.26,10a1.21,1.21,0,1,1-1.2,1.2A1.2,1.2,0,0,1,177.26,10Z"/><path class="cls-13" d="M18.05,5a1.2,1.2,0,0,1,0,2.4,1.2,1.2,0,1,1,0-2.4Z"/><path class="cls-13" d="M28.66,5a1.2,1.2,0,0,1,0,2.4,1.2,1.2,0,1,1,0-2.4Z"/><path class="cls-13" d="M39.28,5a1.2,1.2,0,1,1-1.2,1.2A1.19,1.19,0,0,1,39.28,5Z"/><path class="cls-13" d="M49.89,5a1.2,1.2,0,1,1,0,2.4,1.2,1.2,0,0,1,0-2.4Z"/><path class="cls-13" d="M60.51,5a1.2,1.2,0,1,1-1.2,1.2A1.19,1.19,0,0,1,60.51,5Z"/><path class="cls-13" d="M71.12,5a1.2,1.2,0,1,1,0,2.4,1.2,1.2,0,0,1,0-2.4Z"/><path class="cls-13" d="M81.73,5a1.2,1.2,0,1,1-1.2,1.2A1.2,1.2,0,0,1,81.73,5Z"/><path class="cls-13" d="M92.35,5a1.2,1.2,0,1,1,0,2.4,1.2,1.2,0,0,1,0-2.4Z"/><path class="cls-13" d="M103,5a1.2,1.2,0,1,1,0,2.4A1.2,1.2,0,0,1,103,5Z"/><path class="cls-13" d="M113.58,5a1.2,1.2,0,1,1,0,2.4,1.2,1.2,0,0,1,0-2.4Z"/><path class="cls-13" d="M124.19,5a1.2,1.2,0,1,1,0,2.4,1.2,1.2,0,0,1,0-2.4Z"/><path class="cls-13" d="M134.81,5a1.2,1.2,0,0,1,0,2.4,1.2,1.2,0,1,1,0-2.4Z"/><path class="cls-13" d="M145.42,5a1.2,1.2,0,1,1,0,2.4,1.2,1.2,0,1,1,0-2.4Z"/><path class="cls-13" d="M156,5a1.2,1.2,0,1,1-1.2,1.2A1.19,1.19,0,0,1,156,5Z"/><path class="cls-13" d="M166.65,5a1.2,1.2,0,0,1,0,2.4,1.2,1.2,0,0,1,0-2.4Z"/><path class="cls-13" d="M177.26,5a1.2,1.2,0,1,1-1.2,1.2A1.2,1.2,0,0,1,177.26,5Z"/><path class="cls-13" d="M18.05,0a1.2,1.2,0,0,1,0,2.4,1.19,1.19,0,0,1-1.2-1.2A1.2,1.2,0,0,1,18.05,0Z"/><path class="cls-13" d="M28.66,0a1.2,1.2,0,0,1,0,2.4,1.19,1.19,0,0,1-1.2-1.2A1.2,1.2,0,0,1,28.66,0Z"/><path class="cls-13" d="M39.28,0a1.19,1.19,0,0,1,1.19,1.2,1.2,1.2,0,1,1-2.39,0A1.2,1.2,0,0,1,39.28,0Z"/><path class="cls-13" d="M49.89,0a1.2,1.2,0,1,1,0,2.4,1.19,1.19,0,0,1-1.2-1.2A1.2,1.2,0,0,1,49.89,0Z"/><path class="cls-13" d="M60.51,0A1.19,1.19,0,0,1,61.7,1.2a1.2,1.2,0,1,1-2.39,0A1.2,1.2,0,0,1,60.51,0Z"/><path class="cls-13" d="M71.12,0a1.2,1.2,0,1,1,0,2.4,1.19,1.19,0,0,1-1.2-1.2A1.2,1.2,0,0,1,71.12,0Z"/><path class="cls-13" d="M81.73,0a1.2,1.2,0,0,1,1.2,1.2,1.2,1.2,0,0,1-2.4,0A1.2,1.2,0,0,1,81.73,0Z"/><path class="cls-13" d="M92.35,0a1.2,1.2,0,1,1,0,2.4,1.19,1.19,0,0,1-1.2-1.2A1.2,1.2,0,0,1,92.35,0Z"/><path class="cls-13" d="M103,0a1.2,1.2,0,1,1,0,2.4,1.19,1.19,0,0,1-1.19-1.2A1.19,1.19,0,0,1,103,0Z"/><path class="cls-13" d="M113.58,0a1.2,1.2,0,1,1,0,2.4,1.19,1.19,0,0,1-1.2-1.2A1.2,1.2,0,0,1,113.58,0Z"/><path class="cls-13" d="M124.19,0a1.2,1.2,0,1,1,0,2.4A1.19,1.19,0,0,1,123,1.2,1.2,1.2,0,0,1,124.19,0Z"/><path class="cls-13" d="M134.81,0a1.2,1.2,0,0,1,0,2.4,1.19,1.19,0,0,1-1.2-1.2A1.2,1.2,0,0,1,134.81,0Z"/><path class="cls-13" d="M145.42,0a1.2,1.2,0,0,1,0,2.4,1.19,1.19,0,0,1-1.2-1.2A1.2,1.2,0,0,1,145.42,0Z"/><path class="cls-13" d="M156,0a1.19,1.19,0,0,1,1.19,1.2,1.2,1.2,0,1,1-2.39,0A1.2,1.2,0,0,1,156,0Z"/><path class="cls-13" d="M166.65,0a1.2,1.2,0,0,1,0,2.4,1.19,1.19,0,0,1-1.2-1.2A1.2,1.2,0,0,1,166.65,0Z"/><path class="cls-13" d="M177.26,0a1.2,1.2,0,0,1,1.2,1.2,1.2,1.2,0,1,1-2.4,0A1.2,1.2,0,0,1,177.26,0Z"/><path class="cls-13" d="M6.77,20.09a1.2,1.2,0,1,1,0,2.4,1.2,1.2,0,0,1,0-2.4Z"/><path class="cls-13" d="M6.77,15.07a1.2,1.2,0,1,1,0,2.4,1.2,1.2,0,0,1,0-2.4Z"/><path class="cls-13" d="M6.77,10a1.21,1.21,0,1,1,0,2.41,1.21,1.21,0,0,1,0-2.41Z"/><path class="cls-13" d="M6.77,5a1.2,1.2,0,1,1,0,2.4,1.2,1.2,0,0,1,0-2.4Z"/><path class="cls-13" d="M6.77,0A1.21,1.21,0,0,1,8,1.2,1.21,1.21,0,0,1,6.77,2.4,1.18,1.18,0,0,1,5.58,1.2,1.19,1.19,0,0,1,6.77,0Z"/></g></g></svg>