<svg xmlns="http://www.w3.org/2000/svg" viewBox="0 0 350 484.03"><defs><style>.cls-1{fill:#fff;}</style></defs><g id="Layer_2" data-name="Layer 2"><g id="Layer_1-2" data-name="Layer 1"><path class="cls-1" d="M316.59,196.7c-4-16.85-2.68-34.29-8.11-51-5.75-17.66-19.25-30.35-38.78-36.5-22.62-7.13-48.22-6.08-71.09-13.44C173,87.57,169.1,69.2,164.79,47.51c-3.53-17.82-13.44-35.29-32.53-43.35C110.48-5,89.08,2.8,68.56,10.59,46.86,18.82,22.89,15.73,0,16.94V467.09c22.89,1.21,46.86-1.88,68.56,6.35,20.52,7.79,41.92,15.64,63.7,6.44,19.09-8.07,29-25.54,32.53-43.35,4.31-21.7,8.25-40.07,33.82-48.29,22.87-7.36,48.47-6.31,71.09-13.43,19.53-6.15,33-18.85,38.78-36.51,5.43-16.68,4.07-34.12,8.11-51,3.5-14.63,11.84-29.94,26.06-37.32a39.19,39.19,0,0,1,7.35-2.9V236.92a39.19,39.19,0,0,1-7.35-2.9C328.43,226.65,320.09,211.33,316.59,196.7Z"/></g></g></svg>