<?xml version="1.0" encoding="utf-8"?>
<!-- Generator: Adobe Illustrator 23.0.2, SVG Export Plug-In . SVG Version: 6.00 Build 0)  -->
<svg version="1.1" id="katman_1" xmlns="http://www.w3.org/2000/svg" xmlns:xlink="http://www.w3.org/1999/xlink" x="0px" y="0px"
	 viewBox="0 0 1100 4794.1" style="enable-background:new 0 0 1100 4794.1;" xml:space="preserve">
<style type="text/css">
	.st0{fill:#FFFFFF;}
</style>
<title>3Varlık 1</title>
<g>
	<path class="st0" d="M1077,735.5c-44.7-23.2-70.9-71.3-81.9-117.3c-12.7-53-8.4-107.8-25.5-160.2c-18.1-55.5-60.5-95.4-121.9-114.7
		c-71.1-22.4-151.5-19.1-223.4-42.2C544,275.2,531.6,217.5,518,149.3c-11.1-56-42.3-110.9-102.3-136.2
		c-68.4-28.9-135.7-4.3-200.2,20.2C147.3,59.2,71.9,49.5-0.1,53.3v3683.9v18.8v975.5c72,3.8,147.3-5.9,215.5,20
		c64.5,24.5,131.8,49.1,200.2,20.2c60-25.4,91.2-80.2,102.3-136.2c13.5-68.2,25.9-125.9,106.3-151.8
		c71.9-23.1,152.4-19.8,223.4-42.2c61.4-19.3,103.8-59.2,121.9-114.7c17.1-52.4,12.8-107.2,25.5-160.2c11-46,37.2-94.1,81.9-117.3
		c7.4-3.8,15.1-6.9,23.1-9.1v-284.1v-18.8V744.6C1092.1,742.4,1084.4,739.3,1077,735.5z"/>
</g>
</svg>
