<svg xmlns="http://www.w3.org/2000/svg" viewBox="0 0 1100 3646.77"><defs><style>.cls-1{fill:#fff;}</style></defs><g id="Layer_2" data-name="Layer 2"><g id="Layer_1-2" data-name="Layer 1"><path class="cls-1" d="M1100,1966.15V744.6a123.16,123.16,0,0,1-23.09-9.1C1032.2,712.32,1006,664.18,995,618.21c-12.7-53-8.4-107.78-25.47-160.2-18.08-55.49-60.5-95.4-121.88-114.73-71.1-22.39-151.55-19.08-223.45-42.21-80.34-25.86-92.74-83.59-106.27-151.77-11.11-56-42.26-110.88-102.26-136.24C347.23-15.86,280,8.81,215.47,33.28,147.27,59.16,72,49.45,0,53.24V3574.11c72,5.18,147.27-8.07,215.47,27.24,64.49,33.39,131.76,67.06,200.19,27.59,60-34.6,91.15-109.53,102.26-185.92,13.54-93,25.93-171.82,106.27-207.1,71.9-31.57,152.35-27.06,223.45-57.61,61.38-26.38,103.8-80.84,121.88-156.57,17.07-71.52,12.77-146.34,25.47-218.61,11-62.73,37.21-128.43,81.92-160.06a106.29,106.29,0,0,1,23.09-12.42h0v-664.5Z"/></g></g></svg>