<?xml version="1.0" encoding="UTF-8"?> <svg xmlns="http://www.w3.org/2000/svg" xmlns:cc="http://creativecommons.org/ns#" xmlns:dc="http://purl.org/dc/elements/1.1/" xmlns:rdf="http://www.w3.org/1999/02/22-rdf-syntax-ns#" width="1184" height="1259" fill="none" version="1.1" viewBox="0 0 1184 1259"><metadata></metadata><path d="m240.86-346.39c-344.89 92.412-549.54 446.96-457.12 791.9 92.426 344.94 676.75 1089.9 791.82 457.24 115.07-632.64 476.86-450.31 384.43-795.25-92.426-344.94-374.25-546.3-719.14-453.89z" clip-rule="evenodd" fill="#a88a23" fill-rule="evenodd"></path><path d="m734.22 571.05c-118.42 205.11-380.95 275.23-586.37 156.63-205.43-118.6-275.96-381.02-157.54-586.13 29.592-51.254 59.034-71.415 91.985-76.738 16.5-2.6655 33.914-1.616 52.723 1.1582 12.938 1.9085 26.512 4.6288 40.891 7.5106 6.533 1.3092 13.232 2.6518 20.114 3.9668 44.036 8.4145 95.391 15.665 157.72 5.6098 62.328-10.055 135.59-37.411 223.48-98.157 87.795-60.685 148.72-67.036 188.97-39.635 20.146 13.717 35.187 35.935 45.838 64.209 10.651 28.272 16.899 62.566 19.481 100.38 5.164 75.635-4.345 165.29-22.556 248.87-18.212 83.583-45.117 161.05-74.721 212.32z" opacity=".2" stroke="#fff"></path></svg> 