<?xml version="1.0" encoding="UTF-8"?> <svg xmlns="http://www.w3.org/2000/svg" xmlns:cc="http://creativecommons.org/ns#" xmlns:dc="http://purl.org/dc/elements/1.1/" xmlns:rdf="http://www.w3.org/1999/02/22-rdf-syntax-ns#" width="1e3" height="1342.4" fill="none" version="1.1" viewBox="0 0 1e3 1342.4"><metadata></metadata><g transform="matrix(1.8215 0 0 1.8215 0 -.02635)" clip-rule="evenodd" fill-rule="evenodd"><path d="m153.63 675v31.001h-153.63v30.999h549v-30.999h-153.63v-31.001z" fill="#fff"></path><g fill="#f4b184"><path d="m272 254h20v-31h-20z"></path><path d="m322.48 184.69c0 4.571 3.709 8.277 8.282 8.277s8.28-3.706 8.28-8.277c0-4.573-3.707-8.281-8.28-8.281s-8.282 3.708-8.282 8.281z"></path><path d="m229.09 184.69c0 4.571 3.71 8.277 8.283 8.277 4.57 0 8.276-3.706 8.276-8.277 0-4.573-3.706-8.281-8.276-8.281-4.573 0-8.283 3.708-8.283 8.281z"></path><path d="m235.06 172.42c-2.234-66.9 47.586-62.107 47.606-62.107 8e-3 -1e-3 49.834-4.904 47.741 61.998 0 0 0.099 27.927-7.393 38.39-9.841 13.741-27.9 20.944-40.213 20.961-12.315 0.012-30.554-6.245-40.261-20.877-7.667-11.541-7.48-38.365-7.48-38.365z"></path></g><path d="m315.5 180.25c-0.164-3.758-2.44-7.112-6.414-7.349-3.964-0.234-6.269 3.95-6.416 7.349-0.057 1.353 2.043 1.348 2.1 0 0.107-2.555 1.528-5.084 4.316-5.248 2.776-0.165 4.215 2.95 4.312 5.248 0.059 1.348 2.159 1.353 2.102 0z" fill="#84452f"></path><path d="m262.78 180.25c-0.162-3.758-2.441-7.112-6.414-7.349-3.966-0.234-6.268 3.95-6.416 7.349-0.058 1.353 2.044 1.348 2.099 0 0.11-2.555 1.531-5.084 4.317-5.248 2.776-0.165 4.215 2.95 4.316 5.248 0.055 1.348 2.158 1.353 2.098 0z" fill="#84452f"></path><path d="m281.76 196.77 20.03-0.02s-1.748 15.549-20.011 15.566c-18.263 0.015-20.046-15.518-20.046-15.518z" fill="#fff"></path><path d="m207.94 136.4s14.693 2.1 20.527-2.8c0 0-5.598 0.235-8.867-3.497 0 0 13.76-4.434 21.691-10.494 7.932-6.066 19.125-16.561 47.583-15.629 28.459 0.934 62.043 19.355 41.138 78.122 0 0-11.45-14.451-15.564-34.508 0 0-41.222 13.592-74.179 7.523-1.642 7.826-3.638 16.709-5.134 21.294 0 0-4.416-10.948-3.086-23.299-9.77-3.025-18.311-8.25-24.109-16.712z" fill="#805231"></path><path d="m240.95 391.22h81.54l29.435 265.03h-29.435s-24.379-223.46-40.77-223.46c-16.389 0-40.77 223.46-40.77 223.46h-29.434z" fill="#1c3c53"></path><path d="m281.72 391.22h39.948l1.388 5.104s-20.251 14.666-45.718 15.461c-25.469 0.794-32.631 9.549-35.814 29.844-3.186 20.292-24.846 214.62-24.846 214.62h-5.162l29.434-265.03z" fill="#0b1d28"></path><path d="m326.63 656.25s-4.463 8.036 0 16.366h41.958s-0.596-9.82-18.747-16.366z" fill="#4ca3c9"></path><path d="m324.64 673.22c0 0.987 0.801 1.784 1.787 1.784h43.05c0.988 0 1.784-0.797 1.784-1.784 0-0.99-0.796-1.784-1.784-1.784h-43.05c-0.986 0-1.787 0.794-1.787 1.784z" fill="#1c3c53"></path><path d="m236.66 656.25s4.465 8.036 0 16.366h-41.956s0.592-9.82 18.745-16.366z" fill="#4ca3c9"></path><path d="m238.65 673.22c0 0.987-0.802 1.784-1.789 1.784h-43.047c-0.989 0-1.786-0.797-1.786-1.784 0-0.99 0.797-1.784 1.786-1.784h43.047c0.987 0 1.789 0.794 1.789 1.784z" fill="#1c3c53"></path><path d="m170.93 69.157 8.106 7.0528 2.318 2.0146 8.097 7.0545c-26.332 17.379-51.821 59.544-51.821 59.544l-8.105-7.055-2.318-2.015-8.102-7.052s38.248-31.063 51.825-59.544z" fill="#ffce41"></path><path d="m88.896 143.01 38.732 33.704 24.301-27.92-38.729-33.704z" fill="#ffce41"></path><path d="m97.92 142.38 29.081 25.31 15.906-18.274-29.083-25.31z" fill="#ffdf8f"></path><path d="m81.246 143.06c-1.8374 2.11-1.6165 5.311 0.4936 7.148l39.736 34.58c2.112 1.837 5.313 1.615 7.15-0.495 1.836-2.11 1.613-5.311-0.495-7.149l-39.734-34.579c-2.1101-1.839-5.3113-1.613-7.1503 0.495z" fill="#ffdf8f"></path><g fill="#ffce41"><path d="m154.54 1.7472c6.749 5.8748 13.498 11.746 20.245 17.621 2.526 2.202-0.884 6.1242-3.414 3.9222-6.066-5.2792-12.134-10.56-18.205-15.839-2.58 3.5172-4.466 7.6619-5.649 11.778-3.693 12.894 2.532 24.358 12.1 32.794 2.514 2.2188-0.898 6.1409-3.419 3.9255-10.503-9.2699-16.986-21.438-14.283-35.644 1.245-6.5258 4.529-13.309 8.952-18.304 0.941-1.0608 2.592-1.193 3.673-0.25433z"></path><path d="m258.48 92.209c-6.75-5.8748-13.496-11.746-20.246-17.621-2.528-2.202-5.944 1.7235-3.415 3.9238l18.198 15.839c-3.123 3.0403-6.972 5.4849-10.884 7.2202-12.261 5.438-24.476 0.853-34.155-7.4578-2.542-2.1836-5.957 1.7385-3.412 3.9238 10.633 9.131 23.574 13.868 37.273 9.231 6.29-2.133 12.558-6.32 16.892-11.391 0.924-1.0776 0.827-2.7324-0.251-3.6678z"></path><path d="m251.37 70.438-12.167 13.978c-16.028 18.413-44.204 20.365-62.616 4.3405l-7.323-6.3735c-18.413-16.025-20.366-44.199-4.342-62.614l12.164-13.977z"></path></g><path d="m200.17 99.266c-8.464-1.0458-16.702-4.5228-23.581-10.508l-7.323-6.3751c-18.414-16.025-20.366-44.199-4.341-62.612l12.164-13.978 24.948 21.709c-21.223 34.104-1.867 71.765-1.867 71.765z" fill="#f7bd2d"></path><path d="m173.02 1.5323c-1.603 1.8389-1.414 4.6266 0.43 6.2296l76.469 66.549c1.839 1.5996 4.629 1.4072 6.227-0.4334 1.601-1.8373 1.41-4.6266-0.432-6.2279l-76.464-66.549c-1.846-1.603-4.632-1.4089-6.23 0.4317z" fill="#ffdf8f"></path><path d="m156.98 90.635s3.358 9.6514 0.758 10.446c-2.604 0.796-5.39-4.8576-5.39-4.8576s1.575 9.0976-0.415 10.289c-1.99 1.192-4.315-5.583-4.315-5.583s2.093 8.614-0.031 8.948c-2.121 0.335-3.584-4.451-3.584-4.451s-0.867-16.157 12.977-14.791z" fill="#f4b184"></path><path d="m229.58 260.19 30.143-11.301 21.998 4.791 22.001-4.791 30.144 11.301s-9.292 78.371-6.039 133.66c0 0-15.542 10.223-46.106 10.223-30.561 0-46.103-10.223-46.103-10.223 3.256-55.287-6.038-133.66-6.038-133.66z" fill="#4ca3c9"></path><path d="m291.62 240.78-9.908 12.897 12.652 14.133 9.349-18.923z" fill="#8bd0ef"></path><path d="m271.81 240.78 9.907 12.897-12.651 14.133-9.349-18.923z" fill="#8bd0ef"></path><path d="m235.61 393.85c2.368-40.241-1.909-92.696-4.413-118.28 5.772 1.744 25.573 89.923 36.083 102.66 10.509 12.731 60.258 10.072 60.258 10.072 0.079 1.871 0.174 3.723 0.281 5.547 0 0-15.544 10.223-46.106 10.223-30.561 0-46.103-10.223-46.103-10.223z" fill="#3595af"></path><path d="m166.17 120.52c-3.101 40.856 2.318 84.804 32.361 115.03 11.783 11.857 26.271 20.797 41.214 23.658 11.3 2.164 6.503 19.367-4.749 17.215-18.764-3.594-36.828-15.908-50.009-29.17-32.873-33.081-40.003-81.858-36.658-126.73z" fill="#4ca3c9"></path><path d="m166.17 120.52s6.874-9.501 5.76-11.452c-1.112-1.951-5.625-11.767-8.275-10.972-2.656 0.7982 0 10.972 0 10.972l-9.197 11.452z" fill="#f4b184"></path><path d="m184.99 247.25c-32.875-33.08-40.003-81.858-36.658-126.73h6.129c-3.269 19.442 0 69.362 17.472 97.481 15.915 25.613 58.909 57.348 59.252 57.559-17.384-4.422-33.907-15.949-46.195-28.31z" fill="#3595af"></path><path d="m317.98 270.62c35.8-22.208 54.008-62.873 64.194-102.21 4.03-15.559 7.085-31.698 8.683-47.877h17.909c-1.737 18.388-5.268 36.759-9.843 54.425-11.213 43.307-32.813 86.816-71.933 111.08-9.813 6.088-18.772-9.362-9.01-15.415z" fill="#4ca3c9"></path><path d="m408.77 120.52s4.895-13.535 3.185-14.73c-1.709-1.195-13.25-4.543-14.445-3.465-1.193 1.079-5.17-14.042-8.356-14.042-3.182 0 1.708 32.238 1.708 32.238z" fill="#f4b184"></path><path d="m398.93 174.95c-10.772 41.601-31.137 83.374-67.397 108.11 0.061-0.061 65.851-64.821 71.686-162.54h5.554c-1.737 18.388-5.268 36.757-9.843 54.425z" fill="#3595af"></path></g></svg> 