<?xml version="1.0" encoding="UTF-8"?> <!-- Created with Inkscape (http://www.inkscape.org/) --> <svg xmlns="http://www.w3.org/2000/svg" xmlns:cc="http://creativecommons.org/ns#" xmlns:dc="http://purl.org/dc/elements/1.1/" xmlns:rdf="http://www.w3.org/1999/02/22-rdf-syntax-ns#" width="1e3" height="745.22" version="1.1" viewBox="0 0 1e3 745.22" xml:space="preserve"><metadata></metadata><g transform="matrix(1.3333 0 0 -1.3333 0 745.22)"><g transform="scale(.15)"><g fill="#e7e8e5"><path d="m0 449.13h5e3v2.5h-5e3z"></path><path d="m3943.6 337.09h509.01v-2.5h-509.01v2.5"></path><path d="m996.66 364.23h-472.07v2.5h472.07v-2.5"></path><path d="m3788.1 381.04h191.92v2.5h-191.92z"></path><path d="m3171.4 314.74h140.82v2.5h-140.82z"></path><path d="m2727.9 314.74h354.44v2.5h-354.44z"></path><path d="m1952.2 356.95h569.86v2.5h-569.86z"></path><path d="m439.15 3723.6c-30.101 0-54.582-24.49-54.582-54.57v-2714.3c0-30.097 24.481-54.578 54.582-54.578h1931c30.08 0 54.57 24.481 54.57 54.578v2714.3c0 30.08-24.49 54.57-54.57 54.57h-1931m1931-2826h-1931c-31.476 0-57.082 25.598-57.082 57.078v2714.3c0 31.46 25.606 57.07 57.082 57.07h1931c31.46 0 57.07-25.61 57.07-57.07v-2714.3c0-31.48-25.61-57.078-57.07-57.078"></path><path d="m2602.1 3723.6c-30.09 0-54.57-24.49-54.57-54.57v-2714.3c0-30.097 24.48-54.578 54.57-54.578h1931c30.09 0 54.58 24.481 54.58 54.578v2714.3c0 30.08-24.49 54.57-54.58 54.57h-1931m1931-2826h-1931c-31.47 0-57.07 25.598-57.07 57.078v2714.3c0 31.46 25.6 57.07 57.07 57.07h1931c31.47 0 57.08-25.61 57.08-57.07v-2714.3c0-31.48-25.61-57.078-57.08-57.078"></path><path d="m2885.7 451.63h1018v2967.3h-1018z"></path></g><path d="m2954.4 511.63h880.57v2847.3h-880.57z" fill="#fafaf9"></path><path d="m1837.2 451.63h1018v2967.3h-1018z" fill="#e7e8e5"></path><path d="m2855.2 463.3h30.539v2944h-30.539z" fill="#dadbd8"></path><path d="m1905.9 511.63h880.56v2847.3h-880.56z" fill="#fafaf9"></path><g fill="#dadbd8"><path d="m4368.7 3441.2h-2996.5c-7.33 0-13.33 6-13.33 13.33 0 7.34 6 13.34 13.33 13.34h2996.5c7.33 0 13.33-6 13.33-13.34 0-7.33-6-13.33-13.33-13.33"></path><path d="m2954.4 3302.3h880.57v56.66h-880.57z"></path><path d="m2954.4 3263.4h880.57v95.555h-880.57z"></path><path d="m1905.9 3150.1h880.56v208.89h-880.56z"></path></g><path d="m3752.4 488.12h74.441v23.508h-74.441z" fill="#f0f0ee"></path><path d="m3826.9 511.63h-74.44v1186.8h74.44-69.07l69.07-1105.5v-81.203m0 1253.4h-74.44v1498.4h74.44v-1498.4" fill="#f4f4f2"></path><path d="m3752.4 3419h74.441v22.227h-74.441z" fill="#f6f6f4"></path><path d="m3752.4 3359h74.441v60h-74.441z" fill="#f0f0ee"></path><path d="m3826.9 3467.8h-74.44v62.22h282.01-207.57v-62.22" fill="#f6f6f4"></path><path d="m3752.4 3441.2h74.441v26.672h-74.441z" fill="#eeeeec"></path><path d="m3752.4 3263.4h74.441v95.555h-74.441z" fill="#eeeeec"></path><path d="m3903.7 1760.1v1658.9h-76.85v22.22h76.85v-1681.1" fill="#f0f0ee"></path><path d="m3903.7 488.12h-0.84l-56.71 1210.3h-11.17 51.39c6.34 0 12.27 1.79 17.33 4.9v-1215.2m-70.31 0h-6.54v23.508h5.07l1.47-23.508m70.31 1272c-5.06 3.1-10.99 4.89-17.33 4.89h-51.39v1594h-8.13v60h76.85v-1658.9" fill="#ececea"></path><path d="m3831.9 511.63h-5.07v81.203l5.07-81.203m3.06 1253.4h-8.13v1498.4h8.13v-1498.4" fill="#efefed"></path><path d="m3903.7 3467.8h-76.85v62.22h133.13-56.28v-62.22" fill="#f0f0ee"></path><path d="m3826.9 3441.2h76.848v26.672h-76.848z" fill="#eaeae7"></path><path d="m3826.9 3263.4h8.1289v95.555h-8.1289z" fill="#eaeae7"></path><path d="m3978.2 488.12h-74.44v409.5h74.44v-409.5m0 412h-74.44v803.16c9.56 5.86 15.97 16.42 15.97 28.4 0 11.99-6.41 22.54-15.97 28.41v1681.1h74.44v-2541" fill="#f6f6f4"></path><path d="m3903.7 897.62h74.441v2.5h-74.441z" fill="#f0f0ee"></path><path d="m3978.2 3467.8h-74.44v62.22h282.01-207.57v-62.22" fill="#f6f6f4"></path><path d="m3903.7 3441.2h74.441v26.672h-74.441z" fill="#eeeeec"></path><path d="m4044.7 488.12h-66.56v409.5h66.56v-409.5m0 412h-66.56v2541h66.56v-2541" fill="#f0f0ee"></path><path d="m3978.2 897.62h66.559v2.5h-66.559z" fill="#ececea"></path><path d="m4044.7 3467.8h-66.56v62.22h133.13-66.57v-62.22" fill="#f0f0ee"></path><path d="m3978.2 3441.2h66.559v26.672h-66.559z" fill="#eaeae7"></path><path d="m4326.7 488.12h-282.02v409.5h282.02v-409.5m0 412h-282.02v2541h282.02v-2541" fill="#f6f6f4"></path><path d="m4044.7 897.62h282.02v2.5h-282.02z" fill="#f0f0ee"></path><path d="m4326.7 3467.8h-282.02v62.22h282.02v-62.22" fill="#f6f6f4"></path><path d="m4044.7 3441.2h282.02v26.672h-282.02z" fill="#eeeeec"></path><path d="m1513.3 488.12h-108.04v409.5h108.04v-409.5m0 412h-108.04v583.3h108.04v-583.3m0 714.79h-108.04v83.47h108.04v-83.47m0 475.04h-108.04v1351.2h108.04v-1351.2m0 1377.9h-108.04v62.22h409.27-301.23v-62.22" fill="#f6f6f4"></path><path d="m1405.3 897.62h108.04v2.5h-108.04z" fill="#f0f0ee"></path><path d="m1405.3 3441.2h108.04v26.672h-108.04z" fill="#eeeeec"></path><path d="m1624.8 488.12h-111.51v409.5h111.51v-409.5m0 412h-111.51v583.3h111.51v-583.3m0 714.79h-111.51v83.47h111.51v-83.47m0 475.04h-111.51v1351.2h111.51v-1351.2m0 1377.9h-111.51v62.22h193.19-81.68v-62.22" fill="#f0f0ee"></path><path d="m1513.3 897.62h111.51v2.5h-111.51z" fill="#ececea"></path><path d="m1513.3 3441.2h111.51v26.672h-111.51z" fill="#eaeae7"></path><path d="m1709.7 488.12h-84.93v409.5h59.34l25.59-409.5m-25.75 412h-59.18v583.3h22.74l36.44-583.3m48.86 577.35-0.28 5.95h0.28v-5.95m0 137.44h-6.44l-3.92 83.47h-88.37l5.22-83.47h-14.53v83.47h108.04v-83.47m0 475.04h-108.04v1351.2h108.04v-1351.2m0 1377.9h-108.04v62.22h409.27-301.23v-62.22" fill="#f6f6f4"></path><path d="m1684.2 897.62h-59.34v2.5h59.18l0.16-2.5" fill="#f0f0ee"></path><path d="m1624.8 3441.2h108.04v26.672h-108.04z" fill="#eeeeec"></path><path d="m1829.4 488.12h-50.24l-19.19 409.5h69.43v-409.5m0 412h-69.55l-27.05 577.35v5.95h96.6v-583.3m0 714.79h-96.6v83.47h96.6v-83.47m0 475.04h-96.6v1351.2h96.6v-1351.2m0 1377.9h-96.6v62.22h193.19-96.59v-62.22" fill="#f0f0ee"></path><path d="m1829.4 897.62h-69.43l-0.12 2.5h69.55v-2.5" fill="#ececea"></path><path d="m1732.8 3441.2h96.598v26.672h-96.598z" fill="#eaeae7"></path><path d="m1837.2 488.12h-7.74v409.5h7.74v-409.5m0 412h-7.74v583.3h7.74v-583.3m0 714.79h-7.74v83.47h7.74v-83.47m0 475.04h-7.74v1351.2h409.27v-22.22h-401.53v-1329m401.53 1377.9h-409.27v62.22h409.27v-62.22" fill="#f6f6f4"></path><path d="m1829.4 897.62h7.7422v2.5h-7.7422z" fill="#f0f0ee"></path><path d="m2238.7 488.12h-401.53v995.3h68.71v-971.79h332.82v-23.508m-332.82 1126.8h-68.71v83.47h68.71v-83.47m0 475.04h-68.71v1329h401.53v-60h-332.82v-1269" fill="#f0f0ee"></path><path d="m2238.7 511.63h-332.82v971.79h250.48c-72.94-37.49-123.54-90.84-124.16-166.72-0.02-1.74-0.02-3.47-0.02-5.21 0.04-211.79 107.28-458.13 206.52-640.76v-159.1m0 1103.3h-332.82v83.47h332.82v-83.47m-186.36 150.07h-75.54c2.52 0 4.56 2.04 4.56 4.56v79.37c0 2.51-2.04 4.55-4.56 4.55h-44.25c2.51 0 4.55 2.04 4.55 4.56v99.8c0 2.52-2.04 4.55-4.55 4.55h106.38c2.51 0 4.56 1.21 4.56 2.69v46.81c0 1.48-2.05 2.68-4.56 2.68h-44.25c2.51 0 4.55 1.2 4.55 2.69v70.02c0 1.48-2.04 2.69-4.55 2.69h-88.8v1269h332.82-332.82v-208.89h332.82v-1206l-27.63-26.55-20.09 38.67c-1.03 1.98-3.04 3.1-5.13 3.1-0.89 0-1.8-0.2-2.65-0.64-2.82-1.47-3.92-4.95-2.46-7.77l21.66-41.69-150.06-144.25" fill="#f4f4f2"></path><path d="m1829.4 3441.2h409.27v26.672h-409.27z" fill="#eeeeec"></path><path d="m1905.9 3150.1h332.82v208.89h-332.82z" fill="#eeeeec"></path><path d="m1211 1731.6h-660.31v1486.7h660.31v-1486.7" fill="#ededeb"></path><path d="m1211 1731.6h20.78v1486.7h-20.78v-1486.7" fill="#e2e2e0"></path><path d="m610.72 1791.6v1366.7h540.31v-1366.7h-540.31" fill="#fafaf9"></path><path d="m1252.6 994.87h-677.82c-30.922 0-56.223 25.309-56.223 56.229 0 30.93 25.301 56.23 56.223 56.23h677.82c30.93 0 56.23-25.3 56.23-56.23 0-30.92-25.3-56.229-56.23-56.229" fill="#f3f2f1"></path><g fill="#e2e2e0"><path d="m737.78 994.87h-111.24l-126.54-543.24h111.25l126.53 543.24"></path><path d="m959.86 994.87h-111.24l-62.343-543.24h111.25l62.339 543.24"></path><path d="m1089.6 994.87h111.23l126.54-543.24h-111.24l-126.53 543.24"></path></g><path d="m4438.9 113.23c0-62.539-868.06-113.23-1938.9-113.23-1070.8 0-1938.9 50.691-1938.9 113.23 0 62.54 868.07 113.24 1938.9 113.24 1070.8 0 1938.9-50.699 1938.9-113.24" fill="#f3f2f1"></path><path d="m3145.8 1199.8h-853.39c-16.09 0-29.26 13.17-29.26 29.26v33.66c0 16.08 13.17 29.25 29.26 29.25h853.39c16.09 0 29.26-13.17 29.26-29.25v-33.66c0-16.09-13.17-29.26-29.26-29.26" fill="#17282f"></path><path d="m3137.6 173.2h37.41l-43.06 1026.6h-51.76l57.41-1026.6" fill="#406fbf"></path><path d="m3175 173.2h-37.41l-54.97 983.03h51.15l41.23-983.03" fill="#a4c3e9"></path><path d="m2793.3 173.2h-37.41l43.06 1026.6h51.76l-57.41-1026.6" fill="#406fbf"></path><path d="m2793.3 173.2h-37.41l43.06 1026.6h0.01l-1.83-43.6h51.14l-39.4-704.6-0.14-2.5-7.37-131.89-0.14-2.5-7.92-141.54m55.64 994.93 1.75 31.7h0.02l-1.77-31.7" fill="#a4c3e9"></path><path d="m2644.9 173.2h37.41l-43.06 1026.6h-51.75l57.4-1026.6" fill="#406fbf"></path><path d="m2682.3 173.2h-37.41l-54.97 983.03h51.14l-1.83 43.6h0.01l43.06-1026.6m-92.62 987.43-2.19 39.2h0.02l2.17-39.2" fill="#a4c3e9"></path><path d="m2300.5 173.2h-37.41l43.06 1026.6h51.76l-57.41-1026.6" fill="#406fbf"></path><path d="m2300.5 173.2h-37.41l17.73 422.71c10.23-17.539 20.17-34.18 29.67-49.781 1.77-46.809 3.18-87.41 4.22-118.89l-3.79-67.789-0.14-2.5-10.28-183.75" fill="#a4c3e9"></path><path d="m3133.8 1156.2h-0.04l-1.83 43.6h-51.76l2.44-43.6h-0.05l-2.42 43.6h51.82l1.84-43.6" fill="#b4ceee"></path><path d="m3080.2 1199.8h51.82v0.027h-51.82z" fill="#22497d"></path><path d="m3133.8 1156.2h-51.15l-2.44 43.6h51.76l1.83-43.6" fill="#80a8de"></path><path d="m2848.2 1156.2h-0.01l0.67 11.9-0.66-11.9" fill="#a8c3e9"></path><path d="m2798.9 1199.8h51.73v0.027h-51.73z" fill="#22497d"></path><path d="m2848.2 1156.2h-51.14l1.83 43.6h51.73l-1.75-31.7-0.67-11.9" fill="#80a8de"></path><path d="m2589.9 1156.2-0.24 4.4 0.24-4.4" fill="#b4ceee"></path><path d="m2587.5 1199.8h51.719v0.027h-51.719z" fill="#22497d"></path><path d="m2641 1156.2h-51.14l-0.24 4.4-2.17 39.2h51.72l1.83-43.6" fill="#80a8de"></path><path d="m2620.8 324.07-84.69-44.968-133.33 180.12 84.69 44.972 133.33-180.12" fill="#f89e63"></path><path d="m2505.6 306.9 88.36 61.434c3.21 2.238 7.19 1.688 9.56-1.32l52.9-66.922c5.49-6.942 3.45-18.539-4.04-23.559-31.13-20.859-45.16-28.14-85.86-52.301-25.03-14.859-85.07-50.109-121.95-66.14-36.06-15.68-51.68 20.902-37.47 30.98 33.63 23.871 78.24 70.692 88.32 103.57 1.82 5.929 5.48 10.98 10.18 14.257" fill="#17282f"></path><path d="m2549.8 420.01-15.98 21.578 0.05 0.019 15.98-21.57-0.05-0.027" fill="#c3c5c2"></path><path d="m2497 389.67c1.06 9.137 2.26 19.719 3.58 31.558l33.23 20.36 15.98-21.578-52.79-30.34" fill="#dc834c"></path><path d="m2691.9 1570.9s-657.42 20.47-659.67-254.22c-3.24-394.81 371.46-913.23 371.46-913.23l145.88 97.472s-256.77 376.92-258.97 685.11c193.76 54.7 649.84 20.41 709.07 180.98 48.46 131.36 23.14 203.89 23.14 203.89h-330.91" fill="#406fbf"></path><path d="m2510.8 519.03c1.17 12.008 2.36 24.5 3.55 37.399 5.81-9.571 11.07-18.051 15.65-25.321l-19.2-12.078m-200.29 27.098c-22.18 36.41-46.75 78.492-71.8 124.6-99.24 182.63-206.48 428.97-206.52 640.76 0 1.74 0 3.47 0.02 5.21 0.62 75.88 51.22 129.23 124.16 166.72h327.1c-127.58-42.27-230.53-102.17-220.56-184.58 23.66-195.51 39.49-538.88 47.6-752.71m219.46 673.89c-0.6 5.4-1.23 10.75-1.88 16 34.34 0 78.29-0.48 127.13-0.48 9.93 0 20.06 0.02 30.36 0.07-51.21-6.21-104.28-10.91-155.61-15.59" fill="#3563b7"></path><path d="m2589.8 475.85-174.38-106.8-54.69 55.5 191.59 120.62 37.48-69.32" fill="#17282f"></path><path d="m2499.4 290.34c-12.12-12.59-22.78-19.352-28.99-18.25-2.58 0.449-4.49 2.301-5.85 5.652-0.63 1.539-0.56 2.797 0.23 3.969 3.76 5.621 21.45 8.098 34.61 8.629zm-12.12-16.531c7.27 5.05 14.27 12.132 19.01 17.382l0.38 2.391-2.03 1.328c-3.73 0-36.57-0.262-43.56-10.711-1.62-2.418-1.85-5.23-0.66-8.148 1.97-4.821 5.07-7.629 9.21-8.352 5.28-0.929 11.57 1.871 17.65 6.11" fill="#406fbf"></path><path d="m2473 315.25c1.53 1.07 3.19 1.441 5.06 1.141 7.91-1.262 17.56-13.77 22.54-21.399-10.86 1.028-27.34 8.067-30.06 14.52-0.52 1.226-0.8 2.918 1.64 5.097zm32.92-24.391 0.7 0.782-0.05 2.16c-0.59 1.019-14.55 24.859-27.8 26.988-3.57 0.582-6.78-0.391-9.55-2.84-3.32-2.957-4.31-6.57-2.79-10.179 4.15-9.829 27.3-18.09 38.37-17.309l1.12 0.398" fill="#406fbf"></path><path d="m2464.3 213.68-95.03 4.492-15.55 224.36 95.02-4.5 15.56-224.35" fill="#f89e63"></path><path d="m2367.1 234.43 107.57 3.402c3.91 0.129 6.95-2.5 7.3-6.32l7.91-84.93c0.82-8.812-7.2-17.434-16.22-17.562-37.47-0.532-55.43 1.101-102.73-0.399-29.1-0.91-86.35-5.242-126.24-0.223-39.02 4.911-33.79 44.344-16.43 45.774 41.1 3.367 96.18 31.769 122.54 53.848 4.75 3.98 10.58 6.23 16.3 6.41" fill="#17282f"></path><path d="m2352.8 223.95c-17.01-3.957-29.65-3.82-34.26 0.481-1.91 1.781-2.51 4.371-1.83 7.922 0.31 1.64 1.06 2.66 2.37 3.218 6.21 2.649 22.39-4.91 33.72-11.621zm-19.16-7.269c8.83 0.269 18.57 2.41 25.4 4.23l1.63 1.801-0.99 2.219c-3.12 2.031-30.81 19.699-42.36 14.742-2.68-1.141-4.4-3.391-4.99-6.492-0.98-5.098 0.09-9.149 3.17-12.02 3.92-3.648 10.72-4.711 18.14-4.48" fill="#406fbf"></path><path d="m2344.3 259.23c1.85 0.059 3.44-0.539 4.85-1.808 5.94-5.371 7.23-21.113 7.25-30.211-8.55 6.769-18.53 21.648-17.3 28.539 0.23 1.309 0.92 2.879 4.16 3.379zm14.31-38.398 1.01 0.277 1.14 1.84c0.06 1.172 1.34 28.77-8.62 37.77-2.68 2.441-5.89 3.371-9.55 2.832-4.4-0.68-7.19-3.172-7.88-7.02-1.88-10.511 13.03-30.039 22.75-35.429l1.15-0.27" fill="#406fbf"></path><path d="m2457.3 314.34-2.56 36.84h0.06l2.57-36.84h-0.07" fill="#c3c5c2"></path><path d="m2362.6 314.17-2.84 40.738 94.95-3.73 2.56-36.84-94.67-0.168" fill="#dc834c"></path><path d="m2925.8 1570.9s-687.87-65.03-662.83-272.08c36.14-298.63 54.01-942.25 54.01-942.25l175.31-6.879s74.29 580.51 35.86 886.31c178.01 0 613.79-12.83 653.53 94.44 35.1 94.76 22.57 240.46 22.57 240.46h-278.45" fill="#406fbf"></path><path d="m2511.6 338.91-210.41 10.43-7.56 91.582 230.74-15.942-12.77-86.07" fill="#17282f"></path><path d="m2773.1 2177.5c-1.27-16.84-2.61-31.38-4.52-46.85-1.8-15.23-3.88-30.4-6.29-45.53-4.69-30.31-10.61-60.48-17.64-90.72-14.64-60.47-32.47-120.89-65.96-182.2-8.81-15.36-18.38-30.62-30.85-45.87-12.21-15.03-28.15-30.9-45.4-42.29-34.83-23.55-74.46-34.76-110.75-37.35-36.57-2.77-70.83 1.69-102.85 9.75-16.04 4.04-31.56 9.04-46.63 14.94-7.55 2.9-14.95 6.17-22.3 9.56-7.58 3.44-14.1 7.02-22.5 11.53l26.31 66.93 19.11-2.42 20.03-2.03c13.35-1.06 26.58-1.71 39.53-1.76 25.87-0.06 50.73 2.48 72.14 8.27 21.47 5.93 38.7 14.9 50.9 26.49 6.34 5.99 10.91 11.33 16.56 19.44 5.53 7.87 10.69 18.04 15.8 28.38 10.11 21.29 18.76 45.62 25.96 71.1 7.55 25.35 13.71 51.87 19.19 78.8 5.65 26.9 10.2 54.34 14.54 81.87l5.89 41.4c1.74 13.57 3.72 28.1 5.02 40.43l144.71-11.87" fill="#f89e63"></path><path d="m2773.7 2259c-70.33 67.95-157.01 27.84-191.59-99.43-34.58-127.25-39.97-208.73-39.97-208.73l222.7-46.06c40.48 121.47 80.88 284.63 8.86 354.22" fill="#17282f"></path><path d="m2308.6 1830.2-49.56 19.1-2.18-106.12s84.02-36.33 101.13 5.4l-6.02 26.47c-5.17 22.69-21.18 43.06-43.37 55.15" fill="#f89e63"></path><path d="m2199.6 1846.5-29.5-89.04 86.72-14.28 2.18 106.12-59.4-2.8" fill="#f89e63"></path><g fill="#17282f"><path d="m2275.2 1775.9c-2.08 0-4.09 1.13-5.11 3.11l-89.34 171.94c-1.46 2.82-0.36 6.3 2.46 7.77 2.83 1.45 6.31 0.36 7.78-2.46l89.33-171.94c1.47-2.82 0.36-6.3-2.46-7.78l-2.66-0.64"></path><path d="m2765.4 2327.1 106.74 30.44 137.28 6.48c42.82 2.03 81.53-24.87 94.91-65.6 26.17-79.75 50.24-195.28 67.78-294.99 19.66-111.8 29.91-279.83 32.06-432.55h-512.31c-11.69 318.49-52.23 506.8-70.21 610.99-7.24 41.99 14.34 83.57 52.8 101.89l90.95 43.34"></path><path d="m2854 2565.5c21.95-53.99 8.74-153.01-34.63-124.99-43.38 28.01 21.23 157.96 34.63 124.99"></path></g><path d="m2829.6 2531-41.48-63.32-56.47-86.31c3.88-2.02 12.5-15.56 17.46-25.55 10.31-20.78 18.83-36.34-24.8-66.08-9.34-6.37-15.22-17.52-13.1-28.63 2.56-13.47 16.02-26.58 63.12-18.26 54.55 9.63 91.06 38.47 118.21 65.62 15.69 15.69 12.08 27.5-3.03 43.75-42.81 46.03-55.62 119.52-59.91 178.78" fill="#f89e63"></path><path d="m2537.9 2605.6c-12.87-29.09 32.87-111.51 85.17-78.19 52.29 33.33-62.37 129.74-85.17 78.19" fill="#17282f"></path><path d="m2790.1 2225.1c-1.4 0-2.63 1.01-2.85 2.43-3.87 24.73-19.84 40.4-38.34 58.55-23.19 22.77-49.48 48.57-58.13 99.04-0.26 1.57 0.78 3.05 2.36 3.33 1.66 0.3 3.06-0.79 3.33-2.35 8.33-48.64 33.91-73.75 56.48-95.89 18.43-18.1 35.83-35.18 40-61.78 0.24-1.57-0.83-3.05-2.4-3.3l-0.45-0.03" fill="#fff"></path><path d="m2811.3 2634.9c19.55-90.58 35.63-142.69 3.25-200.33-48.71-86.69-170.76-74.9-217.15 8.47-41.76 75.04-66.72 210.57 10.99 269.07 76.57 57.64 183.35 13.38 202.91-77.21" fill="#f89e63"></path><path d="m2838.2 2572.7c-31.17-44.29-112.97 37.06-106.31 91.66-81.21-46.23-169.4-107.97-222.94-55.94-61.76 60.02-44.83 146 27.54 153.67-12.81-24.97 59.69-36.06 98.72 2.57 65.5 64.8 168.96 51.23 167.05-1.28 49.95 19.85 104.47-93.34 35.94-190.68" fill="#17282f"></path><path d="m2792.7 2748.7c19.33 14.37 6.44 65.65-38.32 80.72 42.56-5.49 86.66-37.25 38.32-80.72" fill="#17282f"></path><path d="m2867.1 2576.7c1.02-22.53-7.47-43.52-18.93-57.12-17.23-20.44-43.79-4.13-49.94 21.38-5.54 22.97 1.64 58.43 24.19 69.41 22.22 10.82 43.52-7.91 44.68-33.67" fill="#f89e63"></path><path d="m2681.3 2561.5c2.42-7.35 0.53-14.72-4.22-16.46-4.74-1.74-10.54 2.8-12.94 10.16-2.42 7.34-0.53 14.7 4.21 16.44 4.75 1.74 10.54-2.8 12.95-10.14" fill="#17282f"></path><path d="m2599.4 2531.4c2.41-7.35 0.52-14.71-4.22-16.46-4.74-1.74-10.54 2.82-12.95 10.16s-0.52 14.71 4.22 16.44c4.74 1.75 10.54-2.8 12.95-10.14" fill="#17282f"></path><path d="m2627.4 2535.2s0.56-41.28-7.61-64.97c14.7-5.34 30.92 7.31 30.92 7.31l-23.31 57.66" fill="#f57739"></path><g fill="#17282f"><path d="m2671.3 2437.3c28.77 9.95 38.65 33.44 39.09 34.53 0.47 1.16-0.09 2.49-1.24 2.96-1.17 0.47-2.49-0.09-2.96-1.24-0.12-0.28-11.33-27.04-44.53-34.25-1.23-0.27-2-1.48-1.72-2.71 0.26-1.22 1.47-1.99 2.7-1.73 3.06 0.68 5.95 1.49 8.66 2.44"></path><path d="m2688.8 2593.2 1.67 1.54c1.35 2.11 0.75 4.92-1.36 6.28-20.87 13.39-39.98 4.56-40.78 4.18-2.23-0.81-3.22-3.78-2.14-6.05 1.08-2.26 3.78-3.22 6.04-2.15 0.79 0.36 15.58 6.91 31.97-3.62 1.44-0.93 3.2-0.94 4.6-0.18"></path><path d="m2583.1 2578.8-0.32 2.25c-0.96 2.31-3.62 3.41-5.93 2.45-22.91-9.51-26.53-30.25-26.67-31.12-0.61-2.29 1.26-4.8 3.75-5.21 2.47-0.4 4.79 1.27 5.2 3.74 0.16 0.86 3.2 16.74 21.2 24.21 1.57 0.65 2.59 2.1 2.77 3.68"></path></g><path d="m3086.7 2295.4c9.64-16.18 18.02-30.72 26.29-46.34 8.26-15.38 16.28-30.85 24.13-46.44 15.84-31.1 30.16-63.07 43.85-95.66 13.29-32.75 25.83-66.18 36.25-101.25 10.17-35.19 19.22-71.53 22.68-112.52 1.53-20.58 1.87-42.41-2.26-67.05-1.86-11.43-5.84-27.38-13.26-42.12-7.25-14.82-18.13-28.79-30.52-39.4-12.39-10.79-25.85-18.22-38.62-23.4-12.83-5.2-25.13-8.28-36.77-10.27-23.29-3.98-44.27-3.3-64.09-1.74-19.81 1.64-38.52 4.93-56.59 9.15-18.08 4.12-35.56 9.09-52.59 14.83-34.32 11.42-66.17 24.75-98.6 41.71l25.36 67.31c62.17-11.75 128.97-22.69 185.02-19.25 13.76 0.82 26.6 3.2 36.23 6.21 9.71 3.01 15.13 7.49 14.72 8.88l-0.85 0.96c-0.27 0.52-0.31 1.09 0.23 6.27 0.74 8.68 0.07 20.74-1.94 33.55-3.94 25.9-12.08 54.96-22.33 83.75-10.23 28.93-22.08 58.25-35.26 87.29-12.8 29.22-27.14 58.12-41.44 87.11-7.24 14.47-14.67 28.85-22.28 43.12l-22.61 41.87 125.25 73.43" fill="#f89e63"></path><path d="m3039.8 2362.5c-96.68 14.71-144.14-68.19-98.66-191.97 45.47-123.79 88.24-193.34 88.24-193.34l208.26 91.37c-37.32 122.48-98.83 278.89-197.84 293.94" fill="#17282f"></path><path d="m2818.4 1851.8-44.67-13.45 63.3-89.89s93.86 33.61 74.64 74.41l-23.59 13.43c-20.22 11.52-45.78 23.69-69.68 15.5" fill="#f89e63"></path><path d="m2734.3 1776.4 44.67-44.67 58.07 16.74-63.3 89.89-39.44-61.96" fill="#f89e63"></path><g fill="#fff"><path d="m2846.2 2565.5c0-9.61-6.43-17.39-14.36-17.39s-14.36 7.78-14.36 17.39 6.43 17.4 14.36 17.4 14.36-7.79 14.36-17.4"></path><path d="m2843.7 2519.5-8.34 0.28-5.11 40.1 15.87 3.56-2.42-43.94"></path><path d="m2901.1 1763.6c-30.34 0-56.6 4.43-72.78 19.03-11.55 10.42-17.41 25.58-17.41 45.08 0 48.16 10 87.22 18.82 121.68 13.95 54.49 24.97 97.52-8.46 150.55-53.17 84.34-37.35 202.25-0.14 276.11 28.51 56.55 18.82 119.14 15.18 142.7-0.48 3.08-0.84 5.45-1.01 7.01-0.15 1.59 1 3 2.58 3.17 1.53 0.08 3-1 3.16-2.58 0.15-1.51 0.5-3.78 0.96-6.72 3.72-24.06 13.61-87.98-15.71-146.18-36.51-72.45-52.12-187.99-0.14-270.44 34.75-55.12 22.89-101.43 9.16-155.05-8.74-34.13-18.64-72.81-18.64-120.25 0-18.05 5.07-31.39 15.51-40.81 26.93-24.29 86.55-18.12 144.22-12.17 25.77 2.66 52.42 5.42 75.93 5.42 1.59 0 2.88-1.29 2.88-2.88 0-1.6-1.29-2.89-2.88-2.89-23.22 0-49.71-2.74-75.34-5.39-25.87-2.67-52.13-5.39-75.89-5.39"></path><path d="m3172.2 1785h-113.83c-3.32 0-6-2.68-6-5.99v-8.01c0-3.32 2.68-6.01 6-6.01h113.83c3.32 0 6 2.69 6 6.01v8.01c0 3.31-2.68 5.99-6 5.99"></path></g><path d="m3886.4 1698.4h-2772.8c-18.32 0-33.3 14.99-33.3 33.3 0 18.32 14.98 33.3 33.3 33.3h2772.8c18.32 0 33.3-14.98 33.3-33.3 0-18.31-14.98-33.3-33.3-33.3" fill="#406fbf"></path><path d="m3886.4 1698.4h-649.11c-18.31 0-33.3 14.99-33.3 33.3 0 18.32 14.99 33.3 33.3 33.3h649.11c18.32 0 33.3-14.98 33.3-33.3 0-11.98-6.41-22.54-15.97-28.4-5.06-3.11-10.99-4.9-17.33-4.9" fill="#3665b9"></path><path d="m3855.8 129.4h63.87l-73.52 1569h-88.37l98.02-1569" fill="#17282f"></path><path d="m3919.7 129.4h-63.87l-98.02 1569h88.37l73.52-1569" fill="#2b3c43"></path><path d="m3267.8 129.4h-63.87l73.53 1569h88.37l-98.03-1569" fill="#17282f"></path><path d="m3267.8 129.4h-63.87l63.45 1354h37.56v131.49h-31.4l3.92 83.47h88.37l-74.15-1186.8-3.75-60-0.15-2.5-8.24-131.89-0.16-2.5-11.58-185.34" fill="#405158"></path><path d="m1732.2 129.4h63.87l-73.53 1569h-88.37l98.03-1569" fill="#17282f"></path><path d="m1796 129.4h-63.87l-84.6 1354h85.02l63.45-1354" fill="#2b3c43"></path><path d="m1726.4 1614.9h-87.07l-5.22 83.47h88.37l3.92-83.47" fill="#2b3c43"></path><path d="m1144.2 129.4h-63.86l73.52 1569h88.37l-98.03-1569" fill="#17282f"></path><path d="m1144.2 129.4h-63.86l73.52 1569h88.37l-5.21-83.47h-64.54v-131.49h56.32l-23.5-376.09-7.02-112.46-22.98-367.85-10.96-175.39-0.16-2.5-19.98-319.73" fill="#405158"></path><path d="m1172.4 1483.4h2132.5v131.49h-2132.5z" fill="#17282f"></path><path d="m3305 1483.4h-2132.5v131.49h2132.5v-131.49" fill="#405158"></path><path d="m1523.3 1853.5c-7.73 0-13.99-6.26-13.99-13.99v-60.5c0-7.73 6.26-13.99 13.99-13.99h453.53c2.52 0 4.56 2.04 4.56 4.56v79.37c0 2.51-2.04 4.55-4.56 4.55h-453.53" fill="#406fbf"></path><path d="m1981.4 1773.4h-189.68c-4.45 0-8.07 3.61-8.07 8.08v55.46c0 4.47 3.62 8.08 8.07 8.08h189.68v-71.62" fill="#e6effa"></path><path d="m1760.4 1853.5h-458.09c-7.73 0-13.99-6.26-13.99-13.99v-60.5c0-7.73 6.26-13.99 13.99-13.99h458.09c7.72 0 13.98 6.26 13.98 13.99v60.5c0 7.73-6.26 13.99-13.98 13.99" fill="#406fbf"></path><g fill="#3563b7"><path d="m1760.4 1765h-124.92c3.15 0 5.7 2.56 5.7 5.7v77.07c0 3.16-2.55 5.71-5.7 5.71h124.92c7.72 0 13.98-6.26 13.98-13.99v-60.5c0-7.73-6.26-13.99-13.98-13.99"></path><path d="m1566.1 1765h-30.93c3.15 0 5.7 2.56 5.7 5.7v77.07c0 3.16-2.55 5.71-5.7 5.71h30.93c-3.15 0-5.7-2.55-5.7-5.71v-77.07c0-3.14 2.55-5.7 5.7-5.7"></path><path d="m1465.7 1765h-163.34c-7.73 0-13.99 6.26-13.99 13.99v60.5c0 7.73 6.26 13.99 13.99 13.99h163.34c-3.15 0-5.7-2.55-5.7-5.71v-77.07c0-3.14 2.55-5.7 5.7-5.7"></path></g><path d="m1535.1 1765h-69.45c-3.15 0-5.7 2.56-5.7 5.7v77.07c0 3.16 2.55 5.71 5.7 5.71h69.45c3.15 0 5.7-2.55 5.7-5.71v-77.07c0-3.14-2.55-5.7-5.7-5.7" fill="#3b69bc"></path><path d="m1635.5 1765h-69.45c-3.15 0-5.7 2.56-5.7 5.7v77.07c0 3.16 2.55 5.71 5.7 5.71h69.45c3.15 0 5.7-2.55 5.7-5.71v-77.07c0-3.14-2.55-5.7-5.7-5.7" fill="#3b69bc"></path><path d="m1441.3 1962.4c-7.73 0-13.99-6.26-13.99-13.98v-80.94c0-7.72 6.26-13.99 13.99-13.99h491.29c2.51 0 4.55 2.04 4.55 4.56v99.8c0 2.52-2.04 4.55-4.55 4.55h-491.29" fill="#406fbf"></path><path d="m1937.1 1861.9h-227.42c-4.46 0-8.08 3.61-8.08 8.06v75.92c0 4.45 3.62 8.07 8.08 8.07h227.42v-92.05" fill="#e6effa"></path><path d="m1678.4 1962.4h-385.24c-7.73 0-13.99-6.26-13.99-13.98v-80.94c0-7.72 6.26-13.99 13.99-13.99h385.24c7.73 0 13.99 6.27 13.99 13.99v80.94c0 7.72-6.26 13.98-13.99 13.98" fill="#406fbf"></path><path d="m1678.4 1853.5h-385.24c-7.73 0-13.99 6.27-13.99 13.99v80.94c0 7.72 6.26 13.98 13.99 13.98h385.24c7.73 0 13.99-6.26 13.99-13.98v-80.94c0-7.72-6.26-13.99-13.99-13.99m-318.19 87.31c-4.7 0-8.52-3.82-8.52-8.52v-48.67c0-4.69 3.82-8.51 8.52-8.51h282.06c4.71 0 8.53 3.82 8.53 8.51v48.67c0 4.7-3.82 8.52-8.53 8.52h-282.06" fill="#5d87cd"></path><path d="m1642.3 1875.1h-282.06c-4.7 0-8.52 3.82-8.52 8.51v48.67c0 4.7 3.82 8.52 8.52 8.52h282.06c4.71 0 8.53-3.82 8.53-8.52v-48.67c0-4.69-3.82-8.51-8.53-8.51" fill="#4a77c4"></path><path d="m1585.4 2014.6c-7.73 0-13.99-3.69-13.99-8.25v-35.67c0-4.55 6.26-8.26 13.99-8.26h453.53c2.51 0 4.56 1.21 4.56 2.69v46.81c0 1.48-2.05 2.68-4.56 2.68h-453.53" fill="#406fbf"></path><path d="m2043.5 1967.3h-191.55c-3.43 0-6.2 2.79-6.2 6.21v29.83c0 3.43 2.77 6.2 6.2 6.2h191.55v-42.24" fill="#e6effa"></path><path d="m1825.8 2014.6h-464.59c-5.93 0-10.74-4.8-10.74-10.74v-30.69c0-5.93 4.81-10.75 10.74-10.75h464.59c5.93 0 10.74 4.82 10.74 10.75v30.69c0 5.94-4.81 10.74-10.74 10.74" fill="#406fbf"></path><path d="m1825.8 1962.4h-28.98c1.16 0 2.09 0.94 2.09 2.1v47.99c0 1.15-0.93 2.09-2.09 2.09h28.98c5.93 0 10.74-4.8 10.74-10.74v-30.69c0-5.93-4.81-10.75-10.74-10.75m-43.22 0h-362.98c1.16 0 2.1 0.95 2.1 2.11v47.96c0 1.16-0.94 2.11-2.1 2.11h362.98c-1.16 0-2.09-0.94-2.09-2.09v-47.99c0-1.16 0.93-2.1 2.09-2.1m-377.49 0h-43.88c-5.93 0-10.74 4.82-10.74 10.75v30.69c0 5.94 4.81 10.74 10.74 10.74h43.88c-1.16 0-2.11-0.95-2.11-2.11v-47.96c0-1.16 0.95-2.11 2.11-2.11" fill="#3563b7"></path><path d="m1419.6 1962.4h-14.51c-1.16 0-2.11 0.95-2.11 2.11v47.96c0 1.16 0.95 2.11 2.11 2.11h14.51c1.16 0 2.1-0.95 2.1-2.11v-47.96c0-1.16-0.94-2.11-2.1-2.11" fill="#3b69bc"></path><path d="m1796.8 1962.4h-14.24c-1.16 0-2.09 0.94-2.09 2.1v47.99c0 1.15 0.93 2.09 2.09 2.09h14.24c1.16 0 2.09-0.94 2.09-2.09v-47.99c0-1.16-0.93-2.1-2.09-2.1" fill="#3b69bc"></path><path d="m1503.4 2090c-7.73 0-13.99-3.7-13.99-8.25v-58.9c0-4.56 6.26-8.25 13.99-8.25h491.29c2.51 0 4.55 1.2 4.55 2.69v70.02c0 1.48-2.04 2.69-4.55 2.69h-491.29" fill="#406fbf"></path><path d="m1999.2 2019.5h-229.3c-3.42 0-6.2 2.78-6.2 6.2v53.06c0 3.42 2.78 6.2 6.2 6.2h229.3v-65.46" fill="#e6effa"></path><path d="m1743.8 2090h-391.74c-5.93 0-10.74-4.81-10.74-10.74v-53.92c0-5.93 4.81-10.74 10.74-10.74h391.74c5.93 0 10.74 4.81 10.74 10.74v53.92c0 5.93-4.81 10.74-10.74 10.74" fill="#406fbf"></path><path d="m1743.8 2014.6h-391.74c-5.93 0-10.74 4.81-10.74 10.74v53.92c0 5.93 4.81 10.74 10.74 10.74h391.74c5.93 0 10.74-4.81 10.74-10.74v-53.92c0-5.93-4.81-10.74-10.74-10.74" fill="#3b69bb"></path><path d="m2599.2 1781.6h-412.74c-4.57 0-8.32-3.75-8.32-8.32 0-4.58 3.75-8.33 8.32-8.33h412.74c4.58 0 8.32 3.75 8.32 8.33 0 4.57-3.74 8.32-8.32 8.32" fill="#fff"></path><path d="m3406.6 1801.4h271.19l24.5-35.47h-320.2l24.51 35.47" fill="#17282f"></path><path d="m3825.4 2407.3c0-20.15-16.34-36.49-36.49-36.49s-36.48 16.34-36.48 36.49c0 20.14 16.33 36.48 36.48 36.48s36.49-16.34 36.49-36.48" fill="#040606"></path><g fill="#17282f"><path d="m3551.2 1777.4c-1.49 0-3.01 0.3-4.47 0.92-5.87 2.47-8.61 9.24-6.13 15.1l261.28 618.33c2.47 5.87 9.21 8.64 15.09 6.13 5.87-2.47 8.62-9.24 6.14-15.1l-261.28-618.33c-1.86-4.4-6.13-7.05-10.63-7.05"></path><path d="m3812.4 2395.8c-2.4 0-4.83 0.74-6.9 2.3l-474.55 355.71c-5.1 3.83-6.14 11.05-2.31 16.14 3.8 5.09 11.04 6.14 16.13 2.32l474.56-355.73c5.09-3.81 6.13-11.03 2.3-16.13-2.26-3.02-5.72-4.61-9.23-4.61"></path><path d="m3848.9 2407.3c0-20.15-16.34-36.49-36.48-36.49-20.16 0-36.49 16.34-36.49 36.49 0 20.14 16.33 36.48 36.49 36.48 20.14 0 36.48-16.34 36.48-36.48"></path><path d="m3363.6 2737.3c-14.22-14.21-37.27-14.21-51.49 0-14.21 14.22-14.21 37.27 0 51.48 14.22 14.22 37.27 14.22 51.49 0 14.22-14.21 14.22-37.26 0-51.48"></path></g><path d="m3286.9 2596.7c-31.85-31.86-83.48-31.86-115.33 0-31.85 31.85-31.85 83.48 0 115.33s83.48 31.85 115.33 0 31.85-83.48 0-115.33" fill="#406fbf"></path><path d="m3270 2583.7-111.42 111.42 111.42-111.42" fill="#b8d2ef"></path><path d="m3337.9 2763c-68.28 68.28-178.97 68.28-247.25 0l247.25-247.25c68.27 68.28 68.27 178.98 0 247.25" fill="#17282f"></path><path d="m2885.7 2358.2v207.8l68.71 66.05v-270.6l-68.71-3.25" fill="#dde4ec"></path><path d="m3201.9 2052.4c-0.05 0.12-0.09 0.24-0.13 0.36l0.27 0.12-0.14-0.48m19.54 66.55c-38.14 111.28-95.78 230.48-181.58 243.52-7.44 1.13-14.61 1.69-21.45 1.69-0.78 0-1.55-0.01-2.31-0.02-0.7 0.01-1.41 0.02-2.11 0.02-1.49 0-3-0.03-4.51-0.11l-55.02-2.59v270.6l136.22 130.93 67.91-67.91c-7.27-12.57-10.9-26.67-10.9-40.77 0-20.87 7.97-41.74 23.89-57.66 15.92-15.93 36.79-23.89 57.67-23.89 14.09 0 28.19 3.63 40.76 10.9l67.92-67.92-116.49-396.79" fill="#eaf1fa"></path><path d="m2855.2 2407.6c-3.96 9.58-7.33 19.49-10.22 29.58 0.11 0.89 0.21 1.78 0.31 2.67 3.88 3.11 7.19 7.8 9.91 13.64v-45.89" fill="#dde4ec"></path><path d="m2884.3 2358.2c-12.14 14.53-21.65 31.4-29.1 49.46v45.89c9.81 21.06 11.95 57.09 5.84 87.93 0.18 0.45 0.36 0.9 0.53 1.36l24.17 23.23v-207.8l-1.44-0.07" fill="#d3d9e1"></path><path d="m2680.3 1765h-33.65c0.38 0.46 0.75 0.91 1.12 1.37 11.44 13.99 20.44 27.98 28.65 42.05 1.34-14.09 2.64-28.57 3.88-43.42m-277.1 28.23h-0.88c-12.95 0.05-26.18 0.7-39.53 1.76l-19.62 1.99c-7.92 13.58-19.93 25.26-34.66 33.28l-49.56 19.1-12.16-0.57-8.11 15.61v79.73l450.34 432.88c1.14-0.21 2.27-0.41 3.41-0.59 6.73-30.01 19.96-50.73 34.53-67.58l-38.39-18.29c-44.57-7.72-85.32-52.98-106.51-130.97-34.58-127.25-39.97-208.73-39.97-208.73l40.33-8.34c-6.94-23.88-15.18-46.64-24.7-66.7-5.11-10.34-10.27-20.51-15.8-28.38-5.65-8.11-10.22-13.45-16.56-19.44-12.2-11.59-29.43-20.56-50.9-26.49-21.17-5.72-45.71-8.27-71.26-8.27m329.18 518.2c-14.13 16.13-27.07 35.83-33.83 64.16 4.68-0.52 9.37-0.78 14.05-0.78 7.87 0 15.71 0.74 23.41 2.24 3.51-4.42 7.83-11.34 11.2-17.63 0.66-1.23 1.28-2.44 1.85-3.61 0.15-0.29 0.3-0.57 0.45-0.86 5.56-11.19 10.38-20.92 6.45-32.29l-23.58-11.23" fill="#eaf1fa"></path><path d="m2172.6 1765h-120.21l150.06 144.25 31.73-61.06-34.56-1.63-27.02-81.56m66.15 99.4-27.63 53.18 27.63 26.55v-79.73" fill="#e6eef7"></path><path d="m2646.7 1765h-47.5c4.58 0 8.32 3.75 8.32 8.33 0 4.57-3.74 8.32-8.32 8.32h-249.08c-1.73 5.3-4.05 10.44-6.9 15.33l19.62-1.99c13.35-1.06 26.58-1.71 39.53-1.76h0.88c25.55 0 50.09 2.55 71.26 8.27 21.47 5.93 38.7 14.9 50.9 26.49 6.34 5.99 10.91 11.33 16.56 19.44 5.53 7.87 10.69 18.04 15.8 28.38 9.52 20.06 17.76 42.82 24.7 66.7l48.47-10.03c0-0.02 0-0.04-0.01-0.06l32.38-6.69c4.64-35.86 9.11-74.88 13.16-117.31-8.21-14.07-17.21-28.06-28.65-42.05-0.37-0.46-0.74-0.91-1.12-1.37" fill="#f9a87b"></path><path d="m2630.9 1932.5-48.47 10.03-40.33 8.34s5.39 81.48 39.97 208.73c21.19 77.99 61.94 123.25 106.51 130.97l-14.13-6.73c-38.46-18.32-60.04-59.9-52.8-101.89 6.94-40.19 17.23-92.89 27.93-160.76-8.22-27.5-14.5-57.87-18.68-88.69" fill="#364a5b"></path><path d="m2663.3 1925.7-32.38 6.69c0.01 0.02 0.01 0.04 0.01 0.06l32.37-6.69v-0.06" fill="#bb8164"></path><path d="m2663.3 1925.8-32.37 6.69c4.18 30.82 10.46 61.19 18.68 88.69 4.56-28.97 9.2-60.69 13.69-95.38" fill="#2d3e4b"></path><path d="m2350.1 1781.6h-69.13c0 0.9-0.21 1.81-0.65 2.66l-21.81 41.98 0.47 23.07 49.56-19.1c14.73-8.02 26.74-19.7 34.66-33.28 2.85-4.89 5.17-10.03 6.9-15.33m-81.39 0h-11.12l0.42 20.58 10.7-20.58" fill="#f9a87b"></path><path d="m2186.4 1765h-13.88l27.02 81.56 34.56 1.63 23.87-45.96-0.42-20.58h-71.15c-4.57 0-8.32-3.75-8.32-8.32 0-4.58 3.75-8.33 8.32-8.33m72.07 61.29-11.69 22.5 12.16 0.57-0.47-23.07" fill="#f9a87b"></path><path d="m2281 1781.6h-12.26l-10.7 20.58-23.87 45.96-31.73 61.06 8.67 8.33 27.63-53.18 8.11-15.61 11.69-22.5 21.81-41.98c0.44-0.85 0.65-1.76 0.65-2.66" fill="#364a5b"></path><path d="m2825.4 1765-51.64 73.33-39.44-61.96 11.36-11.37h-65.34c-1.24 14.85-2.54 29.33-3.88 43.42-4.05 42.43-8.52 81.45-13.16 117.31v0.06c-4.49 34.69-9.13 66.41-13.69 95.38-10.7 67.87-20.99 120.57-27.93 160.76-7.24 41.99 14.34 83.57 52.8 101.89l14.13 6.73 38.39 18.29c3.07-3.56 6.21-6.94 9.36-10.21-3.48-2.82-7.48-5.78-12.04-8.89-9.34-6.37-15.22-17.52-13.1-28.63 2.01-10.54 10.69-20.86 36.94-20.86 7.29 0 15.94 0.79 26.18 2.6 2.69 0.48 5.33 1 7.93 1.56 2.2-4.98 3.86-10.31 4.83-16.15 0.17-44.83 10.09-90 34.21-128.26 33.43-53.03 22.41-96.06 8.46-150.55-7.44-29.06-15.72-61.4-18.13-99.72l-37.88-11.4 51.64-73.33m209.69 57.31c-48.52 0-103.08 8.69-154.92 18.34-13.84 7.33-29.54 13.81-45.21 13.81-5.54 0-11.08-0.81-16.53-2.68l-0.9-0.27c2.55 36.88 10.59 68.25 17.82 96.51 13.73 53.62 25.59 99.93-9.16 155.05-23.32 36.99-33.04 80.65-33.36 124.09 0.12 0.4 0.16 0.84 0.09 1.29-0.03 0.21-0.07 0.42-0.1 0.62-0.01 6.04 0.17 12.07 0.51 18.07 44.24 12.28 75.35 37.46 99.22 61.33 15.69 15.69 12.08 27.5-3.03 43.75-1.8 1.93-3.55 3.92-5.24 5.95l1.44 0.07 68.71 3.25 55.02 2.59c1.51 0.08 3.02 0.11 4.51 0.11 0.7 0 1.41-0.01 2.11-0.02-80.39-1.48-116.48-80.48-74.9-193.64 23.69-64.51 46.66-114.29 63.21-147.17 0.24-23.57 2.81-45.67 7.89-64.25 12.25-44.88 48.52-57.18 84.57-57.18 1.36 0 2.73 0.01 4.09 0.05 1.79-7.93 3.28-15.68 4.42-23.16 2.01-12.81 2.68-24.87 1.94-33.55-0.54-5.18-0.5-5.75-0.23-6.27l0.85-0.96c0.41-1.39-5.01-5.87-14.72-8.88-9.63-3.01-22.47-5.39-36.23-6.21-7.13-0.44-14.43-0.64-21.87-0.64m-294.32 480.07c-2.81 2.9-5.6 5.91-8.35 9.05l23.58 11.23c-2.12-6.12-6.78-12.72-15.23-20.28" fill="#364a5b"></path><path d="m3096.8 1901.9c-36.05 0-72.32 12.3-84.57 57.18-5.08 18.58-7.65 40.68-7.89 64.25 15.22-30.22 25.03-46.17 25.03-46.17l41.39 18.16c4.29-10.96 8.37-21.9 12.22-32.78 7.29-20.47 13.51-41.08 17.91-60.59-1.36-0.04-2.73-0.05-4.09-0.05" fill="#2d3e4b"></path><path d="m2845.3 2439.9c3.37 31.12-0.05 58.64-2.46 74.74 1.85 1.32 3.64 2.98 5.33 4.99 5.06 6.01 9.54 13.46 12.88 21.84 6.11-30.84 3.97-66.87-5.84-87.93-2.72-5.84-6.03-10.53-9.91-13.64m-4.67 14.23c-3.41 14.68-5.91 29.51-7.75 43.99 0.2 4.1 0.24 8.26 0.15 12.49 1.48 0.21 2.96 0.58 4.42 1.13 1.96-13.5 4.35-34.06 3.18-57.61" fill="#364a5b"></path><path d="m2748.2 2240.2c-26.25 0-34.93 10.32-36.94 20.86-2.12 11.11 3.76 22.26 13.1 28.63 4.56 3.11 8.56 6.07 12.04 8.89 4.19-4.35 8.4-8.49 12.52-12.53 13.92-13.66 26.41-25.92 33.39-41.69-2.6-0.56-5.24-1.08-7.93-1.56-10.24-1.81-18.89-2.6-26.18-2.6m39.41 6.38c-7.51 16.95-20.79 29.98-34.65 43.6-3.99 3.92-8.08 7.93-12.15 12.15 8.45 7.56 13.11 14.16 15.23 20.28 3.93 11.37-0.89 21.1-6.45 32.29 0.76-1.48 1.47-2.96 2.26-4.44 14.41 11.51 28.02 30.79 34.81 50.29 10.74 8.88 20.25 20.1 27.93 33.77 11.91 21.2 17.26 41.64 18.3 63.53 1.84-14.48 4.34-29.31 7.75-43.99-1.21-24.31-6.22-51.81-19.43-78-18.02-35.77-31.02-81.87-33.6-129.48m5.76 0.51c2.64 46.45 15.39 91.42 33 126.37 10.69 21.21 16.16 43.18 18.63 63.7 2.89-10.09 6.26-20 10.22-29.58 7.45-18.06 16.96-34.93 29.1-49.46 1.69-2.03 3.44-4.02 5.24-5.95 15.11-16.25 18.72-28.06 3.03-43.75-23.87-23.87-54.98-49.05-99.22-61.33m-46.08 112.28c-3.37 6.29-7.69 13.21-11.2 17.63h0.01c3.51-4.39 7.84-11.32 11.19-17.63" fill="#f9a87b"></path><path d="m2749.6 2354.9c-0.15 0.29-0.3 0.57-0.45 0.86-0.57 1.17-1.19 2.38-1.85 3.61 0.67-1.23 1.29-2.44 1.87-3.6 0.14-0.29 0.28-0.58 0.43-0.87" fill="#bcc4cd"></path><path d="m2751.8 2350.5c-0.79 1.48-1.5 2.96-2.26 4.44-0.15 0.29-0.29 0.58-0.43 0.87-0.58 1.16-1.2 2.37-1.87 3.6-3.35 6.31-7.68 13.24-11.19 17.63 18.2 3.56 35.59 11.38 50.56 23.75-6.79-19.5-20.4-38.78-34.81-50.29" fill="#d5906c"></path><path d="m2792.8 2227.1c-0.01 0.64-0.01 1.27-0.01 1.91 0.03-0.2 0.07-0.41 0.1-0.62 0.07-0.45 0.03-0.89-0.09-1.29m-5.73 1.1c-0.97 5.84-2.63 11.17-4.83 16.15-6.98 15.77-19.47 28.03-33.39 41.69-4.12 4.04-8.33 8.18-12.52 12.53-3.15 3.27-6.29 6.65-9.36 10.21-14.57 16.85-27.8 37.57-34.53 67.58 2.04-0.33 4.08-0.6 6.12-0.83 6.76-28.33 19.7-48.03 33.83-64.16 2.75-3.14 5.54-6.15 8.35-9.05 4.07-4.22 8.16-8.23 12.15-12.15 13.86-13.62 27.14-26.65 34.65-43.6-0.33-6.11-0.49-12.24-0.47-18.37" fill="#eff6fc"></path><g fill="#f9a87b"><path d="m2712.6 2374.8c-4.68 0-9.37 0.26-14.05 0.78-2.04 0.23-4.08 0.5-6.12 0.83-1.14 0.18-2.27 0.38-3.41 0.59l138.85 133.46c0.69-0.06 1.39-0.1 2.08-0.1 1 0 2.01 0.07 3.01 0.22 0.09-4.23 0.05-8.39-0.15-12.49-1.04-21.89-6.39-42.33-18.3-63.53-7.68-13.67-17.19-24.89-27.93-33.77-14.97-12.37-32.36-20.19-50.56-23.75h-0.01c-7.7-1.5-15.54-2.24-23.41-2.24"></path><path d="m2830 2510.4c-0.69 0-1.39 0.04-2.08 0.1l8.47 8.14c0.31-2.02 0.67-4.33 1.04-6.89-1.46-0.55-2.94-0.92-4.42-1.13-1-0.15-2.01-0.22-3.01-0.22m12.82 4.25c-0.26 1.8-0.52 3.45-0.75 4.96l1.67-0.06 0.36 6.5 17.46 16.79c-0.17-0.46-0.35-0.91-0.53-1.36-3.34-8.38-7.82-15.83-12.88-21.84-1.69-2.01-3.48-3.67-5.33-4.99"></path><path d="m3117.5 1765h-183.84c14.25 1.04 28.87 2.55 43.38 4.05 25.63 2.65 52.12 5.39 75.34 5.39h0.01v-3.43c0-3.32 2.68-6.01 6-6.01h59.11m-242.29 0h-2.5c0.15 0.09 0.3 0.17 0.44 0.25 0.69-0.09 1.37-0.17 2.06-0.25m25.74 4.42c-6.8 0-13.37 0.22-19.63 0.74 21.17 13.52 40.04 32.2 30.39 52.69l-23.59 13.43c-2.56 1.46-5.21 2.93-7.94 4.37 51.84-9.65 106.4-18.34 154.92-18.34 7.44 0 14.74 0.2 21.87 0.64 13.76 0.82 26.6 3.2 36.23 6.21 9.71 3.01 15.13 7.49 14.72 8.88l-0.85 0.96c-0.27 0.52-0.31 1.09 0.23 6.27 0.74 8.68 0.07 20.74-1.94 33.55-1.14 7.48-2.63 15.23-4.42 23.16-4.4 19.51-10.62 40.12-17.91 60.59-3.85 10.88-7.93 21.82-12.22 32.78l130.94 57.44c0.04-0.12 0.08-0.24 0.13-0.36l-78.51-267.42h-64.98c-2.91 0-5.33-2.06-5.88-4.81-0.05 0.01-0.09 0.01-0.13 0.01-23.51 0-50.16-2.76-75.93-5.42-25.81-2.67-52.01-5.37-75.5-5.37"></path></g><path d="m3029.4 1977.2s-9.81 15.95-25.03 46.17c-16.55 32.88-39.52 82.66-63.21 147.17-41.58 113.16-5.49 192.16 74.9 193.64 0.76 0.01 1.53 0.02 2.31 0.02 6.84 0 14.01-0.56 21.45-1.69 85.8-13.04 143.44-132.24 181.58-243.52l-19.4-66.07-0.27-0.12-130.94-57.44-41.39-18.16" fill="#364a5b"></path><path d="m2872.7 1765h-47.3l-51.64 73.33 37.88 11.4c-0.45-7.11-0.69-14.42-0.69-21.96 0-19.5 5.86-34.66 17.41-45.08 10.94-9.87 26.48-15.09 44.78-17.44-0.14-0.08-0.29-0.16-0.44-0.25m8.61 5.16c-20.47 1.7-37.7 6.53-49.09 16.8-10.44 9.42-15.51 22.76-15.51 40.81 0 8.16 0.29 16.07 0.82 23.74l0.9 0.27c5.45 1.87 10.99 2.68 16.53 2.68 15.67 0 31.37-6.48 45.21-13.81 2.73-1.44 5.38-2.91 7.94-4.37l23.59-13.43c9.65-20.49-9.22-39.17-30.39-52.69" fill="#f9a87b"></path><path d="m2825.4 1765h-79.72l-11.36 11.37 39.44 61.96 51.64-73.33" fill="#f9a87b"></path><g fill="#eff6fc"><path d="m2843.7 2519.5-1.67 0.06c-0.01 0.03-0.01 0.07-0.02 0.11-0.22 1.43-0.42 2.7-0.58 3.8l2.63 2.53-0.36-6.5"></path><path d="m2933.6 1765h-58.45c-0.69 0.08-1.37 0.16-2.06 0.25-18.3 2.35-33.84 7.57-44.78 17.44-11.55 10.42-17.41 25.58-17.41 45.08 0 7.54 0.24 14.85 0.69 21.96 2.41 38.32 10.69 70.66 18.13 99.72 13.95 54.49 24.97 97.52-8.46 150.55-24.12 38.26-34.04 83.43-34.21 128.26-0.02 6.13 0.14 12.26 0.47 18.37 2.58 47.61 15.58 93.71 33.6 129.48 13.21 26.19 18.22 53.69 19.43 78 1.17 23.55-1.22 44.11-3.18 57.61-0.37 2.56-0.73 4.87-1.04 6.89l5.08 4.88c0.16-1.1 0.36-2.37 0.58-3.8 0.01-0.04 0.01-0.08 0.02-0.11 0.23-1.51 0.49-3.16 0.75-4.96 2.41-16.1 5.83-43.62 2.46-74.74-0.1-0.89-0.2-1.78-0.31-2.67-2.47-20.52-7.94-42.49-18.63-63.7-17.61-34.95-30.36-79.92-33-126.37-0.34-6-0.52-12.03-0.51-18.07 0-0.64 0-1.27 0.01-1.91 0.32-43.44 10.04-87.1 33.36-124.09 34.75-55.12 22.89-101.43 9.16-155.05-7.23-28.26-15.27-59.63-17.82-96.51-0.53-7.67-0.82-15.58-0.82-23.74 0-18.05 5.07-31.39 15.51-40.81 11.39-10.27 28.62-15.1 49.09-16.8 6.26-0.52 12.83-0.74 19.63-0.74 23.49 0 49.69 2.7 75.5 5.37 25.77 2.66 52.42 5.42 75.93 5.42 0.04 0 0.08 0 0.13-0.01-0.08-0.38-0.12-0.78-0.12-1.18v-4.58h-0.01c-23.22 0-49.71-2.74-75.34-5.39-14.51-1.5-29.13-3.01-43.38-4.05"></path><path d="m3117.5 1765h-59.11c-3.32 0-6 2.69-6 6.01v8.01c0 0.4 0.04 0.8 0.12 1.18 0.55 2.75 2.97 4.81 5.88 4.81h64.98l-5.87-20.01"></path></g><path d="m3117.5 1765h-1065.1 1065.1" fill="#537ec8"></path><path d="m2599.2 1765h-412.74c-4.57 0-8.32 3.75-8.32 8.33 0 4.57 3.75 8.32 8.32 8.32h412.74c4.58 0 8.32-3.75 8.32-8.32 0-4.58-3.74-8.33-8.32-8.33" fill="#eff6fc"></path><path d="m3229.2 2572.8c-20.88 0-41.75 7.96-57.67 23.89-15.92 15.92-23.89 36.79-23.89 57.66 0 14.1 3.63 28.2 10.9 40.77l111.42-111.42c-12.57-7.27-26.67-10.9-40.76-10.9" fill="#b8d2ef"></path></g></g></svg> 